<svg xmlns="http://www.w3.org/2000/svg" width="31" height="31" viewBox="0 0 31 31"><g id="Group_6254" data-name="Group 6254" transform="translate(-1175 -1640)"><path id="Path_8607" data-name="Path 8607" d="M0,0H31V31H0Z" transform="translate(1175 1640)" fill="#c656ff"></path><g id="Group_6114" data-name="Group 6114" transform="translate(2318.49 2366.106)"><path id="Path_6604" data-name="Path 6604" d="M-1127.408-719.106c.162.045.326.082.485.136a2.281,2.281,0,0,1,1.6,2.221.218.218,0,0,0,.183.242q.738.222,1.47.465a.177.177,0,0,0,.243-.08,2.417,2.417,0,0,1,3.827-.171,2.425,2.425,0,0,1,.278,2.706,2.24,2.24,0,0,1-2.209,1.3,2.417,2.417,0,0,1-2.36-2.41v-.153q-.725-.231-1.449-.46c-.317-.1-.317-.1-.523.159a2.474,2.474,0,0,1-3.654.127l-.124-.136c-.512.237-1.014.489-1.531.7a.566.566,0,0,0-.437.669,2.376,2.376,0,0,1-2.02,2.378,2.447,2.447,0,0,1-2.838-2.68,2.616,2.616,0,0,1,1.99-2.1,2.3,2.3,0,0,1,2.224.739.19.19,0,0,0,.264.054c.569-.273,1.143-.537,1.717-.8.1-.047.126-.1.112-.212a2.353,2.353,0,0,1,1.958-2.667.622.622,0,0,0,.1-.034Zm-7.839,5.313a1.178,1.178,0,0,0,1.193,1.225,1.2,1.2,0,0,0,1.232-1.231,1.2,1.2,0,0,0-1.217-1.227A1.19,1.19,0,0,0-1135.247-713.793Zm8.723-2.919a1.247,1.247,0,0,0-1.266-1.209,1.263,1.263,0,0,0-1.2,1.222,1.3,1.3,0,0,0,1.3,1.234A1.246,1.246,0,0,0-1126.525-716.713Zm6.266,1.99a1.181,1.181,0,0,0-1.2-1.219,1.2,1.2,0,0,0-1.219,1.242,1.179,1.179,0,0,0,1.2,1.217A1.192,1.192,0,0,0-1120.258-714.722Z" transform="translate(0 0)" fill="#fff"></path><path id="Path_6605" data-name="Path 6605" d="M-1124.491-702.017v-5.411a.62.62,0,0,1,.7-.7h3.461a.627.627,0,0,1,.709.7q0,5.42,0,10.84a.616.616,0,0,1-.7.686h-3.513a.6.6,0,0,1-.659-.666Q-1124.492-699.295-1124.491-702.017Z" transform="translate(-5.693 -5.208)" fill="#fff"></path><path id="Path_6606" data-name="Path 6606" d="M-1112.544-699.236c0-1.458.01-2.916-.006-4.374a.663.663,0,0,1,.729-.732c1.148.018,2.3.006,3.443.006a.617.617,0,0,1,.705.71c0,2.934,0,5.867.005,8.8a.663.663,0,0,1-.722.723q-1.722-.028-3.443,0a.664.664,0,0,1-.719-.726C-1112.534-696.3-1112.544-697.766-1112.544-699.236Z" transform="translate(-11.358 -7.005)" fill="#fff"></path><path id="Path_6607" data-name="Path 6607" d="M-1136.459-697.945q0-1.986,0-3.971a.608.608,0,0,1,.682-.681q1.757,0,3.514,0a.612.612,0,0,1,.682.683q0,3.971,0,7.943a.616.616,0,0,1-.694.69h-3.514a.607.607,0,0,1-.671-.675Q-1136.459-695.95-1136.459-697.945Z" transform="translate(-0.015 -7.833)" fill="#fff"></path></g></g></svg>