<svg xmlns="http://www.w3.org/2000/svg" width="26.844" height="23.097" viewBox="0 0 26.844 23.097"><g data-name="Group 151" transform="translate(0 0)"><path data-name="Path 835" d="M5057.038,1341.209h.542q6.234,0,12.468-.008a.828.828,0,0,1,.766.392,15.041,15.041,0,0,0,5.269,4.32,2.434,2.434,0,0,0,2.492-.165,15.361,15.361,0,0,0,5.247-4.571c.023.224.046.349.047.473q0,3.8,0,7.6a1.7,1.7,0,0,1-1.9,1.887q-11.5,0-23,0a1.705,1.705,0,0,1-1.929-1.914q-.005-3.746,0-7.492Zm5.887,4.961c.524,0,1.048.009,1.571,0a.827.827,0,1,0,.019-1.645q-1.6-.017-3.194,0a.827.827,0,1,0-.018,1.645C5061.842,1346.18,5062.384,1346.169,5062.924,1346.17Z" transform="translate(-5057.033 -1328.037)" fill="#fff"></path><path data-name="Path 836" d="M5198.3,1219.73a13.342,13.342,0,0,1-.621,4.874,9.9,9.9,0,0,1-3.918,4.731,13.167,13.167,0,0,1-1.576.981,1.089,1.089,0,0,1-.862.069,12.471,12.471,0,0,1-5-4.428,9.683,9.683,0,0,1-1.242-4.741c-.038-1.256,0-2.514-.02-3.77a.97.97,0,0,1,.65-1c1.835-.78,3.661-1.583,5.505-2.34a1.347,1.347,0,0,1,.929,0c1.845.757,3.671,1.56,5.506,2.34a.964.964,0,0,1,.652,1C5198.29,1218.116,5198.3,1218.788,5198.3,1219.73Zm-7.383,2.755c-.365-.545-.679-1.038-1.019-1.512a.82.82,0,1,0-1.362.911q.778,1.216,1.6,2.4a.817.817,0,0,0,1.39.079c.069-.076.13-.161.194-.241,1-1.249,2-2.493,3-3.747a.831.831,0,0,0-.33-1.41.874.874,0,0,0-.977.4C5192.6,1220.392,5191.781,1221.409,5190.918,1222.485Z" transform="translate(-5171.465 -1214.021)" fill="#fff"></path><path data-name="Path 837" d="M5057.017,1266.381c0-1.163-.031-2.281.01-3.4a1.62,1.62,0,0,1,1.746-1.535c2.464-.008,4.927,0,7.391,0h2.35c.1,1.665.2,3.288.3,4.936Z" transform="translate(-5057.005 -1256.543)" fill="#fff"></path></g></svg>