<svg xmlns="http://www.w3.org/2000/svg" data-name="Group 148" width="26.845" height="19.667" viewBox="0 0 26.845 19.667"><path data-name="Path 822" d="M4260.471,1016.039c-.6.469-1.145.879-1.676,1.3a4.125,4.125,0,0,0-1.671,3.372c0,.679.022,1.359-.017,2.036-.01.183-.193.368-.327.528-.077.093-.253.11-.316.207-.413.623-1.031.563-1.657.555-1.412-.017-2.824-.005-4.236-.005-.146,0-.322.048-.434-.016a3.507,3.507,0,0,1-.525-.445c.183-.161.358-.452.55-.462.914-.05,1.833-.008,2.75-.03a1.4,1.4,0,0,0,.339-2.747,3.09,3.09,0,0,0-.708-.067c-1.761-.005-3.521,0-5.282,0-.147,0-.326.05-.432-.017a3.118,3.118,0,0,1-.494-.462c.173-.149.335-.408.522-.427a16.851,16.851,0,0,1,1.7-.022c.624,0,1.247.008,1.87,0a1.434,1.434,0,0,0,1.519-1.406,1.464,1.464,0,0,0-1.518-1.419c-.476-.014-.953,0-1.43,0q-1.954,0-3.907,0c-.317,0-.619-.042-.633-.436-.016-.427.291-.49.637-.49,1.779,0,3.558.009,5.337,0a1.418,1.418,0,0,0,1.481-1.14,1.368,1.368,0,0,0-.757-1.5,2.2,2.2,0,0,0-.847-.174c-1.137-.019-2.273-.009-3.412-.008-.314,0-.554-.1-.562-.454s.232-.466.545-.473c.146,0,.293,0,.44,0h5.117a4.788,4.788,0,0,0,.549-.016,1.386,1.386,0,0,0,1.294-1.442,1.405,1.405,0,0,0-1.391-1.358c-.862-.023-1.724-.01-2.586-.005-.335,0-.667-.029-.682-.449-.016-.46.343-.5.693-.5,1.742,0,3.485-.011,5.227.013a1.532,1.532,0,0,1,.643.3c.125.072.208.244.333.278.634.171.632.639.608,1.155s-.007,1.064,0,1.6a4.12,4.12,0,0,0,1.644,3.33C4259.309,1015.151,4259.863,1015.568,4260.471,1016.039Z" transform="translate(-4244.46 -1006.214)" fill="#fff"></path><path data-name="Path 823" d="M4367.883,1016.84h.959c0,.547.012,1.073,0,1.6a2.4,2.4,0,0,0,1.018,2.083c.858.656,1.708,1.325,2.569,1.979a1.651,1.651,0,0,0,2.213-.007c.862-.653,1.714-1.32,2.571-1.978a2.409,2.409,0,0,0,1.008-2.089c-.015-.51,0-1.021,0-1.57h1.009c-.061,1.074-.058,2.153-.2,3.212a2.793,2.793,0,0,1-1.2,1.782c-.655.5-1.311,1-1.96,1.51-.468.365-.472.637-.012,1,.649.509,1.3,1.009,1.959,1.51a3.28,3.28,0,0,1,1.355,2.588c.029.8.006,1.6.006,2.429h-.953c0-.52-.014-1.045,0-1.569a2.41,2.41,0,0,0-1-2.093c-.872-.67-1.736-1.35-2.613-2.013a1.638,1.638,0,0,0-2.169.007c-.876.664-1.742,1.343-2.613,2.014a2.372,2.372,0,0,0-.986,2.042c.013.527,0,1.054,0,1.608h-.873c0-1.031-.065-2.038.021-3.033a2.818,2.818,0,0,1,1.225-1.95c.651-.5,1.309-1,1.959-1.511.492-.384.5-.66.014-1.037q-.954-.745-1.917-1.476a3.356,3.356,0,0,1-1.387-2.8C4367.88,1018.336,4367.883,1017.591,4367.883,1016.84Z" transform="translate(-4353.727 -1014.041)" fill="#fff"></path><path data-name="Path 824" d="M4384.962,1016.878h7.48a16.751,16.751,0,0,1-.025,2.034,1.506,1.506,0,0,1-.542.846c-.845.7-1.735,1.351-2.6,2.031a.784.784,0,0,1-1.092,0q-1.274-1-2.567-1.984a1.566,1.566,0,0,1-.656-1.323C4384.963,1017.956,4384.962,1017.429,4384.962,1016.878Z" transform="translate(-4368.928 -1014.075)" fill="#fff"></path><path data-name="Path 825" d="M4384.969,1102.974a13.241,13.241,0,0,1,.024-1.884,1.7,1.7,0,0,1,.556-.959c.851-.723,1.76-1.377,2.64-2.066a.759.759,0,0,1,1.046-.008c.881.688,1.792,1.341,2.638,2.068a1.811,1.811,0,0,1,.565,1.011,12.054,12.054,0,0,1,.025,1.837Z" transform="translate(-4368.915 -1086.14)" fill="#fff"></path><path data-name="Path 826" d="M4369.2,991.4a9.72,9.72,0,0,1-.007,1.049.82.82,0,0,1-.75.759,4.259,4.259,0,0,1-.659.029c-3.686,0-7.372-.029-11.059.016-1.466.018-1.718-.477-1.545-1.852Z" transform="translate(-4342.384 -991.402)" fill="#fff"></path><path data-name="Path 827" d="M4368.807,1155.018h-13.9c-.42-1.183.041-1.855,1.275-1.855,3.742,0,7.483.024,11.224-.015C4368.559,1153.135,4369.117,1153.461,4368.807,1155.018Z" transform="translate(-4342.047 -1135.351)" fill="#fff"></path><path data-name="Path 828" d="M4245.753,1008.954a2.027,2.027,0,0,1-.706-.019.719.719,0,0,1-.4-.471c-.017-.124.235-.394.387-.411a6.3,6.3,0,0,1,1.476,0,.617.617,0,0,1,.4.46c-.009.156-.262.361-.45.427a2.243,2.243,0,0,1-.708.017Z" transform="translate(-4244.625 -1006.183)" fill="#fff"></path><path data-name="Path 829" d="M4245.768,1144.586a2.142,2.142,0,0,1,.708.017.749.749,0,0,1,.435.449c.025.12-.222.415-.37.431a7.205,7.205,0,0,1-1.53,0c-.146-.015-.39-.3-.369-.425a.733.733,0,0,1,.419-.456A2.127,2.127,0,0,1,4245.768,1144.586Z" transform="translate(-4244.62 -1127.712)" fill="#fff"></path></svg>