<svg xmlns="http://www.w3.org/2000/svg" width="16.398" height="21" viewBox="0 0 16.398 21"><g id="Group_5999" data-name="Group 5999" transform="translate(-5434.322 584.078)"><path id="Path_6551" data-name="Path 6551" d="M5441.537-525.907c-.305-.025-.61-.054-.916-.075a29.59,29.59,0,0,1-6.1-1.08c-.166-.047-.2-.125-.2-.286q.007-4.428,0-8.856a.241.241,0,0,1,.208-.281,30.255,30.255,0,0,1,5.545-1.037,27.086,27.086,0,0,1,5.828.1,29.841,29.841,0,0,1,4.609.939.242.242,0,0,1,.208.283q-.009,4.428,0,8.856a.251.251,0,0,1-.222.292,29.247,29.247,0,0,1-5.546,1.031c-.482.041-.965.078-1.447.117Zm1.6-5.22a2.021,2.021,0,0,0,1.339-2.335,2.008,2.008,0,0,0-1.943-1.578,2.011,2.011,0,0,0-1.963,1.579,2.023,2.023,0,0,0,1.344,2.337v1.992h1.223Z" transform="translate(0 -37.17)" fill="#f9885e"></path><path id="Path_6552" data-name="Path 6552" d="M5445.5-575.819l-2.805.492a.2.2,0,0,1-.012-.053,26.434,26.434,0,0,1,.053-2.867,6.211,6.211,0,0,1,4.3-5.44,6.467,6.467,0,0,1,8.54,4.767,6.152,6.152,0,0,1,.14,1.177c.021.8.006,1.611.006,2.416l-2.816-.494c0-.072,0-.159,0-.245a20.046,20.046,0,0,0-.061-2.087,3.66,3.66,0,0,0-3.445-3.1,3.692,3.692,0,0,0-3.8,2.852,5.426,5.426,0,0,0-.1,1C5445.484-576.871,5445.5-576.339,5445.5-575.819Z" transform="translate(-6.678)" fill="#f9885e"></path><path id="Path_6553" data-name="Path 6553" d="M5472.3-516.944a.781.781,0,0,1-.771-.768.78.78,0,0,1,.768-.772.78.78,0,0,1,.772.768A.781.781,0,0,1,5472.3-516.944Z" transform="translate(-29.779 -52.497)" fill="#f9885e"></path></g></svg>