<svg xmlns="http://www.w3.org/2000/svg" width="31" height="31" viewBox="0 0 31 31"><g id="Group_6253" data-name="Group 6253" transform="translate(-976 -1640)"><path id="Path_8606" data-name="Path 8606" d="M0,0H31V31H0Z" transform="translate(976 1640)" fill="#15de9b"></path><g id="Group_6110" data-name="Group 6110" transform="translate(2845.492 2446.203)"><path id="Path_6596" data-name="Path 6596" d="M-1847.791-799.2c.134.029.27.052.4.089a2.833,2.833,0,0,1,1.621,1.07.207.207,0,0,0,.1.078,1.361,1.361,0,0,1,.941,1.149,5.069,5.069,0,0,1-.1,2.326c-.008.031-.019.062-.028.093.361.108.448.208.431.581a3.692,3.692,0,0,1-.47,1.615c-.05.092-.157.152-.229.234a.437.437,0,0,0-.1.173,3.715,3.715,0,0,1-1.41,2.159,2.624,2.624,0,0,1-3.679-.413,3.739,3.739,0,0,1-.942-1.791c-.011-.053-.067-.1-.107-.143a1.29,1.29,0,0,1-.2-.216,3.581,3.581,0,0,1-.471-1.664c0-.347.091-.452.382-.512-.052-.443-.133-.881-.148-1.321a2.894,2.894,0,0,1,.661-1.9,4.369,4.369,0,0,1,1.871-1.43,5.384,5.384,0,0,1,.738-.18Z" transform="translate(-6.07)" fill="#fff"></path><path id="Path_6597" data-name="Path 6597" d="M-1856.853-772.106l1.542,4.849c.038-.079.061-.119.076-.162.167-.47.336-.939.493-1.413a.335.335,0,0,0-.032-.224,8.147,8.147,0,0,1-.456-.937.693.693,0,0,1,.616-.977,1.607,1.607,0,0,1,.853.064.644.644,0,0,1,.448.713,2.165,2.165,0,0,1-.424,1,.477.477,0,0,0-.067.513c.167.411.3.835.447,1.253.016.044.037.087.076.176l1.537-4.846a.251.251,0,0,1,.061.019,11.535,11.535,0,0,0,3.264,1.472,1.647,1.647,0,0,1,1.166,1.176,4,4,0,0,1,.143,1.631c-.037.382-.08.762-.11,1.144a.357.357,0,0,1-.213.32,13.289,13.289,0,0,1-3.725,1.3,15.864,15.864,0,0,1-3.814.289,14.592,14.592,0,0,1-5.787-1.386,1.869,1.869,0,0,0-.209-.1.584.584,0,0,1-.432-.6c-.02-.566-.1-1.131-.094-1.7a2.409,2.409,0,0,1,.493-1.542,1.435,1.435,0,0,1,.732-.5,12.022,12.022,0,0,0,2.776-1.147C-1857.281-771.842-1857.075-771.972-1856.853-772.106Z" transform="translate(0 -17.381)" fill="#fff"></path></g></g></svg>