<svg xmlns="http://www.w3.org/2000/svg" width="31" height="31" viewBox="0 0 31 31"><g id="Group_6113" data-name="Group 6113" transform="translate(-1375 -1640)"><rect id="Rectangle_719" data-name="Rectangle 719" width="31" height="31" transform="translate(1375 1640)" fill="#f80"></rect><g id="Group_6112" data-name="Group 6112" transform="translate(3021.468 2338.53)"><path id="Path_6602" data-name="Path 6602" d="M-1630.784-674.622h-.462a2.277,2.277,0,0,1-1.068-.647c-.2-.188-.425-.352-.615-.549a.553.553,0,0,0-.5-.152c-.558.049-1.117.1-1.676.126a1.464,1.464,0,0,1-1.549-1.177c-.113-.469-.227-.937-.335-1.408a.355.355,0,0,0-.185-.249c-.513-.3-1.021-.6-1.531-.906a1.475,1.475,0,0,1-.727-.992.2.2,0,0,0-.031-.055v-.5c.052-.142.1-.286.156-.427.188-.461.376-.922.571-1.38a.354.354,0,0,0,0-.3c-.247-.607-.486-1.217-.728-1.827v-.462a.146.146,0,0,0,.025-.042,1.5,1.5,0,0,1,.78-1.048c.457-.263.909-.535,1.36-.809a.34.34,0,0,0,.136-.168q.279-.844.543-1.692a1.5,1.5,0,0,1,1.521-1.051c.62.045,1.238.1,1.858.145a.332.332,0,0,0,.218-.07c.339-.289.67-.588,1-.882a1.473,1.473,0,0,1,2.01,0c.339.3.675.6,1.016.894a.267.267,0,0,0,.172.065c.592-.041,1.185-.078,1.776-.138a1.5,1.5,0,0,1,1.674,1.165c.114.469.228.938.335,1.409a.356.356,0,0,0,.184.25c.5.291.992.589,1.486.886a1.487,1.487,0,0,1,.66,1.98c-.192.467-.383.934-.582,1.4a.346.346,0,0,0,0,.3c.2.465.389.932.581,1.4a1.488,1.488,0,0,1-.65,1.971c-.5.3-1,.6-1.5.895a.353.353,0,0,0-.181.251q-.163.705-.336,1.409a1.455,1.455,0,0,1-1.543,1.163c-.554-.028-1.108-.078-1.661-.127a.53.53,0,0,0-.532.165,1.228,1.228,0,0,1-.208.188A3.59,3.59,0,0,1-1630.784-674.622Zm-.224-13.9a5.467,5.467,0,0,0-5.456,5.44,5.468,5.468,0,0,0,5.441,5.455,5.467,5.467,0,0,0,5.456-5.44A5.466,5.466,0,0,0-1631.008-688.521Z" fill="#fff"></path><path id="Path_6603" data-name="Path 6603" d="M-1607.806-664.3a4.454,4.454,0,0,1-4.455,4.458,4.455,4.455,0,0,1-4.459-4.454,4.453,4.453,0,0,1,4.472-4.458A4.454,4.454,0,0,1-1607.806-664.3Zm-4.95.844a2.119,2.119,0,0,0-.146-.2q-.722-.725-1.446-1.447a.508.508,0,0,0-.472-.178.473.473,0,0,0-.387.339.487.487,0,0,0,.149.523q.932.934,1.867,1.867a.521.521,0,0,0,.862,0l2.31-2.31c.194-.194.392-.386.581-.586a.466.466,0,0,0,.113-.5.476.476,0,0,0-.4-.328.527.527,0,0,0-.468.191q-1.211,1.215-2.425,2.428A1.868,1.868,0,0,0-1612.756-663.458Z" transform="translate(-18.752 -18.773)" fill="#fff"></path></g></g></svg>