<svg version="1.1" xmlns="http://www.w3.org/2000/svg" x="0" y="0" viewBox="0 0 151.5 34" xml:space="preserve" enable-background="new 0 0 151.5 34" width="151.5" height="34"><title>brand 4</title><g class="nc-icon-wrapper" fill="#111111"><path d="M52.2 17.6h5.7v1.1c0 2.5-1.6 3.6-5.2 3.6-4.6 0-6.4-1.8-6.4-6.1 0-4.2 1.8-6.1 5.9-6.1 3 0 4.8 1 5.5 3.1h2c-.7-3.2-3-4.7-7.4-4.7-5.5 0-7.9 2.4-7.9 7.8 0 2.8.6 4.8 1.9 6 1.3 1.3 3.4 1.9 6.3 1.9 5 0 7.2-1.6 7.2-5.4V16h-7.7v1.6zm16-5.2c-2 0-3.5.5-4.4 1.4-.9.9-1.4 2.4-1.4 4.5 0 2 .5 3.5 1.4 4.5.9.9 2.4 1.4 4.4 1.4 2.9 0 4.9-.9 5.5-3.5h-1.9c-.5 1.3-1.7 2-3.6 2-2.6 0-3.8-1.1-4-3.8h9.7v-.5c0-4.2-1.6-6-5.7-6zm-3.9 5c.2-2.4 1.5-3.4 4-3.4s3.7 1 3.9 3.4h-7.9zm17.7-5c-3.3 0-4.9 1.1-5.3 3.7h1.8c.4-1.4 1.4-2.1 3.5-2.1 2.5 0 3.6.9 3.6 3.2v.2h-4.1c-3.6 0-5.1 1-5.1 3.4s1.4 3.4 4.4 3.4c2.3 0 3.9-.6 4.7-1.8V24h1.8v-6.8c.1-3.3-1.5-4.8-5.3-4.8zm3.5 7c-.3 2.2-1.5 3.2-4.3 3.2-2 0-3-.6-3-1.8 0-1.4 1.1-2 3.7-2h3.7v.6zm7.2-5.1v-1.7h-1.8V24h1.8v-5.7c0-3 1-4.2 3.7-4.2h1.4v-1.7h-.9c-2.1 0-3.5.6-4.2 1.9zm12.3-.2c2.2 0 3.3.8 3.7 2.5h1.8c-.4-2.9-2.1-4.2-5.5-4.2-4 0-5.7 1.8-5.7 5.9 0 4.1 1.7 5.9 5.7 5.9 3.4 0 5.1-1.3 5.5-4.2h-1.8c-.4 1.7-1.5 2.5-3.7 2.5-2.7 0-3.9-1.3-3.9-4.2 0-2.9 1.1-4.2 3.9-4.2zm13.5-1.7c-2 0-3.5.5-4.4 1.4-.9.9-1.4 2.4-1.4 4.5 0 2 .5 3.5 1.4 4.5.9.9 2.4 1.4 4.4 1.4 2 0 3.5-.5 4.4-1.4.9-.9 1.4-2.4 1.4-4.5 0-2-.5-3.5-1.4-4.5-.9-.9-2.3-1.4-4.4-1.4zm0 10.1c-2.8 0-4-1.3-4-4.2 0-2.9 1.2-4.2 4-4.2s4 1.3 4 4.2c0 2.9-1.2 4.2-4 4.2zm17.9-8.1c-.8-1.3-2.3-2-4.5-2-3.7 0-5.3 1.8-5.3 5.9 0 4.1 1.6 5.9 5.3 5.9 2.2 0 3.7-.7 4.5-2V24c0 2.8-1.2 4-3.9 4-2.1 0-3.2-.7-3.7-2.2H127c.4 2.7 2.1 3.9 5.5 3.9 4 0 5.7-1.7 5.7-5.7V12.6h-1.8v1.8zm-4 8.1c-2.8 0-4-1.3-4-4.2 0-2.9 1.2-4.2 4-4.2s4 1.3 4 4.2c-.1 2.9-1.3 4.2-4 4.2zm18-3.9c-.7-.5-2-.9-3.9-1.2-2.4-.4-3.5-.9-3.5-1.8 0-1 1-1.6 3-1.6s3.1.6 3.5 2h1.8c-.4-2.5-2-3.5-5.3-3.5-3.2 0-4.8 1.1-4.8 3.2 0 2 1.3 2.9 4.9 3.5 2.5.4 3.6.9 3.6 1.8 0 1-1.1 1.7-3.2 1.7-2.2 0-3.3-.6-3.7-2H141c.4 2.5 2.1 3.5 5.4 3.5 3.4 0 5-1.1 5-3.4.1-1-.2-1.7-1-2.2zM34.2 16v-.1-.1c0-.2.1-.3.1-.5 0-.1 0-.1.1-.2l.3-.6 1.3-2.2-3-5.1-.5.8v-.1l-3.8 6.5c-.4.7-.6 1.4-.7 2.2V17.2c0 .8.3 1.5.7 2.2l4.2 7.3 2.9-5.1-1.3-2.2-.1-.1s0-.1-.1-.1c-.1-.1-.1-.2-.2-.3v-.2-.1c0-.1-.1-.3-.1-.4V18c0-.2-.1-.3-.1-.5v-.2-.5-.1c.2-.3.2-.5.3-.7zM11.1 33.9c.3.1.6.1.9.1-.3 0-.6 0-.9-.1zm-.2 0h.2-.2zm2.7-2.4l-7-12.1c-.1-.2-.2-.5-.3-.7 0-.1-.1-.2-.1-.3 0-.1 0-.1-.1-.2-.1-.2-.1-.3-.1-.5v-.6-.2-.4c0-.1 0-.2.1-.4 0-.1 0-.2.1-.3 0-.1.1-.2.1-.3 0-.1 0-.1.1-.2 0-.1.1-.2.1-.3.1-.2.1-.3.2-.5l7-12.1C14.5.9 16.1 0 17.9 0H12c-1.8 0-3.4.9-4.3 2.5L4.4 8.1V8L3 10.3.6 14.5l-.3.6c0 .1 0 .1-.1.2 0 .1-.1.2-.1.4s-.1.3-.1.5v1.3c0 .2.1.4.1.6 0 .1.1.3.1.4 0 .1 0 .1.1.2l.3.6 7 12.1c.7 1.2 1.9 2 3.2 2.3-.3-.1-.6-.1-.8-.2.3.1.5.2.8.2h.2c.4.3.7.3 1 .3h5.9-.3.3c-1.8 0-3.4-1-4.3-2.5zm9.1 0l-7-12.1c-.1-.2-.2-.5-.3-.7 0-.1-.1-.2-.1-.3 0-.1 0-.1-.1-.2 0-.2-.1-.4-.1-.5v-.6-.2-.4c0-.1 0-.2.1-.3 0-.1 0-.2.1-.3 0-.1.1-.2.1-.3 0-.1 0-.1.1-.2 0-.1.1-.2.1-.2.1-.2.2-.3.2-.5l7-12.1C23.5.9 25.2 0 27 0h-6c-1.8 0-3.4.9-4.3 2.5l-2.9 5-.3.6V8l-3.8 6.5-.3.6c0 .1 0 .1-.1.2 0 .1-.1.3-.1.4 0 .1 0 .2-.1.3V17.6c0 .1 0 .2.1.4 0 .1.1.3.1.4 0 .1 0 .1.1.2l.3.6 7 12.1c.9 1.5 2.5 2.5 4.3 2.5h6-.3.3c-1.8.2-3.5-.8-4.3-2.3zm2.2-12.8c0-.1 0-.1-.1-.2-.1-.3-.2-.6-.2-.8v-.3-.6-.4c0-.2.1-.4.1-.6 0-.1.1-.2.1-.4.1-.2.2-.4.3-.7 0-.1.1-.2.1-.3l6-10.3-1-1.8c-.5-.8-1.1-1.4-1.9-1.9-.8.4-1.5 1.1-1.9 1.9l-3.3 5.6v-.1l-3.8 6.5c-.4.7-.6 1.5-.7 2.3v.2c0 .8.2 1.6.7 2.3l7 12.1c.5.8 1.1 1.4 1.9 1.9.8-.4 1.4-1.1 1.9-1.9l1-1.8-6-10.3c0 .1-.1-.1-.2-.4z" id="Layer_1"/></g></svg>