<svg version="1.1" xmlns="http://www.w3.org/2000/svg" x="0" y="0" viewBox="0 0 120 30" xml:space="preserve" enable-background="new 0 0 120 30" width="120" height="30"><title>brand 2</title><g class="nc-icon-wrapper" fill="#111111"><path class="st0" d="M41.4 11.9c-.3 0-.6.1-.8.3-.2.2-.3.4-.3.7v8.9c0 .3.1.5.3.7.2.2.5.3.8.3.3 0 .6-.1.8-.3.2-.2.3-.4.3-.7v-8.9c0-.3-.1-.6-.3-.7-.3-.2-.5-.3-.8-.3zm0-4.4c-.4 0-.7.1-1 .4-.3.2-.4.5-.4.9s.1.7.4.9c.3.3.6.4 1 .4s.7-.1 1-.4c.3-.3.4-.6.4-.9 0-.4-.1-.7-.4-.9-.4-.3-.7-.4-1-.4zm8.2 3.2c.5-.6 1.2-1 1.9-1.3.7-.4 1.5-.5 2.3-.5.9 0 1.6.1 2.2.3.5.2 1.1.6 1.6 1 .2.2.5.3.8.3.3 0 .5-.1.7-.3.2-.2.3-.4.3-.6v-.3c0-.1-.1-.2-.1-.3-.1-.1-.1-.2-.3-.2-.8-.6-1.5-1.1-2.3-1.3-.9-.4-1.9-.5-2.9-.5-1.1 0-2.2.2-3.1.6-1 .4-1.8 1-2.5 1.7s-1.3 1.6-1.7 2.5c-.4 1-.6 2-.6 3.1s.2 2.2.6 3.2c.4 1 1 1.8 1.7 2.5s1.6 1.3 2.5 1.7c1 .4 2 .6 3.1.6.9 0 1.8-.1 2.7-.4.9-.3 1.6-.7 2.4-1.3.1-.1.2-.2.3-.4 0-.1.1-.3.1-.4v-4.8c0-.3-.1-.6-.3-.7-.2-.2-.4-.3-.8-.3h-3.9c-.3 0-.6.1-.8.3-.2.2-.3.4-.3.7 0 .3.1.5.3.7.2.2.5.3.8.3h2.9v3.5c-.4.3-.9.5-1.3.7-.6.2-1.3.3-2 .3-.8 0-1.6-.2-2.3-.5-.7-.3-1.3-.7-1.9-1.3-.5-.6-1-1.2-1.3-1.9-.3-.7-.5-1.5-.5-2.4 0-.8.2-1.6.5-2.4.2-.7.6-1.4 1.2-1.9zm23.8-3.5c-.2 0-.4 0-.6.1-.2.1-.3.2-.4.4l-4.9 7.5-4.8-7.4c-.1-.2-.3-.3-.4-.4-.1-.1-.3-.1-.6-.1s-.5.1-.7.2c-.2.2-.3.4-.4.6 0 .2 0 .5.2.8l5.5 8.3v4.7c0 .3.1.5.3.7.2.2.5.3.7.3.3 0 .6-.1.8-.3.2-.2.3-.4.3-.7v-4.7L74 8.9c.2-.3.2-.5.2-.7 0-.2-.1-.5-.3-.6-.1-.3-.3-.4-.5-.4zm7.7 13.6h-.7c-.4 0-.8-.2-1.1-.5-.3-.4-.5-.8-.5-1.3v-5h1.8c.3 0 .5-.1.7-.2.2-.2.3-.4.3-.6 0-.3-.1-.5-.3-.6-.2-.2-.4-.2-.7-.2h-1.8v-3c0-.3-.1-.5-.3-.7-.2-.2-.4-.3-.7-.3-.3 0-.6.1-.7.3-.2.2-.3.4-.3.7v2.9h-1c-.3 0-.5.1-.7.2-.2.2-.3.4-.3.6 0 .2.1.4.3.6.2.2.4.2.7.2h1v4.9c0 .7.2 1.4.5 2 .3.6.8 1 1.3 1.4.6.3 1.2.5 1.9.5h.4c.4 0 .7-.1.9-.3.2-.2.3-.4.3-.7 0-.3-.1-.5-.3-.7-.3-.1-.5-.2-.7-.2zm11.2-8.3c-.8-.5-1.7-.7-2.8-.7-1.1 0-2.1.2-2.9.7-.8.5-1.5 1.1-2 2-.5.8-.7 1.8-.7 2.9 0 1.1.3 2 .8 2.9.5.8 1.2 1.5 2.1 2 .9.5 1.9.7 3 .7.6 0 1.3-.1 2-.3.7-.2 1.3-.5 1.7-.9.2-.2.3-.4.3-.6 0-.2-.1-.5-.4-.7-.2-.1-.4-.2-.6-.2-.2 0-.5.1-.7.2-.3.2-.6.4-1.1.5-.4.2-.9.2-1.3.2-.8 0-1.5-.2-2.1-.5-.6-.3-1.1-.8-1.4-1.4-.2-.4-.4-.8-.5-1.3h7.9c.3 0 .5-.1.7-.2.2-.2.3-.4.3-.6 0-1.1-.2-2-.6-2.8-.3-.8-.9-1.5-1.7-1.9zm-6.4 4c.1-.4.2-.7.3-1.1.3-.6.7-1 1.3-1.4.6-.3 1.2-.5 2-.5.7 0 1.3.2 1.8.5s.9.7 1.1 1.2c.2.4.3.8.3 1.2h-6.8zm18.3-4.2c-.7-.3-1.4-.5-2.2-.5-1.1 0-2.1.2-2.9.7-.8.5-1.5 1.1-2 2-.5.8-.7 1.8-.7 2.9 0 1.1.2 2 .7 2.8.5.8 1.2 1.5 2 2 .9.5 1.8.7 2.9.7 1.5 0 2.7-.4 3.7-1.3.2-.2.3-.4.2-.6 0-.2-.2-.4-.4-.6-.2-.1-.4-.2-.6-.2-.2 0-.5.1-.7.3-.3.2-.6.4-1 .5-.4.1-.8.2-1.3.2-.7 0-1.4-.2-1.9-.5-.6-.3-1-.8-1.3-1.3-.3-.6-.5-1.2-.5-1.9 0-.8.2-1.4.5-2 .3-.6.7-1 1.3-1.3.5-.3 1.2-.5 1.9-.5 1 0 1.8.3 2.5 1 .2.2.4.3.6.3.2 0 .4 0 .6-.1.2-.2.4-.4.5-.6.1-.2 0-.4-.2-.7-.4-.6-1-1.1-1.7-1.3zm15.2 1.8c-.4-.8-1-1.3-1.8-1.7-.8-.4-1.6-.6-2.6-.6-.9 0-1.7.2-2.5.6-.4.2-.7.5-1.1.8v-5c0-.3-.1-.6-.3-.7-.2-.2-.4-.3-.8-.3-.3 0-.6.1-.8.3-.2.2-.3.4-.3.7V21.8c0 .3.1.5.3.7.2.2.5.3.8.3.3 0 .6-.1.8-.3.2-.2.3-.4.3-.7v-5.6c0-.5.1-.9.4-1.3.3-.4.6-.7 1.1-.9.5-.2 1-.3 1.6-.3.6 0 1.2.1 1.7.3.5.2.9.6 1.2 1.1.3.5.4 1.1.4 1.9v4.9c0 .3.1.5.3.7.2.2.5.3.8.3.3 0 .6-.1.8-.3.2-.2.3-.4.3-.7V17c0-1.2-.2-2.1-.6-2.9zm-98.3 7.3H0v4.3C0 28.1 2 30 4.4 30h11.4c2.4 0 4.6-.4 6.6-1.1 2-.8 3.7-1.8 5.2-3.1 1.4-1.3 2.6-2.9 3.3-4.7.3-.8.6-1.6.8-2.5-.9.7-1.8 1.3-2.9 1.7-2.2.8-4.7 1.1-7.7 1.1zM19.9 9.6c2.7 0 5-.3 6.8-1 3.4-1.4 3.2-2 .8-4.3-1.4-1.3-3.2-2.4-5.2-3.2-2-.8-4.2-1.2-6.6-1.2H4.9C2.2 0 0 2.2 0 4.8v4.8h19.9zm10.8-.9c-.9.8-2 1.4-3.1 1.9-2.1.9-4.6 1.2-7.7 1.2H0v7.5h21.1c2.7 0 5-.3 6.8-1 4.8-2 4.8-4.9 2.9-9.2 0-.2-.1-.3-.1-.4z" id="Layer_1" fill-rule="evenodd" clip-rule="evenodd"/></g></svg>