<svg version="1.1" xmlns="http://www.w3.org/2000/svg" x="0" y="0" viewBox="0 0 123 34" xml:space="preserve" enable-background="new 0 0 123 34" width="123" height="34"><title>brand 3</title><g class="nc-icon-wrapper" fill="#111111"><path d="M49.1 9H46c-2 0-3 1.1-3 3.2v9.7c0 2.1 1 3.2 3 3.2h3.1c2 0 3-1.1 3-3.2v-5.7h-4.5v2.5h1.3v3.6c0 .1 0 .2-.1.3-.1.1-.2.1-.3.1H47c-.1 0-.2 0-.3-.1-.1-.1-.1-.2-.1-.3V11.8c0-.1 0-.2.1-.3.1-.1.2-.1.3-.1h1.5c.1 0 .2 0 .3.1.1.1.1.2.1.3v1.9h3.2v-1.5c0-2.1-1-3.2-3-3.2zm10.5 3.8h-2.8c-2 0-3 1.1-3 3.2v5.9c0 2.1 1 3.2 3 3.2h2.8c2 0 3-1.1 3-3.2V21h-3.3v1.3c0 .1 0 .2-.1.3-.1.1-.2.1-.3.1h-1.3c-.1 0-.2 0-.3-.1-.1-.1-.1-.2-.1-.3v-2.4h5.5V16c0-2.1-1-3.2-3.1-3.2zm-.2 4.9h-2.3v-2.2c0-.1 0-.2.1-.3.1-.1.2-.1.3-.1h1.3c.1 0 .2 0 .3.1.1.1.1.2.1.3v2.2zm11.1-3.8c-.5-.7-1.3-1.1-2.5-1.1h-.5c-2 0-3 1.1-3 3.2v5.9c0 2.1 1 3.2 3 3.2h.5c1.2 0 2-.4 2.5-1.1v.9h2.8V13.1h-2.8v.8zm-.5 8.3c0 .1 0 .2-.1.3-.1.1-.2.1-.3.1h-1.3c-.1 0-.2 0-.3-.1-.1-.1-.1-.2-.1-.3v-6.6c0-.1 0-.2.1-.3.1-.1.2-.1.3-.1h1.3c.1 0 .2 0 .3.1.1.1.1.2.1.3v6.6zm8.5-8v-1.1h-3v11.7h3.3v-8c0-.6.3-.8.8-.8h1.6v-3.1h-.6c-1-.1-1.7.4-2.1 1.3zM89 10.5h-3.3v11.3c0 2.1 1 3.2 3 3.2H91v-2.1h-1c-.4 0-.6-.1-.8-.2-.2-.2-.3-.5-.3-.9v-6.4h2v-2.3h-2v-2.6zm9.5 2.3h-2.8c-2 0-3 1.1-3 3.2v5.9c0 2.1 1 3.2 3 3.2h2.8c2 0 3-1.1 3-3.2V21h-3.3v1.3c0 .1 0 .2-.1.3-.1.1-.2.1-.3.1h-1.3c-.1 0-.2 0-.3-.1-.2-.1-.2-.3-.2-.4v-2.4h5.5V16c0-2.1-1-3.2-3-3.2zm-.2 4.9H96v-2.2c0-.1 0-.2.1-.3.1-.1.2-.1.3-.1h1.3c.1 0 .2 0 .3.1.1.1.1.2.1.3v2.2zm10.8-4.9h-2.8c-2 0-3 1.1-3 3.2v5.9c0 2.1 1 3.2 3 3.2h2.8c2 0 3-1.1 3-3.2v-1.7h-3.3v2.1c0 .1 0 .2-.1.3-.1.1-.2.1-.3.1h-1.3c-.1 0-.2 0-.3-.1-.1-.1-.1-.2-.1-.3v-6.6c0-.1 0-.2.1-.3.1-.1.2-.1.3-.1h1.3c.1 0 .2 0 .3.1.1.1.1.2.1.3v2.1h3.3V16c0-2.1-1-3.2-3-3.2zm10.9 0h-.5c-.8 0-1.5.2-2 .6V9.2h-3.3v15.5h3.3v-9.2c0-.3.2-.4.5-.4h1.3c.1 0 .2 0 .3.1.1.1.1.2.1.3v9.2h3.3V16c0-2.1-1-3.2-3-3.2zm-90.6 12c-1.2 0-2.4.5-3.2 1.4-.9.9-1.3 2-1.3 3.3 0 1.2.5 2.4 1.3 3.3.9.9 2 1.4 3.2 1.4 1.2 0 2.4-.5 3.2-1.3 1.8-1.8 1.8-4.7 0-6.5-.8-1.1-1.9-1.6-3.2-1.6zM4.6 9.4c1.2 0 2.4-.5 3.2-1.3.9-.9 1.3-2 1.3-3.3 0-1.2-.5-2.4-1.3-3.3C6.9.6 5.8.2 4.6.2 3.4.2 2.2.7 1.4 1.6.5 2.4 0 3.6 0 4.8 0 6 .5 7.2 1.3 8.1c.9.8 2.1 1.3 3.3 1.3zm24.6-.1c1.2 0 2.4-.5 3.2-1.3 1.8-1.8 1.8-4.7 0-6.5-.9-.9-2-1.3-3.2-1.3-1.2 0-2.4.5-3.2 1.4-1.8 1.8-1.8 4.7 0 6.5.9.7 2 1.2 3.2 1.2zM15.8 21.6h.9l1-.1h.2c.2 0 .4-.1.6-.2.1 0 .2-.1.3-.1.2-.1.3-.2.5-.3.1 0 .1-.1.2-.1.3-.2.5-.3.6-.5 1.8-1.8 1.8-4.7 0-6.5-.9-.9-2-1.3-3.2-1.3-1.2 0-2.4.5-3.2 1.3-.2.2-.3.4-.5.7 0 .1-.1.1-.1.2-.1.2-.2.3-.3.5 0 .1-.1.2-.1.3-.1.2-.1.4-.2.6v.2l-.1 1v.9c0 1.8-.6 3.5-1.9 4.8-1.3 1.3-3 2.1-4.8 2.1h-.2H4.9l-1 .1h-.1-.1c-.2 0-.4.1-.6.2-.1 0-.2.1-.3.1-.2.1-.3.2-.5.3-.1 0-.1.1-.2.1-.3.2-.5.3-.6.5-.9.9-1.3 2-1.3 3.3 0 1.2.5 2.4 1.3 3.3.9.9 2 1.4 3.2 1.4 1.2 0 2.4-.5 3.2-1.3.2-.2.3-.4.5-.6.1-.1.1-.2.1-.2.1-.2.2-.3.3-.5 0-.1.1-.2.1-.3.1-.2.1-.4.2-.6v-.2l.1-1v-.2-.2-.2V28.8c0-1.8.6-3.5 1.9-4.8 1.3-1.7 3-2.4 4.7-2.4zm12.4 0h.9l1-.1h.2c.2-.1.4-.1.6-.2.1 0 .2-.1.3-.1.2-.1.3-.2.5-.3l.1-.1s.1-.1.2-.1c.3-.2.5-.4.6-.5 1.8-1.8 1.8-4.7 0-6.5-.9-.9-2-1.3-3.2-1.3-1.2 0-2.4.5-3.2 1.4-.2.2-.3.4-.5.7 0 .1-.1.1-.1.2-.1.2-.2.3-.3.5 0 .1-.1.2-.1.3-.1.2-.1.3-.2.6v.2l-.1 1v.7c0 1.8-.6 3.5-1.9 4.8-1.3 1.3-3 2.1-4.7 2.1h-.2-.1H17.4l-1 .1-.2.1c-.2 0-.4.1-.6.2-.1 0-.2.1-.3.1-.2.1-.3.2-.5.3-.1 0-.1.1-.2.1-.3.2-.5.4-.7.5-.9.9-1.3 2-1.3 3.3 0 1.2.5 2.4 1.3 3.3.9.9 2 1.4 3.2 1.4 1.2 0 2.4-.5 3.2-1.3.2-.2.3-.4.5-.7 0-.1.1-.2.1-.2.1-.2.2-.3.3-.5 0-.1.1-.2.1-.2.1-.2.1-.4.2-.6v-.2l.1-1v-.2-.2-.2-.4c-.1-1.8.6-3.5 1.9-4.8 1.2-1.5 2.9-2.2 4.7-2.2zM5.8 12.4h-.2-.5l-1 .1h-.2c-.2 0-.4.1-.5.2-.1 0-.2.1-.3.1-.2.1-.3.2-.5.3-.1 0-.2.1-.2.1-.3.2-.5.4-.6.5-.9.9-1.3 2-1.3 3.3 0 1.2.5 2.4 1.3 3.3.9.9 2 1.3 3.2 1.3 1.2 0 2.4-.5 3.2-1.3.2-.2.3-.4.5-.7 0-.1.1-.1.1-.2.1-.2.2-.3.3-.5 0-.1.1-.2.1-.3-.2-.2-.1-.4-.1-.6v-.1-.1l.1-1v-.2-.2-.2-.4c0-1.8.6-3.5 1.9-4.8 1.3-1.3 3-2.1 4.7-2.1h.9l1-.1h.2c.2 0 .4-.1.6-.2.1 0 .2-.1.3-.1.2-.1.3-.2.5-.3.1 0 .1-.1.2-.1.3.1.5-.1.7-.2 1.8-1.8 1.8-4.7 0-6.5C19.3.5 18.2 0 17 0c-1.2 0-2.4.5-3.2 1.4-.2.2-.3.4-.5.6 0 .1-.1.1-.1.2-.1.2-.2.3-.3.5 0 .1-.1.2-.1.3-.1.2-.1.3-.2.6v.2l-.1 1V5.7c.1 1.8-.6 3.5-1.9 4.8-1.3 1.2-3 1.9-4.8 1.9z" id="Layer_1"/></g></svg>