<svg version="1.1" xmlns="http://www.w3.org/2000/svg" x="0" y="0" viewBox="0 0 110 38" xml:space="preserve" enable-background="new 0 0 110 38" width="110" height="38"><title>brand 1</title><g class="nc-icon-wrapper" fill="#111111"><path d="M36.6 16.2c-.5-.4-1.1-.7-1.7-.8-.3-.1-.6-.1-.9-.1-.3 0-.7.1-1 .1-1.2.1-2.5-1.1-2.6-2.3-.1-.6.1-1.2.1-1.9s-.2-1.3-.5-1.9c-.7-1.1-2-1.9-3.3-1.8-.6 0-1.3.2-1.8.5-.6.3-1.2.8-1.8 1.1-.6.3-1.1.7-1.7.8-.5.1-1.1.2-1.6.3-1.2.2-4.3.2-3.7-1.8.1-.4.4-.9.9-1 .6-.1 1.1.1 1.7.1.6 0 1.4.1 1.9-.4.2-.2.4-.3.7-.4.3-.2.5-.4.8-.7.8-1 1-2.4.7-3.6-.4-1.2-1.5-2.2-2.7-2.5-1.2-.3-2.5.1-3.5.9-.8.7-1.2 1.9-1.2 3 0 .3.1.6.1.9 0 .3 0 .6-.1.8-.2.6-.5 1.1-1 1.5-.5.4-1.1.6-1.6.6-.3 0-.6-.1-.8-.1h-1c-1.3.3-2.4 1.2-2.9 2.5-.4 1.2-.2 2.5.6 3.6.7 1 2 1.6 3.2 1.4 1.8-.2 1.8-1.9 4.2-2.6 1.1-.4 2.3-.3 3-.3.8 0 1.4.1 2.3.3.8.2 1.4.7 2.1 1.2.6.4 1.2.9 1.9 1.2.7.3 1.4.4 2.2.3.7 0 1.6-.1 2 .6.4.6.3 1.5-.3 1.9-.9.4-1.7.4-2.4.4-.8 0-1.6 0-2.3-.2-.3-.1-.7-.2-1-.4-.2-.1-.5-.2-.7-.3-1.1-.8-2.3-1.8-3.7-1.9-1.5-.1-2.7.8-3.9 1.6-.6.5-1.3.8-2 1-.7.2-1.5.2-2.3.2-1.5 0-3-.6-4.3-1.5-.6-.4-1.2-.9-1.9-1.1-.7-.2-1.4-.2-2 0-1.4.4-2.5 1.6-2.7 3-.2 1.5.5 3 1.7 3.8.6.4 1.4.6 2.1.6.7 0 1.5-.2 2.2 0 .8.2 1.3.8 1.5 1.5.1.7 0 1.4 0 2 0 1.5.7 2.9 2.1 3.6 1.3.6 2.8.5 3.9-.3.1-.1.3-.1.4-.2.1-.1.2-.2.4-.3.1-.1.3-.2.4-.3.2-.1.3-.2.5-.3.7-.4 1.5-.7 2.2-.9.7-.2 1.5-.1 2.3-.1.7 0 1.5.1 2 .7.2.2.3.4.3.7v.6c0 .2-.8.9-1 1-.4.2-.7.1-1.1 0-.3-.1-.7-.1-1-.1h-.4c-.2 0-.4.1-.6.1-.8.2-1.5.7-1.9 1.3-.8 1.1-1 2.6-.4 3.9.6 1.4 2 2.3 3.5 2.2 1.5-.1 2.9-1.1 3.4-2.5.2-.7.2-1.4.2-2.2v-1c.1-.4.3-.7.5-1 .4-.6 1.1-1 1.8-1.1.7-.1 1.4.1 2.1 0 1.5-.2 2.7-1.2 3.2-2.7.4-1.4 0-2.9-1.1-3.9-1-.9-2.6-1.3-3.9-.7-.7.3-1.3.8-1.8 1.2-.7.5-1.3.9-2.1 1.2-.7.2-1.5.4-2.2.4-.7 0-1.4 0-2.1-.2-.8-.2-1.4-.6-2-1.1-.6-.4-1.1-.8-1.7-1.1-.7-.4-1.4-.6-2.2-.5-.7 0-1.4.2-2-.2-.6-.4-.8-1.1-.5-1.7.3-.8 1.1-.9 1.8-1 .8-.1 1.7-.1 2.4 0 .3.1 2.6 1.1 2.9 1.3.4.2.7.5 1.1.7.6.4 1.3.7 2 .8 1.6.1 2.9-1 4.2-1.8.6-.4 1.3-.7 2-.9.7-.2 1.5-.2 2.3-.1 1.6.1 3 .7 4.1 1.7.5.4 1.1.9 1.8 1.1.7.2 1.4.2 2.1.1 1.4-.3 2.5-1.5 2.8-2.9-.1-1.3-.6-2.7-1.7-3.6zm15.2 6.3c-.4.1-.8.2-1.1.2-.5 0-1-.1-1.5-.3-.5-.2-.9-.5-1.2-.9-.3-.3-.6-.7-.8-1.2s-.3-.9-.3-1.4c0-.9.2-1.7.6-2.4.4-.7.9-1.2 1.5-1.5.6-.3 1.2-.5 1.9-.5s1.3.3 1.8.7l2-2c-.6-.4-1.2-.8-1.9-1-.7-.2-1.4-.3-2.2-.3-1.1 0-2 .2-2.8.5-.8.3-1.5.8-2.1 1.4-.6.6-1 1.3-1.3 2.2-.2 1-.4 1.9-.4 3 0 .9.2 1.8.5 2.6.4.8.8 1.5 1.4 2.1.6.6 1.3 1.1 2.1 1.4.8.3 1.7.5 2.6.5.8 0 1.5-.1 2.2-.4.7-.2 1.3-.6 1.9-1l-1.9-2.1c-.2.2-.6.3-1 .4zm11.4-5.9c-.5-.5-1-.8-1.7-1.1-.6-.3-1.3-.4-2.1-.4-.7 0-1.4.1-2.1.4-.6.3-1.2.7-1.7 1.1-.5.5-.9 1-1.1 1.7-.3.6-.4 1.3-.4 2s.1 1.4.4 2c.3.6.7 1.2 1.1 1.7.5.5 1 .8 1.7 1.1.6.3 1.3.4 2.1.4.7 0 1.4-.1 2.1-.4.6-.3 1.2-.6 1.7-1.1.5-.5.9-1 1.1-1.7.3-.6.4-1.3.4-2s-.1-1.4-.4-2c-.3-.6-.6-1.2-1.1-1.7zm-1.5 4.7c-.1.3-.3.6-.6.8-.2.2-.5.4-.8.6-.3.1-.7.2-1 .2-.4 0-.7-.1-1-.2-.3-.1-.6-.3-.8-.6-.2-.2-.4-.5-.6-.8-.1-.3-.2-.7-.2-1 0-.4.1-.7.2-1 .1-.3.3-.6.6-.8.2-.2.5-.4.8-.6.3-.1.7-.2 1-.2.4 0 .7.1 1 .2.3.1.6.3.8.6.2.2.4.5.6.8.1.3.2.7.2 1 .1.4 0 .7-.2 1zm11.5-5.2c-.5-.3-1.2-.5-1.9-.5s-1.4.2-2.2.5v-.3h-2.9v9.8h2.9v-6.2c0-.3.1-.5.2-.8.2-.2.3-.4.6-.5.2-.1.5-.2.8-.1.3 0 .5.1.8.3.2.2.4.4.6.8.2.4.2.8.2 1.4v5.2H75v-6.1c0-.8-.2-1.4-.5-2-.3-.7-.7-1.2-1.3-1.5zm9.5 4.4c-.3-.3-.7-.5-1.1-.7-.4-.2-.7-.4-1.1-.5-.3-.2-.6-.3-.8-.5-.2-.2-.3-.3-.3-.5 0-.3.1-.4.3-.5.2-.1.4-.2.7-.2.2 0 .5.1.7.2.2.1.3.3.3.6h2.5c0-.5-.1-.9-.3-1.3-.2-.4-.5-.7-.8-1-.3-.3-.7-.5-1.1-.6-.4-.1-.9-.2-1.3-.2-.5 0-.9 0-1.4.2-.5.1-.9.3-1.2.5-.4.2-.7.5-.9.9-.2.4-.3.8-.3 1.3s.1.9.3 1.3c.2.4.5.7.9 1.1.3.2.6.5.9.7.3.2.6.4 1 .6.2.1.4.2.6.4.2.1.3.3.3.6s-.1.4-.3.6c-.2.1-.4.2-.6.2-.2 0-.4-.1-.6-.2-.2-.1-.3-.3-.3-.5h-2.7c0 .6.1 1.1.3 1.6.2.4.5.7.9.9.4.2.8.4 1.2.5.5.1.9.1 1.4.1.7 0 1.3-.1 1.8-.3.5-.2.9-.4 1.3-.7.3-.3.6-.7.7-1.1.1-.4.2-.8.2-1.3s-.1-.9-.3-1.2c-.3-.4-.6-.7-.9-1zm9 .2c0 .8-.2 1.3-.5 1.7-.3.3-.8.5-1.5.5s-1.2-.2-1.5-.5c-.3-.3-.5-.9-.5-1.7v-5.1h-3V21c0 .7.1 1.3.3 1.9.2.6.5 1.1.9 1.5.4.4.9.7 1.5.9.6.2 1.3.3 2.1.3H89.8c.8 0 1.5-.1 2-.3.6-.2 1.1-.5 1.5-.9.4-.4.7-.9.9-1.5.2-.6.3-1.2.3-1.9v-5.4h-3v5.1zm4.5 4.9h3V12.3h-3v13.3zm11.6-4.1c-.1.5-.3.8-.6 1-.3.2-.7.3-1.3.3-.6 0-1-.2-1.4-.5-.4-.3-.5-.8-.5-1.3v-2.6h6v-2.9h-6v-3.3h-3v3.3h-1.2v2.9h1.2v3.3c0 1.3.4 2.2 1.2 2.8.8.6 2 .9 3.5.9H106c.4 0 .9-.1 1.3-.2s.8-.3 1.2-.5c.4-.2.7-.5.9-.9.3-.4.5-.8.6-1.2l-2.2-1.1z" id="Layer_1"/></g></svg>