<svg version="1.1" xmlns="http://www.w3.org/2000/svg" x="0" y="0" viewBox="0 0 143.5 28" xml:space="preserve" enable-background="new 0 0 143.5 28" width="143.5" height="28"><title>brand 6</title><g class="nc-icon-wrapper" fill="#111111"><path d="M60.9 8.6H45.5v1.8h6.7V24h1.9V10.4h6.7V8.6zm5.2 3.8c-2 0-3.5.5-4.4 1.4-.9.9-1.4 2.4-1.4 4.5 0 2 .5 3.5 1.4 4.5.9.9 2.4 1.4 4.4 1.4 2.9 0 4.9-.9 5.5-3.5h-1.9c-.5 1.3-1.7 2-3.6 2-2.6 0-3.8-1.1-4-3.8h9.7v-.5c0-4.2-1.6-6-5.7-6zm-3.9 5.1c.2-2.4 1.5-3.4 4-3.4s3.7 1 3.9 3.4h-7.9zm14.4-3.2v-1.7h-1.8V24h1.8v-5.7c0-3 1-4.2 3.7-4.2h1.4v-1.7h-.9c-2.1 0-3.5.7-4.2 1.9zM89 12.4c-3.3 0-4.9 1.1-5.3 3.7h1.8c.4-1.4 1.4-2.1 3.5-2.1 2.5 0 3.6.9 3.6 3.2v.2h-4.1c-3.6 0-5.1 1-5.1 3.4s1.4 3.4 4.4 3.4c2.3 0 3.9-.6 4.7-1.8V24h1.8v-6.8c0-3.3-1.6-4.8-5.3-4.8zm3.5 7c-.3 2.2-1.5 3.2-4.3 3.2-2 0-3-.6-3-1.8 0-1.4 1.1-2 3.7-2h3.7v.6zm8.5.3v-4.4h3.1v-2.7H101v-2.5h-2.9v2.5h-1.7v2.7h1.7v4.8c0 2.8 1.4 4 4.5 4h1.7v-2.7h-1.6c-1.2-.1-1.7-.5-1.7-1.7zm10.4-7.3c-2.1 0-3.6.5-4.5 1.4-.9.9-1.4 2.4-1.4 4.5s.5 3.6 1.4 4.5c.9.9 2.4 1.4 4.5 1.4 3.1 0 5-1 5.6-3.9h-3c-.4.9-1.3 1.3-2.6 1.3-1.8 0-2.7-.8-2.9-2.5h8.7v-.9c.1-4-1.6-5.8-5.8-5.8zm-2.8 4.7c.3-1.6 1.2-2.2 2.9-2.2s2.6.6 2.9 2.2h-5.8zm16-2c1.6 0 2.4.6 2.8 2h2.9c-.3-3.3-2.1-4.7-5.7-4.7-4 0-5.7 1.8-5.7 5.9 0 4.2 1.7 5.9 5.7 5.9 3.6 0 5.4-1.4 5.7-4.7h-2.9c-.3 1.3-1.2 2-2.8 2-2 0-2.9-1-2.9-3.2s.9-3.2 2.9-3.2zm14.3-2.7c-1.7 0-2.9.4-3.7 1.3V7.5h-2.9V24h2.9v-5.7c0-2.3.8-3.2 2.8-3.2 1.8 0 2.6.7 2.6 2.5V24h2.9v-6.4c0-3.6-1.4-5.2-4.6-5.2zM35.8 13.9c-1.9-2.6-3.7-5.2-5.6-7.8-1.1-1.5-2.1-3-3.2-4.4C26 .4 24.6-.2 23 0c-1.6.2-2.8 1-3.4 2.5-.7 1.6-.4 3.1.6 4.4 1.5 2.1 3 4.2 4.6 6.3.4.5.8 1.1 1.2 1.6.5.7.4 1.6-.3 2.1-.6.5-1.5.3-2-.3-1-1.4-2-2.8-3-4.1L17.4 8c0-.1-.1-.1-.2-.2-.1-.2-.3-.4-.5-.4-.1-.1-.2-.1-.4-.2-.4-.3-.8-.5-1.3-.5-.6-.2-1.3-.2-1.9 0-.7 0-1.2.3-1.7.8-.9.4-1.4 1.2-1.6 2.1-.3.8-.4 1.5 0 2.3v.1c0 .2 0 .4.2.6 0 .2.2.4.3.6.4.6.4 1.2-.1 1.8-.2.1-.5.3-.7.4h-.9c-.3-.1-.6-.4-.8-.6-2-2.5-5.7-2.3-7.3.4-.9 1.5-.8 3.1.3 4.6 1.5 2.1 3 4.2 4.6 6.4.5.7 1.1 1.2 1.9 1.5.2.2.5.3.8.2.6.2 1.2.2 1.8 0 .3 0 .6 0 .8-.2 2.6-1 3.4-4.2 1.8-6.3-.2-.2-.4-.5-.5-.7-.1-.3-.2-.5-.5-.7-.1-.3-.4-.6-.5-.9 0-.9.3-1.4 1-1.6.6-.2 1.2-.1 1.6.5 1 1.4 2.1 2.8 3.1 4.2.4.6.8 1.1 1.3 1.7.1.3.3.6.5.7.1.1.2.2.2.3.2.5.6.9.9 1.3.5.7 1.1 1.2 1.9 1.5.2.2.5.3.8.2.6.2 1.2.2 1.8 0 .3 0 .6 0 .8-.2 1.8-.6 3-2.8 2.6-4.7-.1-.6-.4-1.1-.7-1.6-.5-.7-.3-1.5.3-2 .5-.4 1.6-.4 2.1.4 1.2 1.7 2.4 3.3 3.6 5 .5.7.9 1.4 1.5 2 .1.1.2.1.3.2.2.2.3.4.6.4.2.1.3.2.5.3.9.5 2.7.5 3.5 0 1.5-.7 2.4-1.8 2.6-3.4.2-1.4-.5-2.6-1.3-3.7-1.5-2.3-3.1-4.5-4.7-6.7z" id="Layer_1"/></g></svg>