<svg version="1.1" xmlns="http://www.w3.org/2000/svg" x="0" y="0" viewBox="0 0 107.8 38" xml:space="preserve" enable-background="new 0 0 107.8 38" width="107.8" height="38"><title>brand 5</title><g class="nc-icon-wrapper" fill="#111111"><path d="M1.1 17.4c-.2-.7-.5-1-.7-.5-.1.2-.1.4-.2.7-.1.9-.1 1.6-.2 1.9 0 .2 0 .5.1.7 0-.5.1-.8.5-.5.1 0 .2 0 .3-.1.3-.5.4-1.5.2-2.2zm1.3-5.5c.2 0 .4-.1.6-.3.5-.6.8-1.6.7-2.2-.1-.6-.6-.6-1-.1-.2.2-.3.5-.4.8-.7 2-1.5 3.1-1.8 3.4C.1 15 0 16.5 0 18c0-.3 0-.7.1-1.2.3-2.1.9-4.6 2.3-4.9zm1.3 17.7s0-.1 0 0c0-.1 0 0 0 0zm-1.9-3.5zm1.9 3.4c-.1 0-.1 0 0 0zM6.3 4.8c-1.1 1-1.9 2.6-1.7 3.7.4 1.2 1.7 1.5 3.1.4.6-.4 1.1-1 1.4-1.7 1.3-2.4 3-4.9 6.6-5 .3 0 .7-.1 1-.2.8-.4 1.2-1.1.7-1.6-.4-.4-1.3-.5-2.1-.2-.3.1-.6.3-.7.6-1.4 2-4.5 3.1-6.8 3.3-.5.1-1 .3-1.5.7zm.8 20.3c.9 1.6 2.7 2.3 4.1 1.6.6-.3 1.1-.9 1.3-1.5 1.1-3 3.6-6 7-5.6.4 0 .8 0 1.2-.3.9-.6 1.3-1.8.7-2.8-.5-1-1.7-1.3-2.7-.7-.4.2-.7.6-.8.9-1.8 4.2-5.3 4-8.1 3.5-.7-.1-1.3 0-1.9.4-1.4.9-1.6 2.9-.8 4.5zM22.3 28c-.4.2-.6.5-.8.8-1.7 3.3-5 3.1-7.8 2.6-.7-.2-1.3-.1-1.9.1-1.2.5-1.4 1.7-.4 2.8 1 1 2.7 1.5 3.9 1.3.5-.1.9-.4 1.1-.8.9-1.9 3.3-4 6.4-3.8.3 0 .7-.1 1.1-.3.9-.5 1.2-1.5.8-2.2-.4-.8-1.5-1-2.4-.5zm-2.5-6.5c-.8-.1-1.6 0-2.3.5-1.7 1-2.2 3.2-1.2 4.8 1 1.6 3.1 2.2 4.8 1.3.7-.4 1.2-1 1.5-1.7 1.3-3.1 3.9-6.1 6.9-5.8.3 0 .7 0 1-.3.8-.5 1.1-1.7.6-2.6-.4-.9-1.5-1.3-2.3-.7-.3.2-.6.5-.7.9-1.7 4.2-5.2 4.1-8.3 3.6zm-6-10.8c-.7-.1-1.5.1-2.2.5-1.6 1-2.2 3.2-1.3 4.9.9 1.7 3 2.4 4.6 1.3.7-.4 1.2-1.1 1.5-1.9 1.2-3 2.9-6.2 7.2-5.7.4.1.8 0 1.1-.2.9-.5 1.1-1.5.5-2.4-.5-.8-1.6-1.2-2.5-.7-.3.2-.6.5-.7.8-1.2 2.9-5 3.7-8.2 3.4zM1.7 26zm10.6-15.9c.9-.6 1.2-1.7.8-2.5-.4-.8-1.4-1-2.3-.4-.3.2-.6.5-.8.8-1.3 2.8-4.3 3.9-6.4 3.8-.4 0-.8.2-1.2.6-.8 1-1.2 2.8-.9 4.2.4 1.4 1.5 2 2.5 1.1.5-.4.8-1 1-1.7.9-2.7 2.4-5.8 6-5.7.6.2 1 .1 1.3-.2zm-11 1c.2-.4.5-.9.7-1.5 1-2.1 2.4-4.3 4.2-5.2.2 0 .4-.2.7-.4.7-.5 1.1-1.3 1-1.6-.1-.3-.6-.1-1.2.4-.2.2-.5.4-.6.6-1.2 1.6-2.6 3-3.3 3.8-.8 1.4-1.5 3-2 4.6.1 0 .2-.2.5-.7zm1.4 14.3c.2-.2.4-.6.4-1.1.3-2.3 1.1-5.1 4.3-4.5.3.1.7 0 1-.2.8-.5 1-1.7.6-2.6-.4-.9-1.4-1.2-2.1-.7-.3.2-.5.5-.6.9-1 2.8-3.3 3.4-4.8 2.9-.3-.1-.5-.1-.7.2-.3.6-.1 2.1.3 3.4.4 1.3 1.2 2.1 1.6 1.7zm22 10.5c-.3.1-.5.3-.7.4-1.6 1.2-4.2 1.4-6.4 1.2-.6-.1-1.1-.1-1.6-.1h-.8c1.6.4 3.2.6 4.8.5 1-.2 2.8-.8 4.8-1 .3 0 .6-.1.8-.2.7-.3 1.1-.7.9-.9-.2-.3-1.1-.2-1.8.1zm6.5-7.8c-.3.2-.6.5-.7.8-1.9 3.2-4.8 3.5-7.4 3.4-.7 0-1.4.1-2.1.4-1.6.7-2.1 2.1-1.2 3 .8.8 2.5.9 3.9.4.6-.2 1.1-.6 1.4-1 1.4-1.9 3.8-4.2 6.2-4.4.3 0 .6-.2.8-.4.7-.5 1.1-1.4.9-2-.3-.7-1-.7-1.8-.2zm-25.8-.3c.2.1.5.1.7 0 .5-.3.6-1.2.1-2s-1.3-1.2-1.8-.9c-.2.1-.3.3-.3.6-.2 2.7-1.5 1.7-2.3.7.3.6.5 1.2.9 1.7.3.6.7 1.1 1 1.6-.6-1.3-.1-2.6 1.7-1.7zm12.7 9.3c.7-.1.9-.6.5-1-.5-.4-1.5-.7-2.2-.4-.3.1-.5.2-.6.3-.9 1.1-3.3.5-5.2-.3-.5-.2-.8-.4-1.1-.5 1.2.8 2.5 1.4 3.9 1.8.5-.1 1.8-.2 3.8.1h.9zm-9.6-4.3c.3-1.7 1.9-3.4 4.8-2.8.3.1.7 0 1-.1.8-.4 1.1-1.4.5-2.3-.5-.9-1.7-1.2-2.5-.8-.3.2-.5.4-.7.7-1.1 3.1-3.9 2.5-5.9 1.6-.3-.2-.7-.3-1-.1-.6.2-.2 1.3.6 2.4.9 1 2.1 1.9 2.7 1.9.3 0 .5-.2.5-.5zm2.2 2.5c.5 0 .4-.4-.1-.9s-1.4-.9-1.8-.9c-.2 0-.3.1-.3.2 0 .5-.2.4-.6.2.2.1.4.3.5.4.3.1.8.4 1.7.8.2.1.4.2.6.2zm41.6-16.2c1.2-.5 1.8-1.7 1.8-3.5 0-2.8-1.4-4-4.8-4H41V27h8.9c3.3 0 4.8-1.3 4.8-4.2 0-2-.8-3.2-2.4-3.7zm-9.4-5.7h6.4c2 0 3 .7 3 2.4s-.8 2.4-3 2.4h-6.4v-4.8zm7 11.8h-7V20h7c2 0 3 .8 3 2.6-.1 1.8-.9 2.6-3 2.6zm9.6-7.9v-1.7h-1.8V27h1.8v-5.7c0-3 1-4.2 3.7-4.2h1.4v-1.7h-.9c-2.1 0-3.5.6-4.2 1.9zm8.3-6.4c-.5 0-.8.1-1 .3-.2.2-.3.5-.3 1s.1.8.3 1c.2.2.5.3 1 .3s.8-.1 1-.3c.2-.2.3-.5.3-1s-.1-.8-.3-1c-.2-.2-.5-.3-1-.3zM66.9 27h1.8V15.6h-1.8V27zm14.6-9.6c-.8-1.3-2.3-2-4.5-2-3.7 0-5.3 1.8-5.3 5.9 0 4.1 1.6 5.9 5.3 5.9 2.2 0 3.7-.7 4.5-2V27c0 2.8-1.2 4-3.9 4-2.1 0-3.2-.7-3.7-2.2h-1.8c.4 2.7 2.1 3.9 5.5 3.9 4 0 5.7-1.7 5.7-5.7V15.6h-1.8v1.8zm-4 8.1c-2.8 0-4-1.3-4-4.2 0-2.9 1.2-4.2 4-4.2s4 1.3 4 4.2c-.1 2.9-1.3 4.2-4 4.2zM93 15.4c-2.1 0-3.6.6-4.4 1.9v-6.8h-1.8V27h1.8v-5.7c0-3 1.1-4.2 3.9-4.2 2.4 0 3.5 1 3.5 3.3V27h1.8v-6.6c.1-3.5-1.4-5-4.8-5zm13.5 9.9c-1.7 0-2.4-.7-2.4-2.2v-5.8h3.6v-1.7h-3.6V13h-1.8v2.5h-2v1.7h2v6c0 2.6 1.3 3.7 4.2 3.7h1.4v-1.7h-1.4z" id="Layer_1"/></g></svg>