<svg xmlns="http://www.w3.org/2000/svg" width="26.599" height="26.562" viewBox="0 0 26.599 26.562"><g data-name="Group 152" transform="translate(0)"><path data-name="Path 838" d="M5558.1,1235.272l4.7,4.71c.391-.416.757-.828,1.146-1.219,1.905-1.913,3.806-3.832,5.73-5.726a5.751,5.751,0,0,0,1.8-3.249.785.785,0,0,1,.068-.173c2.779-.266,5.361.12,7.551,2.019a8.489,8.489,0,0,1-5.166,14.9c-.325.013-.65,0-1.026,0v5.13c-.221-.186-.365-.3-.5-.42-1.484-1.379-2.983-2.741-4.437-4.15a1.821,1.821,0,0,0-1.466-.557,8.369,8.369,0,0,1-5.777-1.906,8.511,8.511,0,0,1-2.781-8.982C5557.978,1235.557,5558.023,1235.463,5558.1,1235.272Zm12.777,3.844v-1.5h-1.583v1.5Zm-4.967-.008h1.582v-1.494h-1.582Zm8.354-1.49h-1.574v1.484h1.574Z" transform="translate(-5555.436 -1225.107)" fill="#fff"></path><path data-name="Path 839" d="M5544.057,1199.577l-3.2-3.2c-.991-.992-1.992-1.973-2.971-2.977a3.83,3.83,0,1,1,5.4-5.432c.248.239.462.513.764.85.289-.316.507-.577.748-.814a3.827,3.827,0,1,1,5.426,5.4C5548.194,1195.456,5546.143,1197.49,5544.057,1199.577Z" transform="translate(-5536.752 -1186.85)" fill="#fff"></path></g></svg>