<svg xmlns="http://www.w3.org/2000/svg" width="27.063" height="22.604" viewBox="0 0 27.063 22.604"><g data-name="Group 150" transform="translate(0)"><path data-name="Path 833" d="M5135.365,1108.923q5.648,0,11.295,0a2.209,2.209,0,1,1,.026,4.417q-11.323.006-22.644,0a2.015,2.015,0,0,1-2.183-1.685,2.139,2.139,0,0,1,1.479-2.664,3.3,3.3,0,0,1,.784-.067Q5129.743,1108.919,5135.365,1108.923Z" transform="translate(-5121.82 -1090.739)" fill="#fff"></path><path data-name="Path 834" d="M5189.9,945.892c0-2.015,0-3.958,0-5.9,0-1.357.469-1.824,1.832-1.825h1.91c1.3,0,1.788.486,1.789,1.765q0,2.658,0,5.316v.643h2.325a2.151,2.151,0,0,1,.716.019,1.251,1.251,0,0,1,.7.495.939.939,0,0,1-.111.838q-2.886,3.1-5.834,6.13c-.376.389-.83.315-1.263-.136q-2.125-2.216-4.242-4.44-.677-.709-1.355-1.417a.833.833,0,0,1-.237-.981.847.847,0,0,1,.873-.509C5187.941,945.9,5188.884,945.892,5189.9,945.892Z" transform="translate(-5179.122 -938.167)" fill="#fff"></path></g></svg>