<svg xmlns="http://www.w3.org/2000/svg" data-name="Group 150" width="27.029" height="23.642" viewBox="0 0 27.029 23.642"><path data-name="Path 819" d="M3917.76,1134.351h12.4c.889,0,1.115.23,1.116,1.125s0,1.794,0,2.69c0,.923-.231,1.158-1.144,1.158h-19.253q-2.8,0-5.592,0c-.772,0-1.035-.27-1.037-1.053q0-1.451,0-2.9c0-.751.264-1.016,1.012-1.017Q3911.51,1134.348,3917.76,1134.351Z" transform="translate(-3904.245 -1115.683)" fill="#fff"></path><path data-name="Path 820" d="M3945.541,1067.994c-.383-1.718-.771-3.412-1.133-5.111a.75.75,0,0,1,.634-.886,2.475,2.475,0,0,1,.472-.029q8.152,0,16.3.009a1.619,1.619,0,0,1,.873.25.765.765,0,0,1,.229.648c-.349,1.7-.739,3.4-1.123,5.118Zm8.9-2.17a.778.778,0,1,0-1.554-.081.778.778,0,1,0,1.554.081Z" transform="translate(-3940.154 -1050.94)" fill="#fff"></path><path data-name="Path 821" d="M3984.385,965.123c-2.566-1.328-3.445-2.8-2.911-4.8a3.792,3.792,0,0,1,7.426.52c.274,1.83-.817,3.393-2.946,4.236a5.377,5.377,0,0,1,4.744,1.847h-11.123A5.294,5.294,0,0,1,3984.385,965.123Z" transform="translate(-3971.622 -957.516)" fill="#fff"></path></svg>