<svg xmlns="http://www.w3.org/2000/svg" data-name="Group 149" width="26.504" height="24.331" viewBox="0 0 26.504 24.331"><path data-name="Path 830" d="M4662.027,1003.913q-4.014,0-8.028,0a2.759,2.759,0,0,1-2.982-2.964q-.009-5.882,0-11.764a2.767,2.767,0,0,1,2.976-2.977q8.08-.009,16.16,0a2.781,2.781,0,0,1,2.963,3q0,5.856,0,11.712a2.78,2.78,0,0,1-3.009,3Q4666.068,1003.916,4662.027,1003.913Zm-8.807-4.636.121.047c.923-.932,1.841-1.869,2.77-2.8a1.949,1.949,0,0,1,3.042-.016c.388.386.758.79,1.165,1.215.2-.232.343-.4.485-.57q1.725-2.069,3.449-4.137a1.983,1.983,0,0,1,3.395,0q1.414,1.653,2.826,3.308a3.686,3.686,0,0,1,.283.448l.159-.144q0-3.676,0-7.353c0-.7-.151-.844-.856-.844q-8,0-16,0c-.706,0-.834.135-.834.856q0,4.767,0,9.533Z" transform="translate(-4646.614 -986.204)" fill="#fff"></path><path data-name="Path 831" d="M4611.3,1063.809c0,2.309-.009,4.618.008,6.927a5.423,5.423,0,0,0,.18,1.429,4.088,4.088,0,0,0,4.032,2.967q7.639.009,15.28,0h.707c-.432,1.292-.761,2.548-1.273,3.724a2.4,2.4,0,0,1-2.982,1.122q-4.87-1.3-9.738-2.614-3.4-.911-6.795-1.818a2.545,2.545,0,0,1-1.994-3.524q1.189-3.991,2.388-7.979c.023-.08.055-.158.083-.237Z" transform="translate(-4608.552 -1055.768)" fill="#fff"></path><path data-name="Path 832" d="M4687.488,1020.529a2.2,2.2,0,1,1-2.171-2.233A2.2,2.2,0,0,1,4687.488,1020.529Z" transform="translate(-4675.367 -1014.971)" fill="#fff"></path></svg>