<svg xmlns="http://www.w3.org/2000/svg" width="164.877" height="50.965" viewBox="0 0 164.877 50.965">
  <g transform="translate(-118 -26.501)">
    <g transform="translate(118 26.501)">
      <path d="M537.189,513.309l7.5,18.975-7.5,18.976,11.844-7.7,17.328-11.272-17.328-11.271Z" transform="translate(-528.716 -506.802)" fill="#ffc53d" fill-rule="evenodd"/>
      <g transform="translate(0 0)">
        <path d="M553.056,540.127a17.856,17.856,0,0,1-6.554-1.238l-7.285,4.737a25.5,25.5,0,0,0,35.911-8.657l-6.566-3.792a17.9,17.9,0,0,1-15.506,8.949" transform="translate(-527.574 -496.743)" fill="#3bbeff" fill-rule="evenodd"/>
        <path d="M553.056,516.726a17.9,17.9,0,0,1,15.506,8.949l6.566-3.792a25.5,25.5,0,0,0-35.911-8.657l7.285,4.737a17.854,17.854,0,0,1,6.554-1.238" transform="translate(-527.574 -509.146)" fill="#3bbeff" fill-rule="evenodd"/>
        <path d="M537.373,547.141l3.474-8.765,2.849-7.182-2.849-7.182-3.474-8.765a25.489,25.489,0,0,0,0,31.894" transform="translate(-531.768 -505.711)" fill="#3bbeff" fill-rule="evenodd"/>
      </g>
    </g>
    <g transform="translate(178.055 35)">
      <path d="M579.585,517.757a11.159,11.159,0,0,1,4.353-4.405,12.646,12.646,0,0,1,6.33-1.578,12.113,12.113,0,0,1,7.423,2.289,11,11,0,0,1,4.128,6.244H595.3a5.264,5.264,0,0,0-2.063-2.324,5.8,5.8,0,0,0-3.035-.8,5.667,5.667,0,0,0-4.441,1.907,8.5,8.5,0,0,0,0,10.2A5.665,5.665,0,0,0,590.2,531.2a5.8,5.8,0,0,0,3.035-.8,5.26,5.26,0,0,0,2.063-2.324h6.521a10.915,10.915,0,0,1-4.128,6.226,12.176,12.176,0,0,1-7.423,2.272,12.637,12.637,0,0,1-6.33-1.578,11.178,11.178,0,0,1-4.353-4.388,14,14,0,0,1,0-12.851Z" transform="translate(-578.024 -508.617)" fill="#131313"/>
      <path d="M612.741,510.682V536.35H606.81V510.682Z" transform="translate(-579.373 -508.566)" fill="#131313"/>
      <path d="M617.951,513.96a2.981,2.981,0,0,1-.988-2.272,3.019,3.019,0,0,1,.988-2.307,3.6,3.6,0,0,1,2.55-.919,3.553,3.553,0,0,1,2.515.919,3.019,3.019,0,0,1,.988,2.307,2.981,2.981,0,0,1-.988,2.272,3.549,3.549,0,0,1-2.515.919A3.6,3.6,0,0,1,617.951,513.96Zm5.5,2.931v19.355h-5.931V516.891Z" transform="translate(-579.849 -508.462)" fill="#131313"/>
      <path d="M636.606,517.846a7.352,7.352,0,0,1,3.573-.832,8.019,8.019,0,0,1,4.336,1.214,8.406,8.406,0,0,1,3.069,3.468,12.77,12.77,0,0,1,0,10.493,8.506,8.506,0,0,1-3.069,3.5,7.928,7.928,0,0,1-4.336,1.231,7.377,7.377,0,0,1-3.556-.832,6.516,6.516,0,0,1-2.41-2.151v11.932h-5.931V517.291h5.931v2.74A6.438,6.438,0,0,1,636.606,517.846Zm4.839,5.6a4.067,4.067,0,0,0-3.035-1.267,4,4,0,0,0-3,1.284,5.6,5.6,0,0,0,0,7.006,4.149,4.149,0,0,0,6.018-.017,4.873,4.873,0,0,0,1.249-3.521A4.789,4.789,0,0,0,641.445,523.449Z" transform="translate(-580.379 -508.863)" fill="#131313"/>
      <path d="M671.074,528.392H657.65a4.032,4.032,0,0,0,1.162,2.757,3.551,3.551,0,0,0,2.515.954,3.119,3.119,0,0,0,3.087-1.874h6.313a8.657,8.657,0,0,1-1.752,3.434,8.766,8.766,0,0,1-3.174,2.393,10.185,10.185,0,0,1-4.266.867,10.368,10.368,0,0,1-5.064-1.214A8.629,8.629,0,0,1,653,532.241a10.7,10.7,0,0,1-1.25-5.273,10.834,10.834,0,0,1,1.231-5.272,8.527,8.527,0,0,1,3.452-3.468,11.241,11.241,0,0,1,10.094-.035,8.471,8.471,0,0,1,3.416,3.365,10.217,10.217,0,0,1,1.231,5.1A15.106,15.106,0,0,1,671.074,528.392Zm-5.966-3.3a3.052,3.052,0,0,0-1.041-2.428,3.831,3.831,0,0,0-2.6-.9,3.757,3.757,0,0,0-2.514.866,3.853,3.853,0,0,0-1.267,2.463Z" transform="translate(-581.479 -508.863)" fill="#131313"/>
      <path d="M683.941,518.006a6.706,6.706,0,0,1,3.468-.919v6.278h-1.63a5,5,0,0,0-3.33.953,4.237,4.237,0,0,0-1.11,3.347v8.984h-5.931V517.295h5.931v3.226A7.829,7.829,0,0,1,683.941,518.006Z" transform="translate(-582.588 -508.866)" fill="#131313"/>
    </g>
  </g>
</svg>
