<svg xmlns="http://www.w3.org/2000/svg" width="127.387" height="127.387" viewBox="0 0 127.387 127.387"><g transform="translate(-1046.363 -2859.801)"><path d="M45.038,0A45.038,45.038,0,1,1,0,45.038,45.038,45.038,0,0,1,45.038,0Z" transform="translate(1046.363 2923.495) rotate(-45)" fill="#ffa03a"></path><g transform="translate(1083.143 2899.585)"><path d="M12.363,16.56h0a.423.423,0,0,0-.423.427.434.434,0,0,0,.423.427.427.427,0,1,0,0-.853Z" transform="translate(-7.609 -13.147)" fill="#fff"></path><path d="M17.049,16.56h0a.419.419,0,0,0-.419.427.43.43,0,1,0,.43-.427Z" transform="translate(-10.589 -13.147)" fill="#fff"></path><path d="M21.723,16.56h0a.423.423,0,0,0-.423.427.434.434,0,0,0,.434.427.427.427,0,1,0,0-.853Z" transform="translate(-13.557 -13.147)" fill="#fff"></path><path d="M124.619,47h0a.419.419,0,0,0-.419.427.43.43,0,1,0,.419-.427Z" transform="translate(-78.941 -32.489)" fill="#fff"></path><path d="M54.238,98.367H.528a.427.427,0,1,0,0,.849h53.71a.427.427,0,1,0,0-.849Z" transform="translate(-0.062 -65.128)" fill="#fff"></path><path d="M72.026,103a1.706,1.706,0,1,0,1.706,1.706A1.706,1.706,0,0,0,72.026,103Zm0,2.552a.354.354,0,1,1,0,.018Z" transform="translate(-44.705 -68.073)" fill="#fff"></path><path d="M56.19,119.422a.427.427,0,0,0-.51.324L53.973,127.4a.43.43,0,0,0,.324.51.419.419,0,0,0,.095,0,.427.427,0,0,0,.416-.335l1.706-7.656A.427.427,0,0,0,56.19,119.422Z" transform="translate(-34.312 -78.501)" fill="#fff"></path><path d="M91.56,127.44l-1.7-7.656a.427.427,0,1,0-.835.182l1.706,7.656a.427.427,0,0,0,.416.335h.095a.427.427,0,0,0,.321-.518Z" transform="translate(-56.583 -78.524)" fill="#fff"></path><path d="M67.924,140.46H50.877a.427.427,0,0,0,0,.853H67.924a.427.427,0,0,0,0-.853Z" transform="translate(-32.079 -91.876)" fill="#fff"></path><path d="M56.205,14.22H7.607a.427.427,0,0,0-.427.427V42.781a.43.43,0,0,0,.427.427h48.6a.43.43,0,0,0,.427-.427V14.647A.427.427,0,0,0,56.205,14.22Zm-.427,28.135H8.033V15.073h47.76Z" transform="translate(-4.585 -11.661)" fill="#fff"></path><path d="M51.751,7.2H3.152A2.986,2.986,0,0,0,.17,10.186v34.1a2.986,2.986,0,0,0,2.982,2.982h48.6a2.986,2.986,0,0,0,2.982-2.982v-34.1A2.99,2.99,0,0,0,51.751,7.2ZM53.88,44.289a2.133,2.133,0,0,1-2.129,2.129H3.152a2.133,2.133,0,0,1-2.129-2.129v-34.1A2.133,2.133,0,0,1,3.152,8.053h48.6a2.133,2.133,0,0,1,2.129,2.133v34.1Z" transform="translate(-0.131 -7.2)" fill="#fff"></path><path d="M54.307,107.735a.427.427,0,0,0-.427.427v1.692a2.1,2.1,0,0,1-2.129,2.129H3.152a2.1,2.1,0,0,1-2.129-2.129v-1.706a.427.427,0,0,0-.853,0v1.706a2.949,2.949,0,0,0,2.982,2.982h48.6a2.949,2.949,0,0,0,2.982-2.982v-1.692A.427.427,0,0,0,54.307,107.735Z" transform="translate(-0.13 -71.072)" fill="#fff"></path><path d="M56.137,18.9H7.538a.427.427,0,1,0,0,.849h48.6a.427.427,0,1,0,0-.849Z" transform="translate(-4.516 -14.631)" fill="#fff"></path><path d="M14.627,23.57A.427.427,0,0,0,14.2,24v23.02a.427.427,0,1,0,.853,0V24A.427.427,0,0,0,14.627,23.57Z" transform="translate(-9.045 -17.602)" fill="#fff"></path><path d="M119.857,18.9a.423.423,0,0,0-.427.423V45.755a.427.427,0,1,0,.853,0V19.323a.423.423,0,0,0-.427-.423Z" transform="translate(-75.91 -14.634)" fill="#fff"></path><path d="M127.531,37.6h-7.674a.427.427,0,0,0,0,.853h7.674a.427.427,0,0,0,0-.853Z" transform="translate(-75.91 -26.517)" fill="#fff"></path><path d="M10.179,30.59H7.627a.427.427,0,0,0,0,.853h2.552a.427.427,0,0,0,0-.853Z" transform="translate(-4.598 -22.062)" fill="#fff"></path><path d="M10.179,37.6H7.627a.427.427,0,0,0,0,.853h2.552a.427.427,0,0,0,0-.853Z" transform="translate(-4.598 -26.517)" fill="#fff"></path><path d="M10.179,44.62H7.627a.427.427,0,0,0,0,.853h2.552a.427.427,0,0,0,0-.853Z" transform="translate(-4.598 -30.978)" fill="#fff"></path><path d="M10.179,51.63H7.627a.427.427,0,1,0,0,.853h2.552a.427.427,0,1,0,0-.853Z" transform="translate(-4.598 -35.432)" fill="#fff"></path><path d="M10.179,58.65H7.627a.427.427,0,0,0,0,.853h2.552a.427.427,0,0,0,0-.853Z" transform="translate(-4.598 -39.892)" fill="#fff"></path><path d="M10.179,65.66H7.627a.427.427,0,1,0,0,.853h2.552a.427.427,0,1,0,0-.853Z" transform="translate(-4.598 -44.347)" fill="#fff"></path><path d="M10.179,72.68H7.627a.427.427,0,1,0,0,.853h2.552a.427.427,0,1,0,0-.853Z" transform="translate(-4.598 -48.807)" fill="#fff"></path><path d="M10.11,79.7H7.558a.427.427,0,1,0,0,.849H10.11a.427.427,0,1,0,0-.849Z" transform="translate(-4.529 -53.265)" fill="#fff"></path><path d="M10.179,86.71H7.627a.427.427,0,1,0,0,.853h2.552a.427.427,0,1,0,0-.853Z" transform="translate(-4.598 -57.722)" fill="#fff"></path><path d="M10.179,23.57H7.627a.427.427,0,0,0,0,.853h2.552a.427.427,0,0,0,0-.853Z" transform="translate(-4.598 -17.602)" fill="#fff"></path><path d="M128.809,25.91h-4.273a.427.427,0,1,0,0,.853h4.273a.427.427,0,0,0,0-.853Z" transform="translate(-78.884 -19.089)" fill="#fff"></path><path d="M128.809,30.59h-4.273a.427.427,0,1,0,0,.853h4.273a.427.427,0,0,0,0-.853Z" transform="translate(-78.884 -22.062)" fill="#fff"></path><path d="M131.809,47h-2.552a.427.427,0,0,0,0,.853h2.552a.427.427,0,1,0,0-.853Z" transform="translate(-81.883 -32.49)" fill="#fff"></path><path d="M124.619,54h0a.419.419,0,0,0-.419.427.43.43,0,1,0,.419-.427Z" transform="translate(-78.941 -36.937)" fill="#fff"></path><path d="M131.809,54h-2.552a.427.427,0,0,0,0,.853h2.552a.427.427,0,1,0,0-.853Z" transform="translate(-81.883 -36.938)" fill="#fff"></path><path d="M124.619,61h0a.419.419,0,0,0-.419.427.43.43,0,1,0,.419-.427Z" transform="translate(-78.941 -41.386)" fill="#fff"></path><path d="M131.809,61h-2.552a.427.427,0,0,0,0,.853h2.552a.427.427,0,1,0,0-.853Z" transform="translate(-81.883 -41.386)" fill="#fff"></path><path d="M124.619,68h0a.423.423,0,0,0-.419.427.43.43,0,1,0,.419-.427Z" transform="translate(-78.941 -45.833)" fill="#fff"></path><path d="M131.809,68h-2.552a.427.427,0,0,0,0,.853h2.552a.427.427,0,1,0,0-.853Z" transform="translate(-81.883 -45.834)" fill="#fff"></path><path d="M124.619,75h0a.419.419,0,0,0-.419.427.43.43,0,1,0,.419-.427Z" transform="translate(-78.941 -50.281)" fill="#fff"></path><path d="M131.809,75h-2.552a.427.427,0,0,0,0,.853h2.552a.427.427,0,1,0,0-.853Z" transform="translate(-81.883 -50.281)" fill="#fff"></path><path d="M124.619,82h0a.423.423,0,0,0-.419.427.43.43,0,1,0,.419-.427Z" transform="translate(-78.941 -54.729)" fill="#fff"></path><path d="M131.809,82h-2.552a.427.427,0,0,0,0,.853h2.552a.427.427,0,0,0,0-.853Z" transform="translate(-81.883 -54.729)" fill="#fff"></path><path d="M42.5,77.714c-.292-.109-.689-.215-1.13-.335-1.327-.365-3.329-.9-3.329-1.932a.427.427,0,1,0-.853,0c0,1.684,2.286,2.3,3.956,2.753.416.113.787.211,1.061.317,1.415.529,1.823.966,1.823,2.027v.445H24.4v-.445c0-1.061.39-1.5,1.8-2.027.273-.106.645-.2,1.057-.317,1.67-.452,3.959-1.068,3.959-2.753a.427.427,0,0,0-.853,0c0,1.032-2,1.571-3.329,1.932-.441.12-.839.226-1.13.335-1.495.561-2.362,1.2-2.362,2.829v.871a.43.43,0,0,0,.427.427H44.441a.43.43,0,0,0,.419-.427v-.871C44.86,78.917,44,78.294,42.5,77.714Z" transform="translate(-14.987 -50.294)" fill="#fff"></path><path d="M42.687,69.49a.427.427,0,0,0-.427.427v2.016a.427.427,0,0,0,.853,0V69.917A.427.427,0,0,0,42.687,69.49Z" transform="translate(-26.875 -46.78)" fill="#fff"></path><path d="M61.416,69.36a.427.427,0,0,0-.416.427V71.85a.427.427,0,0,0,.853,0V69.786a.427.427,0,0,0-.438-.427Z" transform="translate(-38.783 -46.697)" fill="#fff"></path><path d="M31,49.3a.423.423,0,0,0-.427.423v11.9a.427.427,0,0,0,.853,0v-11.9A.427.427,0,0,0,31,49.3Z" transform="translate(-19.447 -33.951)" fill="#fff"></path><path d="M73.1,49.3a.423.423,0,0,0-.427.423v11.9a.427.427,0,1,0,.853,0v-11.9A.423.423,0,0,0,73.1,49.3Z" transform="translate(-46.198 -33.951)" fill="#fff"></path><path d="M38.667,28.25c-6.643,0-8.1,5.833-8.1,8.1a.427.427,0,1,0,.853,0c0-2.012,1.3-7.244,7.244-7.244,6.727,0,7.252,5.545,7.252,7.244a.427.427,0,1,0,.849,0C46.768,32.432,44.643,28.25,38.667,28.25Z" transform="translate(-19.447 -20.575)" fill="#fff"></path><path d="M47.7,53.68a.427.427,0,0,0-.419.427c0,4.014-4.01,7.346-5.549,7.346-1.345,0-5.006-2.793-5.487-6.449a.434.434,0,0,0-.481-.365.427.427,0,0,0-.365.478c.54,4.083,4.539,7.193,6.333,7.193,2.053,0,6.395-3.883,6.395-8.207A.427.427,0,0,0,47.7,53.68Z" transform="translate(-22.516 -36.734)" fill="#fff"></path><path d="M45.035,35.369a.43.43,0,0,0-.6.04C40,40.48,31.024,42.1,30.933,42.1a.427.427,0,0,0,.073.846h.073c.365-.066,9.366-1.659,14-6.96a.43.43,0,0,0-.04-.613Z" transform="translate(-19.457 -25.033)" fill="#fff"></path><path d="M64.259,46.4a8.408,8.408,0,0,1-4.842-2.869.427.427,0,0,0-.678.514,9.093,9.093,0,0,0,5.389,3.212H64.2a.43.43,0,0,0,.062-.857Z" transform="translate(-37.303 -30.19)" fill="#fff"></path><path d="M35.673,80.6a.427.427,0,0,0-.427.427V84.96a.427.427,0,1,0,.849,0V81.027a.423.423,0,0,0-.423-.427Z" transform="translate(-22.418 -53.839)" fill="#fff"></path><path d="M68.419,80.6a.427.427,0,0,0-.419.427V84.96a.427.427,0,0,0,.853,0V81.026a.427.427,0,0,0-.434-.427Z" transform="translate(-43.231 -53.839)" fill="#fff"></path><path d="M94.157,35.26H84.777a.43.43,0,0,0-.427.427V49.329a.427.427,0,0,0,.427.419h9.381a.427.427,0,0,0,.427-.427V35.687a.43.43,0,0,0-.427-.427ZM93.731,48.9H85.2V36.113h8.528Z" transform="translate(-53.62 -25.03)" fill="#fff"></path><path d="M92.643,42.28a1.28,1.28,0,1,0,1.276,1.28A1.28,1.28,0,0,0,92.643,42.28Zm0,1.706a.178.178,0,1,1,0,.015Z" transform="translate(-58.074 -29.49)" fill="#fff"></path><path d="M99.885,44.62H96.477a.427.427,0,0,0,0,.853h3.409a.427.427,0,0,0,0-.853Z" transform="translate(-61.054 -30.978)" fill="#fff"></path><path d="M90.31,44.62h-.853a.427.427,0,1,0,0,.853h.853a.427.427,0,0,0,0-.853Z" transform="translate(-56.594 -30.978)" fill="#fff"></path><path d="M92.643,61a1.28,1.28,0,1,0,1.276,1.28A1.28,1.28,0,0,0,92.643,61Zm0,1.7a.427.427,0,1,1,.427-.423.427.427,0,0,1-.427.423Z" transform="translate(-58.074 -41.386)" fill="#fff"></path><path d="M99.817,63.327H96.408a.427.427,0,1,0,0,.849h3.409a.427.427,0,1,0,0-.849Z" transform="translate(-60.986 -42.863)" fill="#fff"></path><path d="M90.241,63.327h-.853a.427.427,0,1,0,0,.849h.853a.427.427,0,1,0,0-.849Z" transform="translate(-56.525 -42.863)" fill="#fff"></path><path d="M99.66,51.63a1.28,1.28,0,1,0,1.28,1.28A1.28,1.28,0,0,0,99.66,51.63Zm0,1.706a.427.427,0,1,1,.427-.427A.427.427,0,0,1,99.66,53.336Z" transform="translate(-62.535 -35.432)" fill="#fff"></path><path d="M92.865,54H89.457a.427.427,0,1,0,0,.853h3.409a.427.427,0,1,0,0-.853Z" transform="translate(-56.594 -36.938)" fill="#fff"></path><path d="M104.34,54h-.853a.427.427,0,0,0,0,.853h.853a.427.427,0,1,0,0-.853Z" transform="translate(-65.509 -36.938)" fill="#fff"></path></g></g></svg>