<svg xmlns="http://www.w3.org/2000/svg" width="51.217" height="60.098" viewBox="0 0 51.217 60.098"><g opacity="0.3"><path d="M589.141,85.741a1.431,1.431,0,1,0,1.431-1.431A1.432,1.432,0,0,0,589.141,85.741Z" transform="translate(-560.523 -55.692)" fill="#1a1a1a"></path><path d="M595.511,79.622a1.341,1.341,0,1,0,1.342-1.342A1.341,1.341,0,0,0,595.511,79.622Z" transform="translate(-570.073 -52.842)" fill="#1a1a1a"></path><path d="M601.881,73.5a1.252,1.252,0,1,0,1.252-1.252A1.252,1.252,0,0,0,601.881,73.5Z" transform="translate(-579.623 -49.993)" fill="#1a1a1a"></path><path d="M608.251,67.384a1.162,1.162,0,1,0,1.162-1.162A1.162,1.162,0,0,0,608.251,67.384Z" transform="translate(-589.173 -47.144)" fill="#1a1a1a"></path><path d="M614.62,61.265a1.072,1.072,0,1,0,1.072-1.072A1.072,1.072,0,0,0,614.62,61.265Z" transform="translate(-598.721 -44.294)" fill="#1a1a1a"></path><ellipse cx="0.982" cy="0.982" rx="0.982" ry="0.982" transform="translate(12.719 12.719)" fill="#1a1a1a"></ellipse><ellipse cx="0.892" cy="0.892" rx="0.892" ry="0.892" transform="translate(9.539 9.539)" fill="#1a1a1a"></ellipse><path d="M633.73,42.908a.8.8,0,1,0,.8-.8A.8.8,0,0,0,633.73,42.908Z" transform="translate(-627.37 -35.747)" fill="#1a1a1a"></path><ellipse cx="0.712" cy="0.712" rx="0.712" ry="0.712" transform="translate(3.18 3.18)" fill="#1a1a1a"></ellipse><ellipse cx="0.622" cy="0.622" rx="0.622" ry="0.622" transform="translate(0 0)" fill="#1a1a1a"></ellipse><path d="M576.667,85.741A1.431,1.431,0,1,0,578.1,84.31,1.431,1.431,0,0,0,576.667,85.741Z" transform="translate(-541.47 -55.692)" fill="#1a1a1a"></path><path d="M583.037,79.622a1.341,1.341,0,1,0,1.342-1.342A1.341,1.341,0,0,0,583.037,79.622Z" transform="translate(-551.02 -52.842)" fill="#1a1a1a"></path><path d="M589.407,73.5a1.252,1.252,0,1,0,1.252-1.252A1.252,1.252,0,0,0,589.407,73.5Z" transform="translate(-560.57 -49.993)" fill="#1a1a1a"></path><path d="M595.777,67.384a1.162,1.162,0,1,0,1.162-1.162A1.162,1.162,0,0,0,595.777,67.384Z" transform="translate(-570.12 -47.144)" fill="#1a1a1a"></path><path d="M602.147,61.265a1.072,1.072,0,1,0,1.072-1.072A1.072,1.072,0,0,0,602.147,61.265Z" transform="translate(-579.669 -44.294)" fill="#1a1a1a"></path><path d="M608.516,55.146a.982.982,0,1,0,.982-.982A.982.982,0,0,0,608.516,55.146Z" transform="translate(-589.218 -41.445)" fill="#1a1a1a"></path><ellipse cx="0.892" cy="0.892" rx="0.892" ry="0.892" transform="translate(16.118 9.539)" fill="#1a1a1a"></ellipse><path d="M621.256,42.908a.8.8,0,1,0,.8-.8A.8.8,0,0,0,621.256,42.908Z" transform="translate(-608.318 -35.747)" fill="#1a1a1a"></path><ellipse cx="0.712" cy="0.712" rx="0.712" ry="0.712" transform="translate(9.759 3.18)" fill="#1a1a1a"></ellipse><path d="M634,30.67a.622.622,0,1,0,.622-.622A.622.622,0,0,0,634,30.67Z" transform="translate(-627.417 -30.048)" fill="#1a1a1a"></path><path d="M564.193,85.741a1.431,1.431,0,1,0,1.431-1.431A1.431,1.431,0,0,0,564.193,85.741Z" transform="translate(-522.418 -55.692)" fill="#1a1a1a"></path><path d="M570.563,79.622A1.341,1.341,0,1,0,571.9,78.28,1.341,1.341,0,0,0,570.563,79.622Z" transform="translate(-531.967 -52.842)" fill="#1a1a1a"></path><path d="M576.933,73.5a1.252,1.252,0,1,0,1.252-1.252A1.252,1.252,0,0,0,576.933,73.5Z" transform="translate(-541.517 -49.993)" fill="#1a1a1a"></path><path d="M583.3,67.384a1.162,1.162,0,1,0,1.162-1.162A1.162,1.162,0,0,0,583.3,67.384Z" transform="translate(-551.067 -47.144)" fill="#1a1a1a"></path><path d="M589.673,61.265a1.072,1.072,0,1,0,1.072-1.072A1.072,1.072,0,0,0,589.673,61.265Z" transform="translate(-560.616 -44.294)" fill="#1a1a1a"></path><ellipse cx="0.982" cy="0.982" rx="0.982" ry="0.982" transform="translate(25.877 12.719)" fill="#1a1a1a"></ellipse><ellipse cx="0.892" cy="0.892" rx="0.892" ry="0.892" transform="translate(22.697 9.539)" fill="#1a1a1a"></ellipse><path d="M608.782,42.908a.8.8,0,1,0,.8-.8A.8.8,0,0,0,608.782,42.908Z" transform="translate(-589.265 -35.747)" fill="#1a1a1a"></path><ellipse cx="0.712" cy="0.712" rx="0.712" ry="0.712" transform="translate(16.337 3.18)" fill="#1a1a1a"></ellipse><ellipse cx="0.622" cy="0.622" rx="0.622" ry="0.622" transform="translate(13.158 0)" fill="#1a1a1a"></ellipse><path d="M551.719,85.741a1.431,1.431,0,1,0,1.431-1.431A1.431,1.431,0,0,0,551.719,85.741Z" transform="translate(-503.365 -55.692)" fill="#1a1a1a"></path><path d="M558.089,79.622a1.341,1.341,0,1,0,1.342-1.342A1.341,1.341,0,0,0,558.089,79.622Z" transform="translate(-512.914 -52.842)" fill="#1a1a1a"></path><path d="M564.459,73.5a1.252,1.252,0,1,0,1.252-1.252A1.252,1.252,0,0,0,564.459,73.5Z" transform="translate(-522.464 -49.993)" fill="#1a1a1a"></path><path d="M570.829,67.384a1.162,1.162,0,1,0,1.162-1.162A1.162,1.162,0,0,0,570.829,67.384Z" transform="translate(-532.014 -47.144)" fill="#1a1a1a"></path><path d="M577.2,61.265a1.072,1.072,0,1,0,1.072-1.072A1.072,1.072,0,0,0,577.2,61.265Z" transform="translate(-541.564 -44.294)" fill="#1a1a1a"></path><ellipse cx="0.982" cy="0.982" rx="0.982" ry="0.982" transform="translate(32.456 12.719)" fill="#1a1a1a"></ellipse><ellipse cx="0.892" cy="0.892" rx="0.892" ry="0.892" transform="translate(29.276 9.539)" fill="#1a1a1a"></ellipse><path d="M596.309,42.908a.8.8,0,1,0,.8-.8A.8.8,0,0,0,596.309,42.908Z" transform="translate(-570.213 -35.747)" fill="#1a1a1a"></path><ellipse cx="0.712" cy="0.712" rx="0.712" ry="0.712" transform="translate(22.916 3.18)" fill="#1a1a1a"></ellipse><path d="M609.048,30.67a.622.622,0,1,0,.622-.622A.622.622,0,0,0,609.048,30.67Z" transform="translate(-589.311 -30.048)" fill="#1a1a1a"></path><path d="M595.511,92.021a1.341,1.341,0,1,1,1.342,1.341A1.342,1.342,0,0,1,595.511,92.021Z" transform="translate(-570.073 -58.702)" fill="#1a1a1a"></path><path d="M601.881,98.3a1.252,1.252,0,1,1,1.252,1.252A1.252,1.252,0,0,1,601.881,98.3Z" transform="translate(-579.623 -61.712)" fill="#1a1a1a"></path><path d="M608.251,104.581a1.162,1.162,0,1,1,1.162,1.162A1.162,1.162,0,0,1,608.251,104.581Z" transform="translate(-589.173 -64.723)" fill="#1a1a1a"></path><path d="M614.62,110.861a1.072,1.072,0,1,1,1.072,1.072A1.072,1.072,0,0,1,614.62,110.861Z" transform="translate(-598.721 -67.733)" fill="#1a1a1a"></path><ellipse cx="0.982" cy="0.982" rx="0.982" ry="0.982" transform="translate(12.719 45.416)" fill="#1a1a1a"></ellipse><ellipse cx="0.892" cy="0.892" rx="0.892" ry="0.892" transform="translate(9.539 48.775)" fill="#1a1a1a"></ellipse><path d="M633.73,129.7a.8.8,0,1,1,.8.8A.8.8,0,0,1,633.73,129.7Z" transform="translate(-627.37 -76.764)" fill="#1a1a1a"></path><path d="M640.1,135.981a.712.712,0,1,1,.712.713A.712.712,0,0,1,640.1,135.981Z" transform="translate(-636.92 -79.775)" fill="#1a1a1a"></path><path d="M646.47,142.261a.622.622,0,1,1,.622.622A.622.622,0,0,1,646.47,142.261Z" transform="translate(-646.47 -82.785)" fill="#1a1a1a"></path><path d="M583.037,92.021a1.341,1.341,0,1,1,1.342,1.341A1.342,1.342,0,0,1,583.037,92.021Z" transform="translate(-551.02 -58.702)" fill="#1a1a1a"></path><path d="M589.407,98.3a1.252,1.252,0,1,1,1.252,1.252A1.252,1.252,0,0,1,589.407,98.3Z" transform="translate(-560.57 -61.712)" fill="#1a1a1a"></path><path d="M595.777,104.581a1.162,1.162,0,1,1,1.162,1.162A1.162,1.162,0,0,1,595.777,104.581Z" transform="translate(-570.12 -64.723)" fill="#1a1a1a"></path><path d="M602.147,110.861a1.072,1.072,0,1,1,1.072,1.072A1.072,1.072,0,0,1,602.147,110.861Z" transform="translate(-579.669 -67.733)" fill="#1a1a1a"></path><path d="M608.516,117.141a.982.982,0,1,1,.982.982A.982.982,0,0,1,608.516,117.141Z" transform="translate(-589.218 -70.743)" fill="#1a1a1a"></path><ellipse cx="0.892" cy="0.892" rx="0.892" ry="0.892" transform="translate(16.118 48.775)" fill="#1a1a1a"></ellipse><path d="M621.256,129.7a.8.8,0,1,1,.8.8A.8.8,0,0,1,621.256,129.7Z" transform="translate(-608.318 -76.764)" fill="#1a1a1a"></path><path d="M627.626,135.981a.712.712,0,1,1,.712.713A.712.712,0,0,1,627.626,135.981Z" transform="translate(-617.867 -79.775)" fill="#1a1a1a"></path><path d="M634,142.261a.622.622,0,1,1,.622.622A.622.622,0,0,1,634,142.261Z" transform="translate(-627.417 -82.785)" fill="#1a1a1a"></path><path d="M570.563,92.021a1.341,1.341,0,1,1,1.342,1.341A1.342,1.342,0,0,1,570.563,92.021Z" transform="translate(-531.967 -58.702)" fill="#1a1a1a"></path><path d="M576.933,98.3a1.252,1.252,0,1,1,1.252,1.252A1.252,1.252,0,0,1,576.933,98.3Z" transform="translate(-541.517 -61.712)" fill="#1a1a1a"></path><ellipse cx="1.162" cy="1.162" rx="1.162" ry="1.162" transform="translate(32.236 38.697)" fill="#1a1a1a"></ellipse><path d="M589.673,110.861a1.072,1.072,0,1,1,1.072,1.072A1.072,1.072,0,0,1,589.673,110.861Z" transform="translate(-560.616 -67.733)" fill="#1a1a1a"></path><ellipse cx="0.982" cy="0.982" rx="0.982" ry="0.982" transform="translate(25.877 45.416)" fill="#1a1a1a"></ellipse><ellipse cx="0.892" cy="0.892" rx="0.892" ry="0.892" transform="translate(22.697 48.775)" fill="#1a1a1a"></ellipse><path d="M608.782,129.7a.8.8,0,1,1,.8.8A.8.8,0,0,1,608.782,129.7Z" transform="translate(-589.265 -76.764)" fill="#1a1a1a"></path><path d="M615.152,135.981a.712.712,0,1,1,.712.713A.712.712,0,0,1,615.152,135.981Z" transform="translate(-598.814 -79.775)" fill="#1a1a1a"></path><path d="M621.522,142.261a.622.622,0,1,1,.622.622A.622.622,0,0,1,621.522,142.261Z" transform="translate(-608.364 -82.785)" fill="#1a1a1a"></path><path d="M558.089,92.021a1.341,1.341,0,1,1,1.342,1.341A1.342,1.342,0,0,1,558.089,92.021Z" transform="translate(-512.914 -58.702)" fill="#1a1a1a"></path><path d="M564.459,98.3a1.252,1.252,0,1,1,1.252,1.252A1.252,1.252,0,0,1,564.459,98.3Z" transform="translate(-522.464 -61.712)" fill="#1a1a1a"></path><path d="M570.829,104.581a1.162,1.162,0,1,1,1.162,1.162A1.162,1.162,0,0,1,570.829,104.581Z" transform="translate(-532.014 -64.723)" fill="#1a1a1a"></path><path d="M577.2,110.861a1.072,1.072,0,1,1,1.072,1.072A1.072,1.072,0,0,1,577.2,110.861Z" transform="translate(-541.564 -67.733)" fill="#1a1a1a"></path><ellipse cx="0.982" cy="0.982" rx="0.982" ry="0.982" transform="translate(32.456 45.416)" fill="#1a1a1a"></ellipse><ellipse cx="0.892" cy="0.892" rx="0.892" ry="0.892" transform="translate(29.276 48.775)" fill="#1a1a1a"></ellipse><path d="M596.309,129.7a.8.8,0,1,1,.8.8A.8.8,0,0,1,596.309,129.7Z" transform="translate(-570.213 -76.764)" fill="#1a1a1a"></path><path d="M602.678,135.981a.712.712,0,1,1,.712.713A.712.712,0,0,1,602.678,135.981Z" transform="translate(-579.762 -79.775)" fill="#1a1a1a"></path><path d="M609.048,142.261a.622.622,0,1,1,.622.622A.622.622,0,0,1,609.048,142.261Z" transform="translate(-589.311 -82.785)" fill="#1a1a1a"></path></g></svg>