<svg xmlns="http://www.w3.org/2000/svg" width="48.637" height="44.722" viewBox="0 0 48.637 44.722"><g transform="translate(-1109 -8755)"><circle cx="18" cy="18" r="18" transform="translate(1109 8755)" fill="rgba(59,190,255,0.19)"></circle><g transform="translate(-30.66 8564.732)"><path d="M1165.334,229.7c-3.3,0-6.48.022-9.662-.006a8.173,8.173,0,0,1-7.942-6.14,8.68,8.68,0,0,1-.25-2.08q-.031-7.368-.009-14.736a8.152,8.152,0,0,1,8.357-8.218q12.026-.02,24.052,0a8.152,8.152,0,0,1,8.37,8.206c.012,3.534,0,7.069,0,10.6,0,.182.059.4-.023.537-.133.219-.356.523-.551.531s-.464-.274-.582-.491a1.554,1.554,0,0,1-.042-.691c0-3.4.006-6.809,0-10.214-.011-4.38-2.969-7.3-7.423-7.307q-11.787-.017-23.574,0c-4.4.007-7.374,2.943-7.383,7.267q-.014,7.134,0,14.268c.009,4.371,2.975,7.267,7.446,7.277,3.106.007,6.212,0,9.318,0,.972,0,1.117.142,1.121,1.07.005,1.092-.007,2.183,0,3.275.009.964.448,1.2,1.317.707,2.678-1.534,5.339-3.1,8.034-4.6a4.057,4.057,0,0,1,1.64-.432c1.242-.09,2.515.056,3.731-.148a6.868,6.868,0,0,0,5.765-6.7,5.582,5.582,0,0,1,.039-1.24c.07-.257.4-.446.608-.666.185.217.505.419.535.655a8.164,8.164,0,0,1-8.307,9.225,9.469,9.469,0,0,0-5.648,1.555c-1.868,1.228-3.868,2.264-5.817,3.373-1.677.955-3.109.148-3.124-1.753C1165.328,231.825,1165.334,230.816,1165.334,229.7Z" transform="translate(0 0)" fill="#3bbeff"></path><path d="M1291.53,257.669a6.1,6.1,0,0,0-1.077-2.976c-.61-.872-.511-1.45.353-2.187a1.3,1.3,0,0,1,1.966.151,12.7,12.7,0,0,1,3.953,9.555,4.4,4.4,0,0,1-4.125,4.279,4.425,4.425,0,0,1-1.769-8.59C1291.028,257.83,1291.229,257.769,1291.53,257.669Zm.259-4.312-.259.017a2.543,2.543,0,0,0,.011.766c.389,1.169.906,2.3,1.2,3.492.246.994.081,1.092-.961,1.254a3.209,3.209,0,0,0-2.685,3.482,3.159,3.159,0,0,0,3.2,2.909,3.114,3.114,0,0,0,3.2-2.9A11.459,11.459,0,0,0,1291.789,253.357Z" transform="translate(-118.057 -45.364)" fill="#3bbeff"></path><path d="M1211.207,253.432a4.766,4.766,0,0,0,.119.778c.395,1.224.831,2.435,1.206,3.665.119.391.072.856-.458.935s-.648-.314-.7-.752a7.48,7.48,0,0,0-1.336-3.611c-.476-.643-.231-1.331.57-1.983a1.248,1.248,0,0,1,1.79.088,12.484,12.484,0,0,1,3.958,7.774,9.709,9.709,0,0,1,.021,2.53,4.259,4.259,0,0,1-3.66,3.581,4.419,4.419,0,0,1-4.1-7.164c.084-.1.174-.2.266-.3.3-.31.693-.566,1-.141a1,1,0,0,1-.132.935,3.414,3.414,0,0,0-.9,2.628,3.153,3.153,0,0,0,3.148,2.882,3.192,3.192,0,0,0,3.255-2.866,11.493,11.493,0,0,0-3.75-9.022Z" transform="translate(-50.571 -45.369)" fill="#3bbeff"></path></g></g></svg>