<?xml version="1.0" standalone="no"?>
<!DOCTYPE svg PUBLIC "-//W3C//DTD SVG 1.1//EN" "http://www.w3.org/Graphics/SVG/1.1/DTD/svg11.dtd" >
<svg xmlns="http://www.w3.org/2000/svg" xmlns:xlink="http://www.w3.org/1999/xlink" version="1.1">
<metadata>
Created by FontForge 20190801 at Thu Feb 20 20:44:02 2020
 By www-data
Alternate A Left
</metadata>
<defs>
<font id="EditechRegular" horiz-adv-x="836" >
  <font-face 
    font-family="EditechRegular"
    font-weight="450"
    font-stretch="normal"
    units-per-em="1000"
    panose-1="0 0 0 0 0 0 0 0 0 0"
    ascent="850"
    descent="-150"
    x-height="520"
    cap-height="700"
    bbox="-194 -298 1273 981"
    underline-thickness="50"
    underline-position="-225"
    unicode-range="U+000D-FB02"
  />
<missing-glyph horiz-adv-x="364" 
d="M298 0h-265v666h265v-666zM66 633v-600h199v600h-199z" />
    <glyph glyph-name="fi" unicode="fi" horiz-adv-x="648" 
d="M206 540v-20h167v-77h-167v-443h-82v443h-96v77h96v20q0 112 48 162.5t154 50.5h52v-78h-48q-65 0 -94.5 -32t-29.5 -103zM567 0h-82v520h82v-520zM526 616q-31 0 -44.5 13.5t-13.5 44.5t13.5 44.5t44.5 13.5q30 0 44 -13.5t14 -44.5t-14 -44.5t-44 -13.5z" />
    <glyph glyph-name="fl" unicode="fl" horiz-adv-x="648" 
d="M206 540v-20h167v-77h-167v-443h-82v443h-96v77h96v20q0 112 48 162.5t154 50.5h52v-78h-48q-65 0 -94.5 -32t-29.5 -103zM485 0v750h82v-750h-82z" />
    <glyph glyph-name=".notdef" horiz-adv-x="364" 
d="M298 0h-265v666h265v-666zM66 633v-600h199v600h-199z" />
    <glyph glyph-name="uni0000" horiz-adv-x="0" 
 />
    <glyph glyph-name="uni0000" horiz-adv-x="0" 
 />
    <glyph glyph-name="uni000D" unicode="&#xd;" horiz-adv-x="250" 
 />
    <glyph glyph-name="space" unicode=" " horiz-adv-x="276" 
 />
    <glyph glyph-name="exclam" unicode="!" horiz-adv-x="270" 
d="M173 224h-76l-6 476h87zM135 120q33 0 48.5 -15t15.5 -49q0 -63 -64 -63q-34 0 -49 14.5t-15 48.5t15 49t49 15z" />
    <glyph glyph-name="quotedbl" unicode="&#x22;" horiz-adv-x="369" 
d="M238 405l-6 295h77l-7 -295h-64zM67 405l-7 295h78l-7 -295h-64z" />
    <glyph glyph-name="numbersign" unicode="#" horiz-adv-x="699" 
d="M633 258l-12 -68h-135l-35 -190h-75l34 190h-177l-34 -190h-76l35 190h-138l13 68h137l33 184h-137l12 68h137l34 190h76l-35 -190h178l34 190h75l-34 -190h136l-12 -68h-136l-33 -184h135zM278 442l-33 -184h178l33 184h-178z" />
    <glyph glyph-name="dollar" unicode="$" horiz-adv-x="710" 
d="M48 193h90q16 -55 61.5 -83t126.5 -34v243q-150 25 -209 69q-59 42 -59 125q0 187 268 194v86h58v-87q120 -6 184 -53.5t81 -145.5h-91q-14 54 -56.5 82t-117.5 34v-228q153 -28 217 -73q61 -43 61 -129q0 -192 -278 -200v-86h-58v86q-126 5 -192.5 53t-85.5 147z
M576 186q0 48 -43.5 76t-148.5 47v-234q192 3 192 111zM326 405v219q-182 -3 -182 -106q0 -44 40.5 -69t141.5 -44z" />
    <glyph glyph-name="percent" unicode="%" horiz-adv-x="914" 
d="M86 660q41 47 129 47t129 -47q40 -47 40 -152t-40 -152.5t-129 -47.5t-129 47.5t-40 152.5t40 152zM699 392q90 0 130 -47.5t40 -152.5t-40 -152t-130 -47q-89 0 -129 47.5t-40 151.5q0 105 40 152.5t129 47.5zM250 -7l-58 39l472 675l57 -39zM603 192q0 -68 23 -99.5
t73 -31.5q51 0 74 31t23 100q0 70 -22.5 101t-74.5 31q-50 0 -73 -31t-23 -101zM141 608q-23 -32 -23 -100t24 -100q23 -32 73 -32q51 0 74 31.5t23 100.5q0 70 -22.5 100.5t-74.5 30.5t-74 -31z" />
    <glyph glyph-name="ampersand" unicode="&#x26;" horiz-adv-x="797" 
d="M169 360q-104 39 -104 162q0 98 69.5 141.5t227.5 43.5t228 -46t70 -148h-82q0 61 -51.5 89t-164.5 28q-112 0 -163.5 -27.5t-51.5 -88.5q0 -63 44.5 -90.5t144.5 -27.5h436v-73h-112v-125q0 -108 -72 -156.5t-230 -48.5t-230 46.5t-72 148.5q0 130 113 172zM138 197
q0 -66 53.5 -96.5t168.5 -30.5q117 0 169.5 30.5t52.5 97.5v125h-241q-107 0 -155 -29.5t-48 -96.5z" />
    <glyph glyph-name="quotesingle" unicode="'" horiz-adv-x="198" 
d="M131 405h-64l-7 295h78z" />
    <glyph glyph-name="parenleft" unicode="(" horiz-adv-x="372" 
d="M159 -37q-58 112 -58 363q0 250 57 362t184 112v-68q-88 0 -128 -96.5t-40 -309.5t40.5 -310.5t127.5 -97.5v-68q-126 0 -183 113z" />
    <glyph glyph-name="parenright" unicode=")" horiz-adv-x="372" 
d="M30 732v68q127 0 184.5 -112.5t57.5 -361.5q0 -250 -57.5 -363t-184.5 -113v68q88 0 128.5 97.5t40.5 310.5q0 212 -40.5 309t-128.5 97z" />
    <glyph glyph-name="asterisk" unicode="*" horiz-adv-x="527" 
d="M50 566l23 73l160 -58l-8 169h77l-8 -169l159 59l24 -73l-163 -45l105 -133l-62 -45l-93 141l-94 -141l-62 44l105 132z" />
    <glyph glyph-name="plus" unicode="+" horiz-adv-x="670" 
d="M600 389v-78h-226v-226h-78v226h-226v78h226v226h78v-226h226z" />
    <glyph glyph-name="comma" unicode="," horiz-adv-x="252" 
d="M136 -9v2q-39 0 -55.5 13.5t-16.5 49.5q0 34 15 49t49 15q33 0 48.5 -15t15.5 -49v-55q0 -94 -32 -136t-103 -42v40q41 0 60 30.5t19 97.5z" />
    <glyph glyph-name="hyphen" unicode="-" horiz-adv-x="400" 
d="M340 231h-280v78h280v-78z" />
    <glyph glyph-name="period" unicode="." horiz-adv-x="248" 
d="M75 8q-15 14 -15 48t15 49t49 15t49 -15t15 -49t-15 -48q-15 -15 -49 -15t-49 15z" />
    <glyph glyph-name="slash" unicode="/" horiz-adv-x="521" 
d="M78 -150h-78l443 950h78z" />
    <glyph glyph-name="zero" unicode="0" horiz-adv-x="736" 
d="M134 623q74 84 234 84t234 -84q73 -85 73 -273q0 -189 -73 -272q-73 -85 -234 -85t-234 85q-73 83 -73 272q0 188 73 273zM143 350q0 -146 54 -213t171 -67q118 0 171.5 66.5t53.5 213.5t-53.5 213.5t-171.5 66.5q-117 0 -171 -66.5t-54 -213.5z" />
    <glyph glyph-name="one" unicode="1" horiz-adv-x="486" 
d="M83 463l-45 67l264 170h57v-700h-82v591z" />
    <glyph glyph-name="two" unicode="2" horiz-adv-x="638" 
d="M322 707q138 0 200.5 -49.5t62.5 -160.5q0 -73 -27.5 -115.5t-87.5 -62.5l-249 -87q-37 -13 -54 -36.5t-17 -64.5v-53h443v-78h-525v124q0 138 119 179l246 85q37 14 53 38.5t16 68.5q0 71 -43.5 103t-139.5 32q-95 0 -139 -31.5t-44 -100.5h-83q0 109 64.5 159t204.5 50
z" />
    <glyph glyph-name="three" unicode="3" horiz-adv-x="633" 
d="M38 198h83q0 -67 44.5 -97.5t142.5 -30.5q97 0 142 30.5t45 96.5q0 67 -48 96.5t-155 29.5h-36v73h41q100 0 144.5 27.5t44.5 90.5q0 61 -41.5 88.5t-133.5 27.5t-133.5 -27.5t-41.5 -89.5h-83q0 102 61 148t197 46q135 0 196 -43.5t61 -141.5q0 -123 -104 -162
q113 -42 113 -172q0 -103 -64 -149t-205 -46q-142 0 -206 48.5t-64 156.5z" />
    <glyph glyph-name="four" unicode="4" horiz-adv-x="707" 
d="M43 156v78l382 466h128v-466h131v-78h-131v-156h-83v156h-427zM470 639l-328 -405h328v405z" />
    <glyph glyph-name="five" unicode="5" horiz-adv-x="680" 
d="M66 198h82q0 -67 45.5 -97.5t142.5 -30.5q106 0 155 37t49 117q0 84 -53.5 122t-171.5 38q-78 0 -114 -17t-36 -54h-78v387h492v-82h-414v-200q50 44 176 44q146 0 213.5 -56.5t67.5 -179.5q0 -122 -68 -177.5t-218 -55.5q-141 0 -205.5 48.5t-64.5 156.5z" />
    <glyph glyph-name="six" unicode="6" horiz-adv-x="678" 
d="M61 209v256q0 127 65 184.5t208 57.5q144 0 208.5 -45t64.5 -146h-82q0 59 -45.5 86.5t-145.5 27.5t-145.5 -38.5t-45.5 -121.5v-106q43 73 202 73q149 0 217 -52.5t68 -169.5q0 -116 -67.5 -169t-216.5 -53q-150 0 -217.5 51.5t-67.5 164.5zM191 325q-48 -35 -48 -110
t48 -110q49 -35 155 -35t154 34.5t48 110.5t-48 110t-154 34q-108 0 -155 -34z" />
    <glyph glyph-name="seven" unicode="7" horiz-adv-x="603" 
d="M92 0l389 623h-461v77h555v-77l-389 -623h-94z" />
    <glyph glyph-name="eight" unicode="8" horiz-adv-x="685" 
d="M172 360q-106 40 -106 162q0 98 65.5 141.5t212.5 43.5q145 0 210.5 -43.5t65.5 -141.5q0 -122 -105 -162q115 -40 115 -172q0 -103 -68 -149t-219 -46q-150 0 -218.5 46t-68.5 149q0 131 116 172zM187 101q49 -31 156 -31t156 31q48 30 48 96t-48 95.5t-156 29.5
t-156.5 -29.5t-48.5 -95.5t49 -96zM148 514q0 -62 46.5 -89.5t149.5 -27.5q102 0 147.5 27.5t45.5 89.5q0 61 -45.5 88.5t-147.5 27.5t-149 -27.5t-47 -88.5z" />
    <glyph glyph-name="nine" unicode="9" horiz-adv-x="671" 
d="M115 654q68 53 214 53q147 0 214 -51q67 -52 67 -165v-256q0 -127 -65.5 -184.5t-211.5 -57.5t-211.5 45t-65.5 146h82q0 -59 46.5 -86.5t148.5 -27.5t148.5 38t46.5 122v107q-44 -83 -200 -83q-147 0 -213.5 54t-66.5 174q0 118 67 172zM131 482q0 -78 47.5 -114
t150.5 -36t151 36t48 114q0 77 -48 112.5t-151 35.5t-150.5 -35.5t-47.5 -112.5z" />
    <glyph glyph-name="colon" unicode=":" horiz-adv-x="248" 
d="M60 463q0 33 15 48.5t49 15.5t49 -15.5t15 -48.5q0 -34 -15 -49t-49 -15t-49 15t-15 49zM75 8q-15 14 -15 48t15 49t49 15t49 -15t15 -49t-15 -48q-15 -15 -49 -15t-49 15z" />
    <glyph glyph-name="semicolon" unicode=";" horiz-adv-x="248" 
d="M57 -177v40q41 0 60 30.5t19 97.5v2q-39 0 -55.5 13.5t-16.5 49.5q0 34 15 49t49 15q33 0 48.5 -15t15.5 -49v-55q0 -94 -32 -136t-103 -42zM75 512q15 15 49 15t49 -15q15 -16 15 -49q0 -34 -15 -49t-49 -15t-49 15t-15 49q0 33 15 49z" />
    <glyph glyph-name="less" unicode="&#x3c;" horiz-adv-x="670" 
d="M587 110l-527 198v84l527 198v-83l-425 -157l425 -157v-83z" />
    <glyph glyph-name="equal" unicode="=" horiz-adv-x="670" 
d="M600 516v-77h-530v77h530zM600 261v-77h-530v77h530z" />
    <glyph glyph-name="greater" unicode="&#x3e;" horiz-adv-x="670" 
d="M610 392v-84l-527 -198v83l425 157l-425 157v83z" />
    <glyph glyph-name="question" unicode="?" horiz-adv-x="573" 
d="M110 498h-82q19 110 81.5 159.5t184.5 49.5q243 0 243 -194q0 -113 -90 -152l-85 -38q-46 -22 -46 -70v-34h-82v44q0 91 79 125l86 39q56 26 56 85q0 118 -162 118q-81 0 -123.5 -31t-59.5 -101zM228 8q-15 14 -15 48t15 49t49 15q33 0 48.5 -15t15.5 -49q0 -63 -64 -63
q-34 0 -49 15z" />
    <glyph glyph-name="at" unicode="@" horiz-adv-x="1086" 
d="M547 740q248 0 361 -110q112 -109 112 -352q0 -145 -42 -210t-134 -65q-58 0 -88.5 23.5t-38.5 74.5q-54 -93 -205 -93q-127 0 -184.5 63.5t-57.5 203.5t57.5 203.5t184.5 63.5q148 0 202 -89v82h83v-378q0 -51 16.5 -74.5t53.5 -23.5q53 0 77.5 49.5t24.5 158.5
q0 222 -101 323t-324 101t-325 -99t-102 -317t102 -317t322 -99q93 0 165 18l16 -47q-78 -20 -184 -20q-245 0 -358.5 111t-113.5 352q0 243 116 356q116 111 365 111zM533 85q94 0 136.5 45.5t42.5 145.5t-42.5 144.5t-136.5 44.5q-95 0 -138 -44.5t-43 -144.5t43 -145.5
t138 -45.5z" />
    <glyph glyph-name="A" unicode="A" horiz-adv-x="809" 
d="M118 0h-93l329 700h101l328 -700h-93l-74 160l-423 -1zM577 242l-172 369l-173 -369h345z" />
    <glyph glyph-name="B" unicode="B" horiz-adv-x="769" 
d="M496 0h-405v700h380q114 0 165.5 -43t51.5 -138q0 -119 -81 -157q106 -34 106 -173q0 -99 -51.5 -144t-165.5 -45zM496 319h-318v-237h318q71 0 103 28.5t32 90.5t-32.5 90t-102.5 28zM178 618v-222h291q75 0 106 25.5t31 85.5q0 58 -32.5 84.5t-102.5 26.5h-293z" />
    <glyph glyph-name="C" unicode="C" horiz-adv-x="825" 
d="M146 78q-85 84 -85 272t85 273q84 84 272 84q154 0 238 -56.5t108 -178.5h-90q-24 79 -86 116t-170 37q-142 0 -206 -65.5t-64 -209.5t64 -209.5t206 -65.5q109 0 171 37t85 117h90q-24 -122 -108 -179t-238 -57q-188 0 -272 85z" />
    <glyph glyph-name="D" unicode="D" horiz-adv-x="800" 
d="M381 0h-290v700h290q188 0 273 -83t85 -267t-85 -267t-273 -83zM379 618h-201v-536h201q143 0 208 64t65 204t-65 204t-208 64z" />
    <glyph glyph-name="E" unicode="E" horiz-adv-x="731" 
d="M663 82v-82h-572v700h572v-82h-485v-229h435v-78h-435v-229h485z" />
    <glyph glyph-name="F" unicode="F" horiz-adv-x="701" 
d="M178 309v-309h-87v700h562v-82h-475v-227h425v-82h-425z" />
    <glyph glyph-name="G" unicode="G" horiz-adv-x="829" 
d="M61 351q0 187 85 271.5t272 84.5q151 0 234 -53.5t109 -169.5h-91q-50 141 -252 141q-142 0 -206 -65.5t-64 -209.5q0 -146 67.5 -210.5t221.5 -64.5q123 0 180 39.5t57 125.5v50h-260v77h349v-127q0 -129 -78.5 -188t-248.5 -59q-201 0 -287 85q-88 84 -88 273z" />
    <glyph glyph-name="H" unicode="H" horiz-adv-x="856" 
d="M178 0h-87v700h87v-309h500v309h87v-700h-87v309h-500v-309z" />
    <glyph glyph-name="I" unicode="I" horiz-adv-x="270" 
d="M178 0h-87v700h87v-700z" />
    <glyph glyph-name="J" unicode="J" horiz-adv-x="684" 
d="M40 205v56h88v-56q0 -67 46.5 -98.5t148.5 -31.5q101 0 147.5 41.5t46.5 131.5v452h87v-458q0 -130 -67 -189.5t-214 -59.5q-148 0 -215.5 51t-67.5 161z" />
    <glyph glyph-name="K" unicode="K" horiz-adv-x="732" 
d="M178 0h-87v700h87v-301h142l259 301h108l-295 -341l317 -359h-110l-279 317h-142v-317z" />
    <glyph glyph-name="L" unicode="L" horiz-adv-x="686" 
d="M636 0h-545v700h87v-618h458v-82z" />
    <glyph glyph-name="M" unicode="M" horiz-adv-x="1017" 
d="M178 0h-87v700h141l277 -606l276 606h141v-700h-87v617l-280 -617h-101l-280 617v-617z" />
    <glyph glyph-name="N" unicode="N" horiz-adv-x="849" 
d="M178 573v-573h-87v700h87l492 -574v574h87v-700h-87z" />
    <glyph glyph-name="O" unicode="O" 
d="M146 623q84 84 272 84t273 -85t85 -272t-85 -272t-273 -85t-272 85q-85 84 -85 272t85 273zM212 560q-64 -65 -64 -210t64 -209q64 -66 206 -66t207 66q64 64 64 209t-64 210q-65 65 -207 65q-141 0 -206 -65z" />
    <glyph glyph-name="P" unicode="P" horiz-adv-x="716" 
d="M178 0h-87v700h345q124 0 180.5 -52t56.5 -167t-56 -167t-181 -52h-258v-262zM431 618h-253v-274h253q81 0 118 32.5t37 104.5t-37 104.5t-118 32.5z" />
    <glyph glyph-name="Q" unicode="Q" 
d="M146 623q84 84 272 84t273 -85t85 -272q0 -132 -41.5 -212t-129.5 -116l175 -157l-61 -60l-213 193q-38 -5 -88 -5q-188 0 -272.5 84.5t-84.5 272.5t85 273zM212 141q64 -66 206 -66t207 66q64 64 64 209t-64 210q-65 65 -207 65q-141 0 -206 -65q-64 -65 -64 -210
t64 -209z" />
    <glyph glyph-name="R" unicode="R" horiz-adv-x="769" 
d="M178 277v-277h-87v700h360q124 0 180.5 -47.5t56.5 -151.5q0 -141 -103 -181q98 -35 98 -156v-164h-87v161q0 61 -34.5 88.5t-110.5 27.5h-273zM178 618v-259h268q81 0 118 31t37 99q0 67 -37 98t-118 31h-268z" />
    <glyph glyph-name="S" unicode="S" horiz-adv-x="710" 
d="M48 193h90q19 -62 74.5 -90t157.5 -28q206 0 206 111q0 51 -51 81q-55 30 -181 49q-162 26 -223 69q-63 43 -63 128q0 194 288 194q141 0 212.5 -47t90.5 -153h-91q-16 61 -68.5 89.5t-149.5 28.5q-196 0 -196 -107q0 -48 48 -73q49 -27 168 -46q169 -28 237 -73
q65 -45 65 -133q0 -200 -301 -200q-144 0 -218.5 47.5t-94.5 152.5z" />
    <glyph glyph-name="T" unicode="T" horiz-adv-x="756" 
d="M334 618h-304v82h696v-82h-304v-618h-88v618z" />
    <glyph glyph-name="U" unicode="U" horiz-adv-x="816" 
d="M78 301v399h88v-391q0 -123 57.5 -178.5t184.5 -55.5q128 0 185.5 55.5t57.5 178.5v391h87v-399q0 -161 -78.5 -234.5t-251.5 -73.5t-251.5 73.5t-78.5 234.5z" />
    <glyph glyph-name="V" unicode="V" horiz-adv-x="798" 
d="M450 0h-101l-324 700h93l282 -611l280 611h93z" />
    <glyph glyph-name="W" unicode="W" horiz-adv-x="1174" 
d="M279 0l-254 700h90l215 -596l210 596h93l212 -596l213 596h90l-253 -700h-101l-207 578l-207 -578h-101z" />
    <glyph glyph-name="X" unicode="X" horiz-adv-x="746" 
d="M319 357l-284 343h107l231 -278l231 278h107l-284 -343l296 -357h-108l-242 292l-242 -292h-108z" />
    <glyph glyph-name="Y" unicode="Y" horiz-adv-x="779" 
d="M346 0v284l-321 416h105l260 -332l259 332h104l-320 -416v-284h-87z" />
    <glyph glyph-name="Z" unicode="Z" horiz-adv-x="673" 
d="M635 82v-82h-597v78l475 540h-466v82h583v-77l-475 -541h480z" />
    <glyph glyph-name="bracketleft" unicode="[" horiz-adv-x="344" 
d="M314 -82v-68h-213v950h213v-68h-140v-814h140z" />
    <glyph glyph-name="backslash" unicode="\" horiz-adv-x="521" 
d="M443 -150l-443 950h78l443 -950h-78z" />
    <glyph glyph-name="bracketright" unicode="]" horiz-adv-x="344" 
d="M170 -82v814h-140v68h213v-950h-213v68h140z" />
    <glyph glyph-name="asciicircum" unicode="^" horiz-adv-x="670" 
d="M146 409l-55 54l244 244l245 -244l-55 -55l-189 190z" />
    <glyph glyph-name="underscore" unicode="_" horiz-adv-x="500" 
d="M500 -178h-500v78h500v-78z" />
    <glyph glyph-name="grave" unicode="`" horiz-adv-x="337" 
d="M103 877l178 -135l-31 -42l-194 116z" />
    <glyph glyph-name="a" unicode="a" horiz-adv-x="637" 
d="M263 -7q-105 0 -153.5 36.5t-48.5 116.5q0 83 54 119.5t176 36.5h185v7q0 77 -38.5 111.5t-124.5 34.5q-69 0 -106 -22.5t-51 -71.5h-82q15 87 72 126.5t170 39.5q128 0 185.5 -51.5t57.5 -165.5v-310h-83v77q-56 -84 -213 -84zM144 149q0 -44 33.5 -64t103.5 -20
q94 0 140 34.5t55 110.5v29h-166q-87 0 -126.5 -21.5t-39.5 -68.5z" />
    <glyph glyph-name="b" unicode="b" horiz-adv-x="659" 
d="M164 82v-82h-83v750h83v-312q54 89 203 89q127 0 184 -63.5t57 -203.5t-57 -203.5t-184 -63.5q-150 0 -203 89zM209 116q43 -46 137 -46t137 46q43 44 43 144t-42.5 145t-137.5 45t-137.5 -45t-42.5 -145t43 -144z" />
    <glyph glyph-name="c" unicode="c" horiz-adv-x="610" 
d="M310 -7q-136 0 -197.5 63.5t-61.5 203.5t61.5 203.5t197.5 63.5q116 0 176.5 -45.5t75.5 -145.5h-82q-14 59 -54.5 86.5t-114.5 27.5q-94 0 -136 -45t-42 -145q0 -99 42.5 -144.5t135.5 -45.5q74 0 114.5 27.5t54.5 86.5h82q-15 -100 -75.5 -145.5t-176.5 -45.5z" />
    <glyph glyph-name="d" unicode="d" horiz-adv-x="659" 
d="M109 57q-58 62 -58 203q0 140 58 204q57 63 184 63q147 0 203 -89v312h82v-750h-82l-1 82q-53 -89 -202 -89q-127 0 -184 64zM314 70q94 0 137 45.5t43 144.5q0 100 -43 145t-137 45q-95 0 -138 -45t-43 -145q0 -99 43 -144.5t138 -45.5z" />
    <glyph glyph-name="e" unicode="e" horiz-adv-x="626" 
d="M114 57q-63 63 -63 203t63 204q62 63 201 63q138 0 199 -63t61 -204v-24h-440q5 -89 48.5 -130t132.5 -41q128 0 163 89h85q-20 -87 -82 -124t-167 -37q-140 0 -201 64zM316 455q-86 0 -129.5 -37t-50.5 -119h357q-7 82 -49.5 119t-127.5 37z" />
    <glyph glyph-name="f" unicode="f" horiz-adv-x="403" 
d="M206 540v-20h167v-77h-167v-443h-82v443h-96v77h96v20q0 112 48 162.5t154 50.5h52v-78h-48q-65 0 -94.5 -32t-29.5 -103z" />
    <glyph glyph-name="g" unicode="g" horiz-adv-x="659" 
d="M293 527q147 0 203 -89v82h82v-519q0 -136 -61.5 -197t-196.5 -61q-116 0 -176 42t-74 134h82q14 -51 54 -75t112 -24q93 0 135.5 43.5t42.5 139.5v79q-56 -89 -203 -89q-127 0 -184.5 63.5t-57.5 203.5t57.5 203.5t184.5 63.5zM314 70q94 0 137 45t43 145
q0 99 -43 144.5t-137 45.5q-95 0 -138 -45.5t-43 -144.5q0 -100 43 -145t138 -45z" />
    <glyph glyph-name="h" unicode="h" horiz-adv-x="661" 
d="M81 0v750h83v-310q52 87 198 87q115 0 168 -54t53 -173v-300h-83v300q0 78 -38.5 114t-121.5 36q-94 0 -135 -44.5t-41 -145.5v-260h-83z" />
    <glyph glyph-name="i" unicode="i" horiz-adv-x="245" 
d="M164 0h-83v520h83v-520zM78 630q-13 13 -13 44q0 32 13 45t44 13q32 0 45 -13q14 -14 14 -45q0 -30 -14 -44t-45 -14q-30 0 -44 14z" />
    <glyph glyph-name="j" unicode="j" horiz-adv-x="245" 
d="M-13 -250h-33v77h29q52 0 75 25t23 80v588h83v-586q0 -97 -42 -140.5t-135 -43.5zM78 630q-13 13 -13 44q0 32 13 45t44 13q32 0 45 -13q14 -14 14 -45q0 -30 -14 -44t-45 -14q-30 0 -44 14z" />
    <glyph glyph-name="k" unicode="k" horiz-adv-x="562" 
d="M164 226v-226h-83v750h83v-446h71l179 216h100l-211 -254l228 -266h-102l-193 226h-72z" />
    <glyph glyph-name="l" unicode="l" horiz-adv-x="245" 
d="M164 0h-83v750h83v-750z" />
    <glyph glyph-name="m" unicode="m" horiz-adv-x="995" 
d="M164 260v-260h-83v520h83v-73q48 80 176 80q139 0 180 -101q48 101 192 101q106 0 155 -54t49 -173v-300h-82v300q0 79 -33.5 114.5t-106.5 35.5q-82 0 -118 -44.5t-36 -145.5v-260h-82v300q0 78 -34 114t-106 36q-82 0 -118 -44.5t-36 -145.5z" />
    <glyph glyph-name="n" unicode="n" horiz-adv-x="661" 
d="M81 0v520h83v-80q52 87 198 87q115 0 168 -54t53 -173v-300h-83v300q0 78 -38.5 114t-121.5 36q-94 0 -135 -44.5t-41 -145.5v-260h-83z" />
    <glyph glyph-name="o" unicode="o" horiz-adv-x="631" 
d="M114 464q63 63 202 63t202 -63q62 -65 62 -204t-62 -203q-63 -64 -202 -64t-202 64q-63 63 -63 203t63 204zM133 260q0 -99 43.5 -144.5t139.5 -45.5q95 0 138.5 45.5t43.5 144.5q0 100 -43 145t-139 45t-139.5 -45t-43.5 -145z" />
    <glyph glyph-name="p" unicode="p" horiz-adv-x="659" 
d="M164 -250h-83v770h83v-82q53 89 203 89q127 0 184 -63.5t57 -203.5t-57 -203.5t-184 -63.5q-149 0 -203 89v-332zM209 115q42 -45 137 -45q94 0 138 45q42 45 42 145q0 99 -43 144.5t-137 45.5t-137 -45.5t-43 -144.5q0 -101 43 -145z" />
    <glyph glyph-name="q" unicode="q" horiz-adv-x="659" 
d="M109 57q-58 62 -58 203q0 140 58 204q57 63 184 63q147 0 203 -89v82h82v-770h-82v332q-56 -89 -203 -89q-127 0 -184 64zM314 70q94 0 137 45t43 145q0 99 -43 144.5t-137 45.5q-95 0 -138 -45.5t-43 -144.5q0 -100 43 -145t138 -45z" />
    <glyph glyph-name="r" unicode="r" horiz-adv-x="422" 
d="M164 260v-260h-83v520h83v-77q51 84 190 84h42v-77h-65q-90 0 -128.5 -44t-38.5 -146z" />
    <glyph glyph-name="s" unicode="s" horiz-adv-x="577" 
d="M51 154h82q13 -46 53 -67.5t114 -21.5q147 0 147 75q0 32 -38 51.5t-124 32.5q-123 17 -173.5 52.5t-50.5 104.5q0 146 218 146q111 0 168 -38.5t72 -122.5h-82q-14 47 -52 68t-108 21q-67 0 -101.5 -19t-34.5 -53q0 -30 37 -49.5t121 -33.5q128 -20 178 -53
q50 -35 50 -101q0 -153 -229 -153q-113 0 -172.5 38.5t-74.5 122.5z" />
    <glyph glyph-name="t" unicode="t" horiz-adv-x="416" 
d="M121 443h-90v77h90v115h83v-115h164v-77h-164v-264q0 -53 25.5 -77t82.5 -24h61v-78h-62q-100 0 -145 40t-45 129v274z" />
    <glyph glyph-name="u" unicode="u" horiz-adv-x="657" 
d="M79 220v300h82v-300q0 -78 38.5 -114t120.5 -36q92 0 132.5 44.5t40.5 145.5v260h83v-520h-83v79q-53 -86 -195 -86q-114 0 -166.5 53.5t-52.5 173.5z" />
    <glyph glyph-name="v" unicode="v" horiz-adv-x="584" 
d="M245 0l-222 520h88l181 -432l181 432h88l-223 -520h-93z" />
    <glyph glyph-name="w" unicode="w" horiz-adv-x="858" 
d="M293 0h-93l-177 520h86l136 -422l143 422h82l142 -416l137 416h86l-177 -520h-92l-137 401z" />
    <glyph glyph-name="x" unicode="x" horiz-adv-x="604" 
d="M303 202l-168 -202h-104l219 264l-213 256h104l162 -194l161 194h103l-211 -256l218 -264h-104z" />
    <glyph glyph-name="y" unicode="y" horiz-adv-x="577" 
d="M138 -250l106 250l-221 520h88l177 -413l178 413h88l-327 -770h-89z" />
    <glyph glyph-name="z" unicode="z" horiz-adv-x="531" 
d="M490 0h-449v61l327 382h-327v77h447v-61l-329 -381h331v-78z" />
    <glyph glyph-name="braceleft" unicode="{" horiz-adv-x="328" 
d="M113 432v237q0 69 28.5 100t91.5 31h65v-68h-54q-59 0 -59 -65v-239q0 -44 -19.5 -68.5t-63.5 -34.5q44 -10 63.5 -34.5t19.5 -68.5v-235q0 -69 55 -69h58v-68h-69q-61 0 -88.5 32t-27.5 104v231q0 26 -21 45.5t-45 23.5l-22 5v69q25 0 58 20q30 18 30 52z" />
    <glyph glyph-name="bar" unicode="|" horiz-adv-x="274" 
d="M174 -150h-73v900h73v-900z" />
    <glyph glyph-name="braceright" unicode="}" horiz-adv-x="328" 
d="M99 -150h-69v68h58q55 0 55 69v235q0 44 20 68.5t64 34.5q-44 10 -64 34.5t-20 68.5v239q0 65 -59 65h-54v68h66q63 0 91.5 -31t28.5 -100v-237q0 -26 21 -45t45 -23l21 -4v-69q-25 0 -56 -20q-31 -19 -31 -54v-231q0 -72 -27.5 -104t-89.5 -32z" />
    <glyph glyph-name="asciitilde" unicode="~" horiz-adv-x="670" 
d="M138 275h-69q0 154 138 154q45 2 92 -21.5t87.5 -47t69.5 -21.5q75 0 75 87h69q0 -155 -140 -155q-45 -2 -92 21.5t-87.5 47t-68.5 21.5q-74 0 -74 -86z" />
    <glyph glyph-name="exclamdown" unicode="&#xa1;" horiz-adv-x="270" 
d="M173 296l5 -476h-87l6 476h76zM135 527q64 0 64 -63q0 -34 -15.5 -49t-48.5 -15q-34 0 -49 15t-15 49t15 48.5t49 14.5z" />
    <glyph glyph-name="cent" unicode="&#xa2;" horiz-adv-x="610" 
d="M105 155q-54 63 -54 195t54 196q54 62 171 70v91h59v-90q102 -4 157.5 -50.5t69.5 -140.5h-82q-13 55 -48 82t-97 31v-378q120 7 145 113h82q-14 -95 -68.5 -141t-158.5 -50v-90h-59v91q-119 8 -171 71zM276 162v376q-75 -7 -109 -52.5t-34 -135.5t34 -135.5t109 -52.5z
" />
    <glyph glyph-name="sterling" unicode="&#xa3;" horiz-adv-x="732" 
d="M680 0h-624v82h113v192h-113v68h113v116q0 130 60.5 189.5t193.5 59.5t193.5 -50.5t60.5 -161.5v-56h-87v56q0 67 -40.5 98.5t-127.5 31.5q-86 0 -126 -42t-40 -131v-110h241v-68h-241v-192h424v-82z" />
    <glyph glyph-name="currency" unicode="&#xa4;" horiz-adv-x="670" 
d="M146 484l-85 85l55 55l85 -85q44 31 134 31q89 0 135 -31l84 85l55 -55l-85 -85q31 -46 31 -134t-31 -134l86 -86l-55 -55l-86 86q-46 -31 -134 -31t-134 31l-85 -85l-55 55l85 85q-31 46 -31 134t31 134zM335 502q-79 0 -115.5 -36t-36.5 -116t36 -116t116 -36
q79 0 115.5 36t36.5 116t-36 116t-116 36z" />
    <glyph glyph-name="yen" unicode="&#xa5;" horiz-adv-x="779" 
d="M132 286h212l-319 414h105l260 -332l259 332h104l-318 -414h212v-54h-214v-86h214v-54h-214v-92h-87v92h-214v54h214v86h-214v54z" />
    <glyph glyph-name="brokenbar" unicode="&#xa6;" horiz-adv-x="274" 
d="M174 -150h-73v350h73v-350zM101 400v350h73v-350h-73z" />
    <glyph glyph-name="section" unicode="&#xa7;" horiz-adv-x="610" 
d="M423 -69q32 18 32 56t-41 65q-41 26 -100 44q-44 13 -71.5 22t-67.5 27.5t-63 37.5t-40 48.5t-16 64.5q0 92 97 135q-72 49 -72 125q0 78 49 115t154 37q122 0 182.5 -39.5t75.5 -127.5h-82q-14 51 -53.5 73t-118.5 22q-69 0 -100.5 -18.5t-31.5 -57.5q0 -12 3 -22.5
t10.5 -20t15.5 -17t21.5 -15t24 -13t29 -12t30 -11t33 -11.5t32.5 -11q93 -31 146 -71t53 -110q0 -90 -95 -134q70 -46 70 -122t-49.5 -112t-154.5 -36q-121 0 -181.5 39.5t-75.5 127.5h82q13 -51 52.5 -73t117.5 -22q71 0 103 17zM475 240q6 63 -116 108q-125 43 -142 50
q-37 -12 -59 -37t-22 -58q-6 -66 115 -108q13 -5 68 -23.5t71 -25.5q85 27 85 94z" />
    <glyph glyph-name="dieresis" unicode="&#xa8;" horiz-adv-x="421" 
d="M56 753q0 54 53 54q55 0 55 -54q0 -28 -13 -40.5t-42 -12.5t-41 12t-12 41zM311 807q54 0 54 -54q0 -53 -54 -53q-29 0 -41 12t-12 41q0 54 53 54z" />
    <glyph glyph-name="copyright" unicode="&#xa9;" horiz-adv-x="846" 
d="M696 78q-85 -85 -273 -85t-272 85q-85 85 -85 273q0 187 85 271.5t272 84.5t272 -84.5t85 -271.5t-84 -273zM188 586q-74 -74 -74 -236q0 -161 74 -235t235 -74q162 0 236 74q73 73 73 235q0 163 -73 236t-236 73q-162 0 -235 -73zM288 213q-43 43 -43 137t43 137t137 43
q81 0 123.5 -31.5t52.5 -98.5h-72q-20 63 -103 63q-58 0 -84 -27t-26 -86t26 -86t84 -27q87 0 103 64h72q-10 -67 -52.5 -99t-123.5 -32q-94 0 -137 43z" />
    <glyph glyph-name="ordfeminine" unicode="&#xaa;" horiz-adv-x="487" 
d="M198 306q-81 0 -118 27t-37 87q0 64 42.5 90.5t132.5 26.5h136v4q0 52 -26.5 76.5t-89.5 24.5q-93 0 -112 -61h-73q11 66 55 96t133 30q102 0 145 -40.5t43 -124.5v-230h-75v50q-44 -56 -156 -56zM354 485h-117q-119 0 -119 -59q0 -55 97 -55q66 0 98.5 22.5t40.5 72.5
v19z" />
    <glyph glyph-name="guillemotleft" unicode="&#xab;" horiz-adv-x="494" 
d="M439 44l-64 -31l-123 257l123 257l64 -31l-109 -226zM235 44l-63 -31l-124 257l124 257l63 -31l-109 -226z" />
    <glyph glyph-name="logicalnot" unicode="&#xac;" horiz-adv-x="670" 
d="M517 191v161h-447v77h530v-238h-83z" />
    <glyph glyph-name="uni00AD" unicode="&#xad;" horiz-adv-x="400" 
d="M340 231h-280v77h280v-77z" />
    <glyph glyph-name="registered" unicode="&#xae;" horiz-adv-x="846" 
d="M66 351q0 187 85 271.5t272 84.5t272 -84.5t85 -271.5q0 -188 -84.5 -273t-272.5 -85t-272.5 85t-84.5 273zM659 586q-73 73 -236 73q-162 0 -235 -73q-74 -74 -74 -236q0 -161 74 -235t235 -74q162 0 236 74q73 73 73 235q0 163 -73 236zM278 174v350h187q63 0 93.5 -24
t30.5 -80q0 -67 -48 -91q43 -19 43 -72v-83h-71v80q0 43 -55 43h-110v-123h-70zM348 459v-100h110q61 0 61 51q0 49 -61 49h-110z" />
    <glyph glyph-name="overscore" unicode="&#xaf;" horiz-adv-x="425" 
d="M369 700h-313v68h313v-68z" />
    <glyph glyph-name="degree" unicode="&#xb0;" horiz-adv-x="420" 
d="M87 704q51 51 123 51t123 -51t51 -124q0 -72 -51 -123t-123 -51t-123 51t-51 123q0 73 51 124zM106 580q0 -43 30.5 -73t73.5 -30t73.5 30t30.5 73q0 44 -30 74t-74 30t-74 -30t-30 -74z" />
    <glyph glyph-name="plusminus" unicode="&#xb1;" horiz-adv-x="670" 
d="M600 489v-78h-226v-186h-78v186h-226v78h226v186h78v-186h226zM600 154v-78h-530v78h530z" />
    <glyph glyph-name="twosuperior" unicode="&#xb2;" horiz-adv-x="317" 
d="M159 754q72 0 104 -25t32 -82q0 -72 -61 -91l-117 -37q-30 -11 -30 -43v-20h209v-56h-268v65q0 79 62 99l117 38q29 11 29 42q0 56 -78 56t-78 -54h-59q0 57 33 82.5t105 25.5z" />
    <glyph glyph-name="threesuperior" unicode="&#xb3;" horiz-adv-x="313" 
d="M15 504h58q0 -53 80 -53q79 0 79 52q0 27 -20.5 38.5t-66.5 11.5h-17v52h19q43 0 61.5 11t18.5 36q0 26 -16.5 37t-55.5 11q-74 0 -74 -48h-59q0 54 31.5 78t101.5 24q69 0 100.5 -22t31.5 -72q0 -59 -46 -81q50 -23 50 -83q0 -52 -33 -76t-105 -24q-73 0 -105.5 25.5
t-32.5 82.5z" />
    <glyph glyph-name="acute" unicode="&#xb4;" horiz-adv-x="337" 
d="M88 700l-32 42l178 135l47 -61z" />
    <glyph glyph-name="uni00B5" unicode="&#xb5;" horiz-adv-x="657" 
d="M161 -250h-82v770h82v-300q0 -78 38.5 -114t120.5 -36q92 0 132.5 44.5t40.5 145.5v260h83v-520h-83v79q-53 -86 -195 -86q-91 0 -143 34z" />
    <glyph glyph-name="paragraph" unicode="&#xb6;" horiz-adv-x="633" 
d="M275 700h93v-900h-73v456q-128 0 -186.5 53t-58.5 169t53.5 169t171.5 53zM533 700v-900h-73v900h73z" />
    <glyph glyph-name="middot" unicode="&#xb7;" horiz-adv-x="248" 
d="M75 301q-15 15 -15 49t15 49t49 15t49 -15t15 -49t-15 -49t-49 -15t-49 15z" />
    <glyph glyph-name="cedilla" unicode="&#xb8;" horiz-adv-x="371" 
d="M56 -135h48q0 -50 82 -50q39 0 55.5 10t16.5 33q0 30 -29.5 42.5t-100.5 12.5l20 87h62l-11 -57q116 0 116 -92q0 -42 -30 -62t-96 -20q-69 0 -101 23t-32 73z" />
    <glyph glyph-name="onesuperior" unicode="&#xb9;" horiz-adv-x="246" 
d="M48 617l-32 47l136 86h41v-350h-59v272z" />
    <glyph glyph-name="ordmasculine" unicode="&#xba;" horiz-adv-x="481" 
d="M85 660q50 47 156 47t156 -47q48 -48 48 -153q0 -106 -48.5 -153.5t-155.5 -47.5q-108 0 -156.5 47.5t-48.5 153.5q0 105 49 153zM140 608q-32 -32 -32 -101q0 -68 32 -100t101 -32q68 0 99.5 31.5t31.5 100.5t-31.5 100.5t-99.5 31.5q-70 0 -101 -31z" />
    <glyph glyph-name="guillemotright" unicode="&#xbb;" horiz-adv-x="494" 
d="M56 44l108 226l-108 226l63 31l124 -257l-124 -257zM259 44l109 226l-109 226l63 31l124 -257l-124 -257z" />
    <glyph glyph-name="onequarter" unicode="&#xbc;" horiz-adv-x="755" 
d="M427 71v56l171 223h90v-223h58v-56h-58v-71h-59v71h-202zM148 0h-66l486 700h66zM48 567l-32 47l136 86h41v-350h-59v272zM629 303l-133 -176h133v176z" />
    <glyph glyph-name="onehalf" unicode="&#xbd;" horiz-adv-x="757" 
d="M520 246h-60q0 57 33.5 82.5t105.5 25.5t104 -25t32 -82q0 -72 -61 -91l-117 -37q-31 -12 -31 -43v-20h209v-56h-268v65q0 78 63 99l117 38q29 11 29 42q0 56 -78 56t-78 -54zM148 0h-66l486 700h66zM48 567l-32 47l136 86h41v-350h-59v272z" />
    <glyph glyph-name="threequarters" unicode="&#xbe;" horiz-adv-x="822" 
d="M494 71v56l171 223h90v-223h58v-56h-58v-71h-59v71h-202zM15 454h58q0 -53 80 -53q79 0 79 52q0 27 -20.5 38.5t-66.5 11.5h-17v52h19q43 0 61.5 11t18.5 36q0 26 -16.5 37t-55.5 11q-74 0 -74 -48h-59q0 54 31.5 78t101.5 24q69 0 100.5 -22t31.5 -72q0 -59 -46 -81
q50 -23 50 -83q0 -52 -33 -76t-105 -24q-73 0 -105.5 25.5t-32.5 82.5zM185 0h-66l486 700h66zM696 303l-133 -176h133v176z" />
    <glyph glyph-name="questiondown" unicode="&#xbf;" horiz-adv-x="573" 
d="M36 7q0 113 90 153l85 37q46 22 46 70v34h82v-44q0 -91 -79 -125l-86 -39q-31 -15 -44 -33.5t-12 -51.5q2 -117 163 -118q80 -1 122.5 30.5t59.5 102.5h82q-19 -111 -81 -160t-185 -50q-120 -1 -182 47.5t-61 146.5zM232 464q1 34 16 49t48 14q36 -1 49.5 -14t14.5 -49
q1 -63 -64 -64q-32 -1 -48 16t-16 48z" />
    <glyph glyph-name="Agrave" unicode="&#xc0;" horiz-adv-x="809" 
d="M118 0h-93l329 700h101l328 -700h-93l-74 160l-423 -1zM577 242l-172 369l-173 -369h345zM436 766l-194 116l47 60l178 -134z" />
    <glyph glyph-name="Aacute" unicode="&#xc1;" horiz-adv-x="809" 
d="M118 0h-93l329 700h101l328 -700h-93l-74 160l-423 -1zM577 242l-172 369l-173 -369h345zM567 882l-194 -116l-31 42l178 134z" />
    <glyph glyph-name="Acircumflex" unicode="&#xc2;" horiz-adv-x="809" 
d="M118 0h-93l329 700h101l328 -700h-93l-74 160l-423 -1zM577 242l-172 369l-173 -369h345zM258 756l-31 42l178 129l178 -129l-32 -42l-146 94z" />
    <glyph glyph-name="Atilde" unicode="&#xc3;" horiz-adv-x="809" 
d="M118 0h-93l329 700h101l328 -700h-93l-74 160l-423 -1zM577 242l-172 369l-173 -369h345zM297 776h-56q0 112 86 112q39 0 85 -28q47 -29 63 -29q36 0 36 52h57q0 -112 -84 -112q-39 0 -85 28t-65 28q-37 0 -37 -51z" />
    <glyph glyph-name="Adieresis" unicode="&#xc4;" horiz-adv-x="809" 
d="M118 0h-93l329 700h101l328 -700h-93l-74 160l-423 -1zM577 242l-172 369l-173 -369h345zM303 872q55 0 55 -53q0 -28 -13 -40.5t-42 -12.5q-53 0 -53 53t53 53zM452 819q0 53 53 53q54 0 54 -53q0 -28 -12.5 -40.5t-41.5 -12.5t-41 12t-12 41z" />
    <glyph glyph-name="Aring" unicode="&#xc5;" horiz-adv-x="809" 
d="M118 0h-93l329 700h101l328 -700h-93l-74 160l-423 -1zM577 242l-172 369l-173 -369h345zM324 954q25 25 81 25t81 -25t25 -82q0 -56 -25.5 -81t-80.5 -25q-56 0 -81.5 25.5t-25.5 80.5q0 56 26 82zM405 819q53 0 53 53q0 54 -53 54q-55 0 -55 -54q0 -53 55 -53z" />
    <glyph glyph-name="AE" unicode="&#xc6;" horiz-adv-x="1188" 
d="M241 159l-114 -159h-102l499 700h596v-82h-459v-229h409v-78h-409v-229h459v-82h-546v160zM574 242v385l-275 -385h275z" />
    <glyph glyph-name="Ccedilla" unicode="&#xc7;" horiz-adv-x="825" 
d="M61 350q0 188 84.5 272.5t272.5 84.5q154 0 238 -56.5t108 -178.5h-90q-24 79 -86 116t-170 37q-142 0 -206 -65.5t-64 -209.5t64 -209.5t206 -65.5q109 0 171 37t85 117h90q-22 -114 -96.5 -171t-208.5 -64l-11 -51q56 0 86.5 -23.5t30.5 -68.5q0 -42 -30 -62t-96 -20
q-70 0 -101.5 23t-31.5 73h48q0 -50 82 -50q72 0 72 43q0 30 -30 42.5t-100 12.5l18 80q-176 4 -255.5 89t-79.5 268z" />
    <glyph glyph-name="Egrave" unicode="&#xc8;" horiz-adv-x="731" 
d="M663 82v-82h-572v700h572v-82h-485v-229h435v-78h-435v-229h485zM440 808l-32 -42l-193 116l47 60z" />
    <glyph glyph-name="Eacute" unicode="&#xc9;" horiz-adv-x="731" 
d="M663 82v-82h-572v700h572v-82h-485v-229h435v-78h-435v-229h485zM539 882l-193 -116l-32 42l178 134z" />
    <glyph glyph-name="Ecircumflex" unicode="&#xca;" horiz-adv-x="731" 
d="M663 82v-82h-572v700h572v-82h-485v-229h435v-78h-435v-229h485zM230 756l-31 42l178 129l178 -129l-32 -42l-146 94z" />
    <glyph glyph-name="Edieresis" unicode="&#xcb;" horiz-adv-x="731" 
d="M663 82v-82h-572v700h572v-82h-485v-229h435v-78h-435v-229h485zM276 872q54 0 54 -53t-54 -53q-28 0 -40.5 12t-12.5 41q0 53 53 53zM424 819q0 28 12.5 40.5t41.5 12.5q53 0 53 -53t-53 -53q-29 0 -41.5 12t-12.5 41z" />
    <glyph glyph-name="Igrave" unicode="&#xcc;" horiz-adv-x="270" 
d="M178 0h-87v700h87v-700zM20 942l178 -134l-32 -42l-194 116z" />
    <glyph glyph-name="Iacute" unicode="&#xcd;" horiz-adv-x="270" 
d="M178 0h-87v700h87v-700zM104 766l-32 42l178 134l47 -60z" />
    <glyph glyph-name="Icircumflex" unicode="&#xce;" horiz-adv-x="270" 
d="M178 0h-87v700h87v-700zM135 850l-147 -94l-31 42l178 129l178 -129l-32 -42z" />
    <glyph glyph-name="Idieresis" unicode="&#xcf;" horiz-adv-x="270" 
d="M178 700v-700h-87v700h87zM-8 779q-12 12 -12 40t13 41q14 12 41 12q54 0 54 -53t-54 -53q-29 0 -42 13zM236 872q53 0 53 -53t-53 -53q-29 0 -41.5 12t-12.5 41q0 28 12.5 40.5t41.5 12.5z" />
    <glyph glyph-name="Eth" unicode="&#xd0;" horiz-adv-x="807" 
d="M99 316h-91v69h91v315h290q187 0 272 -83t85 -267t-85 -267t-272 -83h-290v316zM186 618v-233h238v-69h-238v-234h201q142 0 207 64t65 204t-65 204t-207 64h-201z" />
    <glyph glyph-name="Ntilde" unicode="&#xd1;" horiz-adv-x="849" 
d="M91 0v700h87l492 -574v574h87v-700h-87l-492 573v-573h-87zM317 776h-56q0 112 86 112q39 0 85 -28q47 -29 63 -29q36 0 36 52h57q0 -112 -84 -112q-39 0 -85 28t-65 28q-37 0 -37 -51z" />
    <glyph glyph-name="Ograve" unicode="&#xd2;" 
d="M146 78q-85 84 -85 272t85 273q84 84 272 84t273 -85t85 -272t-85 -272t-273 -85t-272 85zM212 560q-64 -65 -64 -210t64 -209q64 -66 206 -66t207 66q64 64 64 209t-64 210q-65 65 -207 65q-141 0 -206 -65zM450 766l-194 116l47 60l178 -134z" />
    <glyph glyph-name="Oacute" unicode="&#xd3;" 
d="M146 623q84 84 272 84t273 -85t85 -272t-85 -272t-273 -85t-272 85q-85 84 -85 272t85 273zM212 560q-64 -65 -64 -210t64 -209q64 -66 206 -66t207 66q64 64 64 209t-64 210q-65 65 -207 65q-141 0 -206 -65zM581 882l-194 -116l-32 42l179 134z" />
    <glyph glyph-name="Ocircumflex" unicode="&#xd4;" 
d="M146 623q84 84 272 84t273 -85t85 -272t-85 -272t-273 -85t-272 85q-85 84 -85 272t85 273zM212 141q64 -66 206 -66t207 66q64 64 64 209t-64 210q-65 65 -207 65q-141 0 -206 -65q-64 -65 -64 -210t64 -209zM272 756l-32 42l178 129l178 -129l-31 -42l-147 94z" />
    <glyph glyph-name="Otilde" unicode="&#xd5;" 
d="M146 623q84 84 272 84t273 -85t85 -272t-85 -272t-273 -85t-272 85q-85 84 -85 272t85 273zM212 560q-64 -65 -64 -210t64 -209q64 -66 206 -66t207 66q64 64 64 209t-64 210q-65 65 -207 65q-141 0 -206 -65zM311 776h-57q0 112 87 112q38 0 84 -28q47 -29 64 -29
q35 0 35 52h57q0 -112 -84 -112q-38 0 -84 28t-65 28q-37 0 -37 -51z" />
    <glyph glyph-name="Odieresis" unicode="&#xd6;" 
d="M146 623q84 84 272 84t273 -85t85 -272t-85 -272t-273 -85t-272 85q-85 84 -85 272t85 273zM212 560q-64 -65 -64 -210t64 -209q64 -66 206 -66t207 66q64 64 64 209t-64 210q-65 65 -207 65q-141 0 -206 -65zM264 819q0 53 53 53q54 0 54 -53q0 -28 -12.5 -40.5
t-41.5 -12.5t-41 12t-12 41zM466 819q0 53 53 53q54 0 54 -53t-54 -53q-29 0 -41 12t-12 41z" />
    <glyph glyph-name="multiply" unicode="&#xd7;" horiz-adv-x="670" 
d="M335 295l-189 -189l-55 55l189 189l-189 189l55 55l189 -189l189 189l55 -55l-189 -189l190 -190l-55 -55z" />
    <glyph glyph-name="Oslash" unicode="&#xd8;" 
d="M418 707q95 0 164 -21l20 34h62l-31 -55q143 -77 143 -315q0 -187 -85 -272t-273 -85q-96 0 -163 21l-20 -34h-63l32 55q-143 75 -143 315q0 188 84.5 272.5t272.5 84.5zM418 75q142 0 206.5 65.5t64.5 209.5q0 178 -101 238l-289 -498q50 -15 119 -15zM148 350
q0 -179 101 -238l289 498q-51 15 -120 15q-142 0 -206 -65.5t-64 -209.5z" />
    <glyph glyph-name="Ugrave" unicode="&#xd9;" horiz-adv-x="816" 
d="M78 301v399h88v-391q0 -123 57.5 -178.5t184.5 -55.5q128 0 185.5 55.5t57.5 178.5v391h87v-399q0 -161 -78.5 -234.5t-251.5 -73.5t-251.5 73.5t-78.5 234.5zM439 766l-193 116l47 60l178 -134z" />
    <glyph glyph-name="Uacute" unicode="&#xda;" horiz-adv-x="816" 
d="M78 301v399h88v-391q0 -123 57.5 -178.5t184.5 -55.5q128 0 185.5 55.5t57.5 178.5v391h87v-399q0 -161 -78.5 -234.5t-251.5 -73.5t-251.5 73.5t-78.5 234.5zM570 882l-193 -116l-32 42l178 134z" />
    <glyph glyph-name="Ucircumflex" unicode="&#xdb;" horiz-adv-x="816" 
d="M78 301v399h88v-391q0 -123 57.5 -178.5t184.5 -55.5q128 0 185.5 55.5t57.5 178.5v391h87v-399q0 -161 -78.5 -234.5t-251.5 -73.5t-251.5 73.5t-78.5 234.5zM262 756l-32 42l178 129l178 -129l-31 -42l-147 94z" />
    <glyph glyph-name="Udieresis" unicode="&#xdc;" horiz-adv-x="816" 
d="M78 301v399h88v-391q0 -123 57.5 -178.5t184.5 -55.5q128 0 185.5 55.5t57.5 178.5v391h87v-399q0 -161 -78.5 -234.5t-251.5 -73.5t-251.5 73.5t-78.5 234.5zM254 819q0 53 53 53q54 0 54 -53q0 -28 -12.5 -40.5t-41.5 -12.5t-41 12t-12 41zM509 766q-29 0 -41.5 12.5
t-12.5 40.5q0 53 54 53q53 0 53 -53t-53 -53z" />
    <glyph glyph-name="Yacute" unicode="&#xdd;" horiz-adv-x="779" 
d="M346 0v284l-321 416h105l260 -332l259 332h104l-320 -416v-284h-87zM552 882l-194 -116l-31 42l178 134z" />
    <glyph glyph-name="Thorn" unicode="&#xde;" horiz-adv-x="716" 
d="M178 131v-131h-87v700h87v-131h258q124 0 180.5 -52t56.5 -167t-56.5 -167t-180.5 -52h-258zM431 487h-253v-274h253q81 0 118 32.5t37 104.5t-37 104.5t-118 32.5z" />
    <glyph glyph-name="germandbls" unicode="&#xdf;" horiz-adv-x="637" 
d="M164 0h-83v544q0 112 55.5 162.5t178.5 50.5q118 0 170.5 -48t52.5 -155q0 -122 -68 -166q59 -17 86 -62.5t27 -124.5q0 -106 -49.5 -153.5t-160.5 -47.5h-119v73h116q68 0 99.5 33.5t31.5 106.5q0 72 -30.5 104t-101.5 32h-94v63h62q63 0 91 31t28 98q0 74 -33.5 106.5
t-110.5 32.5t-112.5 -32t-35.5 -103v-545z" />
    <glyph glyph-name="agrave" unicode="&#xe0;" horiz-adv-x="637" 
d="M263 -7q-105 0 -153.5 36.5t-48.5 116.5q0 83 54 119.5t176 36.5h185v7q0 77 -38.5 111.5t-124.5 34.5q-69 0 -106 -22.5t-51 -71.5h-82q15 87 72 126.5t170 39.5q128 0 185.5 -51.5t57.5 -165.5v-310h-83v77q-56 -84 -213 -84zM144 149q0 -44 33.5 -64t103.5 -20
q94 0 140 34.5t55 110.5v29h-166q-87 0 -126.5 -21.5t-39.5 -68.5zM342 601l-194 116l47 60l178 -134z" />
    <glyph glyph-name="aacute" unicode="&#xe1;" horiz-adv-x="637" 
d="M61 146q0 83 54 119.5t176 36.5h185v7q0 77 -38.5 111.5t-124.5 34.5q-69 0 -106 -22.5t-51 -71.5h-82q15 87 72 126.5t170 39.5q128 0 185.5 -51.5t57.5 -165.5v-310h-83v77q-56 -84 -213 -84q-105 0 -153.5 36.5t-48.5 116.5zM476 239h-166q-87 0 -126.5 -21.5
t-39.5 -68.5q0 -44 33.5 -64t103.5 -20q94 0 140 34.5t55 110.5v29zM473 717l-194 -116l-31 42l178 134z" />
    <glyph glyph-name="acircumflex" unicode="&#xe2;" horiz-adv-x="637" 
d="M263 -7q-105 0 -153.5 36.5t-48.5 116.5q0 83 54 119.5t176 36.5h185v7q0 77 -38.5 111.5t-124.5 34.5q-69 0 -106 -22.5t-51 -71.5h-82q15 87 72 126.5t170 39.5q128 0 185.5 -51.5t57.5 -165.5v-310h-83v77q-56 -84 -213 -84zM476 239h-166q-87 0 -126.5 -21.5
t-39.5 -68.5q0 -44 33.5 -64t103.5 -20q94 0 140 34.5t55 110.5v29zM164 591l-32 42l179 130l178 -130l-32 -42l-146 94z" />
    <glyph glyph-name="atilde" unicode="&#xe3;" horiz-adv-x="637" 
d="M61 146q0 83 54 119.5t176 36.5h185v7q0 77 -38.5 111.5t-124.5 34.5q-69 0 -106 -22.5t-51 -71.5h-82q15 87 72 126.5t170 39.5q128 0 185.5 -51.5t57.5 -165.5v-310h-83v77q-56 -84 -213 -84q-105 0 -153.5 36.5t-48.5 116.5zM476 239h-166q-87 0 -126.5 -21.5
t-39.5 -68.5q0 -44 33.5 -64t103.5 -20q94 0 140 34.5t55 110.5v29zM203 611h-57q0 112 87 112q38 0 84 -28q47 -29 64 -29q36 0 36 52h57q0 -112 -85 -112q-38 0 -84 28t-65 28q-37 0 -37 -51z" />
    <glyph glyph-name="adieresis" unicode="&#xe4;" horiz-adv-x="637" 
d="M61 146q0 83 54 119.5t176 36.5h185v7q0 77 -38.5 111.5t-124.5 34.5q-69 0 -106 -22.5t-51 -71.5h-82q15 87 72 126.5t170 39.5q128 0 185.5 -51.5t57.5 -165.5v-310h-83v77q-56 -84 -213 -84q-105 0 -153.5 36.5t-48.5 116.5zM476 239h-166q-87 0 -126.5 -21.5
t-39.5 -68.5q0 -44 33.5 -64t103.5 -20q94 0 140 34.5t55 110.5v29zM251 614q-13 -13 -42 -13t-41 13q-12 12 -12 40q0 53 53 53q55 0 55 -53q0 -28 -13 -40zM453 614q-13 -13 -42 -13t-41 13q-12 12 -12 40t13 41q12 12 40 12q27 0 41 -12q13 -13 13 -41t-12 -40z" />
    <glyph glyph-name="aring" unicode="&#xe5;" horiz-adv-x="637" 
d="M61 146q0 83 54 119.5t176 36.5h185v7q0 77 -38.5 111.5t-124.5 34.5q-69 0 -106 -22.5t-51 -71.5h-82q15 87 72 126.5t170 39.5q128 0 185.5 -51.5t57.5 -165.5v-310h-83v77q-56 -84 -213 -84q-105 0 -153.5 36.5t-48.5 116.5zM476 239h-166q-87 0 -126.5 -21.5
t-39.5 -68.5q0 -44 33.5 -64t103.5 -20q94 0 140 34.5t55 110.5v29zM392 627q-26 -26 -81 -26t-81 26t-26 81t25.5 80.5t81.5 25.5q55 0 80.5 -25t25.5 -81t-25 -81zM311 761q-55 0 -55 -53q0 -54 55 -54q53 0 53 54q0 53 -53 53z" />
    <glyph glyph-name="ae" unicode="&#xe6;" horiz-adv-x="1051" 
d="M263 -7q-105 0 -153.5 36.5t-48.5 116.5q0 83 54 119.5t176 36.5h188q3 79 -36.5 116t-129.5 37q-69 0 -106 -22.5t-51 -71.5h-82q15 87 72 126.5t170 39.5q165 0 209 -96q53 96 214 96q138 0 200 -63t62 -202q0 -4 -0.5 -14t-0.5 -12h-440q5 -89 48.5 -130t132.5 -41
q128 0 163 89h85q-20 -87 -81.5 -124t-166.5 -37q-101 0 -159 32.5t-82 102.5q-22 -70 -79.5 -102.5t-157.5 -32.5zM479 239h-169q-87 0 -126.5 -21.5t-39.5 -68.5q0 -44 33 -64t105 -20q100 0 146.5 40.5t50.5 133.5zM561 299h357q-7 82 -49.5 119t-127.5 37
q-86 0 -129.5 -37t-50.5 -119z" />
    <glyph glyph-name="ccedilla" unicode="&#xe7;" horiz-adv-x="610" 
d="M51 260q0 140 61.5 203.5t197.5 63.5q116 0 176.5 -45.5t75.5 -145.5h-82q-14 59 -54.5 86.5t-114.5 27.5q-94 0 -136 -45t-42 -145q0 -99 42.5 -144.5t135.5 -45.5q74 0 114.5 27.5t54.5 86.5h82q-14 -94 -68 -140t-157 -51l-10 -50q116 0 116 -92q0 -42 -30 -62
t-96 -20q-69 0 -101 23t-32 73h48q0 -50 82 -50q72 0 72 43q0 30 -29.5 42.5t-100.5 12.5l19 81q-118 7 -171 70.5t-53 195.5z" />
    <glyph glyph-name="egrave" unicode="&#xe8;" horiz-adv-x="626" 
d="M315 -7q-139 0 -201.5 63.5t-62.5 203.5t63 204q62 63 201 63t200 -63q60 -64 60 -204v-24h-440q5 -89 48.5 -130t132.5 -41q128 0 163 89h85q-20 -87 -82 -124t-167 -37zM316 455q-86 0 -129.5 -37t-50.5 -119h357q-7 82 -49.5 119t-127.5 37zM377 643l-32 -42l-194 116
l47 60z" />
    <glyph glyph-name="eacute" unicode="&#xe9;" horiz-adv-x="626" 
d="M114 57q-63 63 -63 203t63 204q62 63 201 63q138 0 199 -63t61 -204v-24h-440q5 -89 48.5 -130t132.5 -41q128 0 163 89h85q-20 -87 -82 -124t-167 -37q-140 0 -201 64zM136 299h357q-7 82 -49.5 119t-127.5 37q-86 0 -129.5 -37t-50.5 -119zM476 717l-194 -116l-31 42
l178 134z" />
    <glyph glyph-name="ecircumflex" unicode="&#xea;" horiz-adv-x="626" 
d="M114 57q-63 63 -63 203t63 204q62 63 201 63q138 0 199 -63t61 -204v-24h-440q5 -89 48.5 -130t132.5 -41q128 0 163 89h85q-20 -87 -82 -124t-167 -37q-140 0 -201 64zM136 299h357q-7 82 -49.5 119t-127.5 37q-86 0 -129.5 -37t-50.5 -119zM167 591l-31 42l178 130
l178 -130l-32 -42l-146 94z" />
    <glyph glyph-name="edieresis" unicode="&#xeb;" horiz-adv-x="626" 
d="M114 57q-63 63 -63 203t63 204q62 63 201 63q138 0 199 -63t61 -204v-24h-440q5 -89 48.5 -130t132.5 -41q128 0 163 89h85q-20 -87 -82 -124t-167 -37q-140 0 -201 64zM316 455q-86 0 -129.5 -37t-50.5 -119h357q-7 82 -49.5 119t-127.5 37zM159 654q0 53 53 53
q55 0 55 -53q0 -28 -13 -40.5t-42 -12.5q-53 0 -53 53zM374 614q-13 12 -13 40t13 41q12 12 40 12t41 -12q13 -13 13 -41t-12 -40q-13 -13 -42 -13q-28 0 -40 13z" />
    <glyph glyph-name="igrave" unicode="&#xec;" horiz-adv-x="232" 
d="M157 0h-82v520h82v-520zM1 777l178 -134l-32 -42l-193 116z" />
    <glyph glyph-name="iacute" unicode="&#xed;" horiz-adv-x="232" 
d="M157 0h-82v520h82v-520zM85 601l-32 42l178 134l48 -60z" />
    <glyph glyph-name="icircumflex" unicode="&#xee;" horiz-adv-x="232" 
d="M157 0h-82v520h82v-520zM116 685l-135 -94l-32 42l167 130l167 -130l-31 -42z" />
    <glyph glyph-name="idieresis" unicode="&#xef;" horiz-adv-x="232" 
d="M157 520v-520h-82v520h82zM-11 614q-12 12 -12 40t12 41q13 12 41 12q55 0 55 -53q0 -28 -13 -40.5t-42 -12.5q-28 0 -41 13zM148 654q0 28 12.5 40.5t41.5 12.5q53 0 53 -53t-53 -53q-29 0 -41.5 12t-12.5 41z" />
    <glyph glyph-name="eth" unicode="&#xf0;" horiz-adv-x="641" 
d="M51 262q0 139 60.5 202t195.5 63q91 0 137.5 -34.5t56.5 -109.5q1 38 -2 90q-4 105 -49 150q-42 42 -140 50l-19 2l-72 -100l-44 24l57 80l-133 10v68l179 -13l69 94l44 -24l-54 -75q141 -15 195 -97t54 -267q0 -282 -120 -350q-59 -32 -154 -32q-137 0 -199 64t-62 205z
M176 116q42 -46 136 -46t136 46q42 45 42 145t-42 145q-42 44 -136 44t-136 -44q-43 -44 -43 -145t43 -145z" />
    <glyph glyph-name="ntilde" unicode="&#xf1;" horiz-adv-x="661" 
d="M164 0h-83v520h83v-80q52 87 198 87q115 0 168 -54t53 -173v-300h-83v300q0 78 -38.5 114t-121.5 36q-94 0 -135 -44.5t-41 -145.5v-260zM224 611h-56q0 112 87 112q38 0 84 -28q47 -29 64 -29q35 0 35 52h57q0 -112 -84 -112q-39 0 -85 28t-64 28q-38 0 -38 -51z" />
    <glyph glyph-name="ograve" unicode="&#xf2;" horiz-adv-x="631" 
d="M114 57q-63 63 -63 203t63 204q63 63 202 63t202 -63q62 -65 62 -204t-62 -203q-63 -64 -202 -64t-202 64zM133 260q0 -99 43.5 -144.5t139.5 -45.5q95 0 138.5 45.5t43.5 144.5q0 100 -43 145t-139 45t-139.5 -45t-43.5 -145zM347 601l-194 116l47 60l179 -134z" />
    <glyph glyph-name="oacute" unicode="&#xf3;" horiz-adv-x="631" 
d="M114 464q63 63 202 63t202 -63q62 -65 62 -204t-62 -203q-63 -64 -202 -64t-202 64q-63 63 -63 203t63 204zM133 260q0 -99 43.5 -144.5t139.5 -45.5q95 0 138.5 45.5t43.5 144.5q0 100 -43 145t-139 45t-139.5 -45t-43.5 -145zM478 717l-194 -116l-31 42l178 134z" />
    <glyph glyph-name="ocircumflex" unicode="&#xf4;" horiz-adv-x="631" 
d="M114 464q63 63 202 63t202 -63q62 -65 62 -204t-62 -203q-63 -64 -202 -64t-202 64q-63 63 -63 203t63 204zM316 70q95 0 138.5 45.5t43.5 144.5q0 100 -43 145t-139 45t-139.5 -45t-43.5 -145q0 -99 43.5 -144.5t139.5 -45.5zM169 591l-31 42l178 130l178 -130l-32 -42
l-146 94z" />
    <glyph glyph-name="otilde" unicode="&#xf5;" horiz-adv-x="631" 
d="M114 464q63 63 202 63t202 -63q62 -65 62 -204t-62 -203q-63 -64 -202 -64t-202 64q-63 63 -63 203t63 204zM133 260q0 -99 43.5 -144.5t139.5 -45.5q95 0 138.5 45.5t43.5 144.5q0 100 -43 145t-139 45t-139.5 -45t-43.5 -145zM208 611h-56q0 112 86 112q39 0 85 -28
q47 -29 63 -29q36 0 36 52h57q0 -112 -84 -112q-39 0 -85 28t-65 28q-37 0 -37 -51z" />
    <glyph glyph-name="odieresis" unicode="&#xf6;" horiz-adv-x="631" 
d="M114 464q63 63 202 63t202 -63q62 -65 62 -204t-62 -203q-63 -64 -202 -64t-202 64q-63 63 -63 203t63 204zM133 260q0 -99 43.5 -144.5t139.5 -45.5q95 0 138.5 45.5t43.5 144.5q0 100 -43 145t-139 45t-139.5 -45t-43.5 -145zM161 654q0 53 53 53q55 0 55 -53
q0 -28 -13 -40.5t-42 -12.5q-53 0 -53 53zM376 614q-13 12 -13 40t13 41q12 12 40 12q27 0 41 -12q13 -13 13 -41t-12 -40q-13 -13 -42 -13q-28 0 -40 13z" />
    <glyph glyph-name="divide" unicode="&#xf7;" horiz-adv-x="670" 
d="M600 389v-78h-530v78h530zM276 580q0 59 59 59t59 -59t-59 -59q-31 0 -45 13.5t-14 45.5zM335 179q59 0 59 -59t-59 -59q-31 0 -45 13.5t-14 45.5q0 59 59 59z" />
    <glyph glyph-name="oslash" unicode="&#xf8;" horiz-adv-x="631" 
d="M51 260q0 140 63 203.5t202 63.5q72 0 120 -16l15 26h50l-24 -43q103 -57 103 -234q0 -140 -62.5 -203.5t-201.5 -63.5q-73 0 -120 16l-16 -29h-51l27 45q-105 55 -105 235zM316 450q-96 0 -139.5 -45t-43.5 -145q0 -120 66 -160l195 339q-36 11 -78 11zM434 419
l-196 -338q36 -11 78 -11q95 0 138.5 45.5t43.5 144.5q0 119 -64 159z" />
    <glyph glyph-name="ugrave" unicode="&#xf9;" horiz-adv-x="657" 
d="M298 -7q-114 0 -166.5 53.5t-52.5 173.5v300h82v-300q0 -78 38.5 -114t120.5 -36q92 0 132.5 44.5t40.5 145.5v260h83v-520h-83v79q-53 -86 -195 -86zM359 601l-194 116l47 60l178 -134z" />
    <glyph glyph-name="uacute" unicode="&#xfa;" horiz-adv-x="657" 
d="M79 220v300h82v-300q0 -78 38.5 -114t120.5 -36q92 0 132.5 44.5t40.5 145.5v260h83v-520h-83v79q-53 -86 -195 -86q-114 0 -166.5 53.5t-52.5 173.5zM490 717l-194 -116l-31 42l178 134z" />
    <glyph glyph-name="ucircumflex" unicode="&#xfb;" horiz-adv-x="657" 
d="M79 220v300h82v-300q0 -78 38.5 -114t120.5 -36q92 0 132.5 44.5t40.5 145.5v260h83v-520h-83v79q-53 -86 -195 -86q-114 0 -166.5 53.5t-52.5 173.5zM327 685l-146 -94l-32 42l178 130l179 -130l-32 -42z" />
    <glyph glyph-name="udieresis" unicode="&#xfc;" horiz-adv-x="657" 
d="M79 220v300h82v-300q0 -78 38.5 -114t120.5 -36q92 0 132.5 44.5t40.5 145.5v260h83v-520h-83v79q-53 -86 -195 -86q-114 0 -166.5 53.5t-52.5 173.5zM226 601q-53 0 -53 53t53 53q55 0 55 -53q0 -28 -13 -40.5t-42 -12.5zM388 614q-13 12 -13 40t13 41q12 12 40 12
q54 0 54 -53t-54 -53q-28 0 -40 13z" />
    <glyph glyph-name="yacute" unicode="&#xfd;" horiz-adv-x="577" 
d="M244 0l-221 520h88l177 -413l178 413h88l-327 -770h-89zM451 717l-193 -116l-32 42l178 134z" />
    <glyph glyph-name="thorn" unicode="&#xfe;" horiz-adv-x="659" 
d="M164 -250h-83v1000h83v-312q53 89 203 89q127 0 184 -63.5t57 -203.5t-57 -203.5t-184 -63.5q-149 0 -203 89v-332zM209 115q42 -45 137 -45q94 0 138 45q42 45 42 145q0 99 -43 144.5t-137 45.5t-137 -45.5t-43 -144.5q0 -101 43 -145z" />
    <glyph glyph-name="ydieresis" unicode="&#xff;" horiz-adv-x="577" 
d="M138 -250l106 250l-221 520h88l177 -413l178 413h88l-327 -770h-89zM188 707q54 0 54 -53t-54 -53q-28 0 -40 13q-13 12 -13 40t13 41q12 12 40 12zM390 707q53 0 53 -53t-53 -53q-29 0 -41.5 12t-12.5 41q0 28 12.5 40.5t41.5 12.5z" />
    <glyph glyph-name="Amacron" unicode="&#x100;" horiz-adv-x="809" 
d="M118 0h-93l329 700h101l328 -700h-93l-74 160l-423 -1zM577 242l-172 369l-173 -369h345zM562 776h-313v68h313v-68z" />
    <glyph glyph-name="amacron" unicode="&#x101;" horiz-adv-x="637" 
d="M263 -7q-105 0 -153.5 36.5t-48.5 116.5q0 83 54 119.5t176 36.5h185v7q0 77 -38.5 111.5t-124.5 34.5q-69 0 -106 -22.5t-51 -71.5h-82q15 87 72 126.5t170 39.5q128 0 185.5 -51.5t57.5 -165.5v-310h-83v77q-56 -84 -213 -84zM476 239h-166q-87 0 -126.5 -21.5
t-39.5 -68.5q0 -44 33.5 -64t103.5 -20q94 0 140 34.5t55 110.5v29zM154 611v68h314v-68h-314z" />
    <glyph glyph-name="Abreve" unicode="&#x102;" horiz-adv-x="809" 
d="M118 0h-93l329 700h101l328 -700h-93l-74 160l-423 -1zM577 242l-172 369l-173 -369h345zM241 917h68q0 -49 22.5 -71t73.5 -22q50 0 73 22t23 71h68q0 -77 -39.5 -114t-124.5 -37t-124.5 37t-39.5 114z" />
    <glyph glyph-name="abreve" unicode="&#x103;" horiz-adv-x="637" 
d="M263 -7q-105 0 -153.5 36.5t-48.5 116.5q0 83 54 119.5t176 36.5h185v7q0 77 -38.5 111.5t-124.5 34.5q-69 0 -106 -22.5t-51 -71.5h-82q15 87 72 126.5t170 39.5q128 0 185.5 -51.5t57.5 -165.5v-310h-83v77q-56 -84 -213 -84zM144 149q0 -44 33.5 -64t103.5 -20
q94 0 140 34.5t55 110.5v29h-166q-87 0 -126.5 -21.5t-39.5 -68.5zM311 601q-86 0 -125 37t-39 115h67q0 -49 23 -71.5t74 -22.5q50 0 73 22.5t23 71.5h67q0 -78 -39.5 -115t-123.5 -37z" />
    <glyph glyph-name="Aogonek" unicode="&#x104;" horiz-adv-x="809" 
d="M118 0h-93l329 700h101l328 -700h-20q-19 -19 -35 -49q-14 -26 -14 -49q0 -39 36 -39q30 0 50 18l7 6l18 -35q-16 -16 -45 -29q-27 -11 -52 -11q-69 0 -69 71q0 30 12.5 59t27.5 44l13 14h-22l-74 160l-423 -1zM577 242l-172 369l-173 -369h345z" />
    <glyph glyph-name="aogonek" unicode="&#x105;" horiz-adv-x="637" 
d="M263 -7q-105 0 -153.5 36.5t-48.5 116.5q0 83 54 119.5t176 36.5h185v7q0 77 -38.5 111.5t-124.5 34.5q-69 0 -106 -22.5t-51 -71.5h-82q15 87 72 126.5t170 39.5q128 0 185.5 -51.5t57.5 -165.5v-310h-16q-19 -19 -35 -49q-14 -26 -14 -49q0 -39 36 -39q30 0 50 18l7 6
l18 -35q-16 -16 -45 -29q-27 -11 -51 -11q-70 0 -70 71q0 30 12.5 59t27.5 44l13 14h-16v77q-56 -84 -213 -84zM476 239h-166q-87 0 -126.5 -21.5t-39.5 -68.5q0 -44 33.5 -64t103.5 -20q94 0 140 34.5t55 110.5v29z" />
    <glyph glyph-name="Cacute" unicode="&#x106;" horiz-adv-x="825" 
d="M146 78q-85 84 -85 272t85 273q84 84 272 84q154 0 238 -56.5t108 -178.5h-90q-24 79 -86 116t-170 37q-142 0 -206 -65.5t-64 -209.5t64 -209.5t206 -65.5q109 0 171 37t85 117h90q-24 -122 -108 -179t-238 -57q-188 0 -272 85zM586 882l-194 -116l-31 42l178 134z" />
    <glyph glyph-name="cacute" unicode="&#x107;" horiz-adv-x="610" 
d="M113 57q-62 64 -62 203t62 204q61 63 197 63q116 0 176.5 -45.5t75.5 -145.5h-82q-14 59 -54.5 86.5t-114.5 27.5q-94 0 -136 -45t-42 -145q0 -99 42.5 -144.5t135.5 -45.5q74 0 114.5 27.5t54.5 86.5h82q-15 -100 -75.5 -145.5t-176.5 -45.5q-136 0 -197 64zM469 717
l-194 -116l-31 42l178 134z" />
    <glyph glyph-name="Ccircumflex" unicode="&#x108;" horiz-adv-x="825" 
d="M146 78q-85 84 -85 272t85 273q84 84 272 84q154 0 238 -56.5t108 -178.5h-90q-24 79 -86 116t-170 37q-142 0 -206 -65.5t-64 -209.5t64 -209.5t206 -65.5q109 0 171 37t85 117h90q-24 -122 -108 -179t-238 -57q-188 0 -272 85zM277 756l-32 42l179 129l178 -129
l-32 -42l-146 94z" />
    <glyph glyph-name="ccircumflex" unicode="&#x109;" horiz-adv-x="610" 
d="M310 -7q-136 0 -197.5 63.5t-61.5 203.5t61.5 203.5t197.5 63.5q116 0 176.5 -45.5t75.5 -145.5h-82q-14 59 -54.5 86.5t-114.5 27.5q-94 0 -136 -45t-42 -145q0 -99 42.5 -144.5t135.5 -45.5q74 0 114.5 27.5t54.5 86.5h82q-15 -100 -75.5 -145.5t-176.5 -45.5zM160 591
l-31 42l178 130l178 -130l-32 -42l-146 94z" />
    <glyph glyph-name="Cdotaccent" unicode="&#x10a;" horiz-adv-x="825" 
d="M146 78q-85 84 -85 272t85 273q84 84 272 84q154 0 238 -56.5t108 -178.5h-90q-24 79 -86 116t-170 37q-142 0 -206 -65.5t-64 -209.5t64 -209.5t206 -65.5q109 0 171 37t85 117h90q-24 -122 -108 -179t-238 -57q-188 0 -272 85zM379 779q-14 14 -14 44q0 31 14 45t44 14
q31 0 45 -14q13 -13 13 -45q0 -31 -13 -44t-45 -13q-31 0 -44 13z" />
    <glyph glyph-name="cdotaccent" unicode="&#x10b;" horiz-adv-x="610" 
d="M113 57q-62 64 -62 203t62 204q61 63 197 63q116 0 176.5 -45.5t75.5 -145.5h-82q-14 59 -54.5 86.5t-114.5 27.5q-94 0 -136 -45t-42 -145q0 -99 42.5 -144.5t135.5 -45.5q74 0 114.5 27.5t54.5 86.5h82q-15 -100 -75.5 -145.5t-176.5 -45.5q-136 0 -197 64zM248 659
q0 30 13.5 44t44.5 14t44.5 -14t13.5 -44q0 -31 -13.5 -44.5t-44.5 -13.5t-44.5 13.5t-13.5 44.5z" />
    <glyph glyph-name="Ccaron" unicode="&#x10c;" horiz-adv-x="825" 
d="M146 78q-85 84 -85 272t85 273q84 84 272 84q154 0 238 -56.5t108 -178.5h-90q-24 79 -86 116t-170 37q-142 0 -206 -65.5t-64 -209.5t64 -209.5t206 -65.5q109 0 171 37t85 117h90q-24 -122 -108 -179t-238 -57q-188 0 -272 85zM424 756l-179 129l32 42l147 -94l146 94
l32 -42z" />
    <glyph glyph-name="ccaron" unicode="&#x10d;" horiz-adv-x="610" 
d="M310 -7q-136 0 -197.5 63.5t-61.5 203.5t61.5 203.5t197.5 63.5q116 0 176.5 -45.5t75.5 -145.5h-82q-14 59 -54.5 86.5t-114.5 27.5q-94 0 -136 -45t-42 -145q0 -99 42.5 -144.5t135.5 -45.5q74 0 114.5 27.5t54.5 86.5h82q-15 -100 -75.5 -145.5t-176.5 -45.5zM307 591
l-178 129l31 43l147 -94l146 94l32 -43z" />
    <glyph glyph-name="Dcaron" unicode="&#x10e;" horiz-adv-x="800" 
d="M381 0h-290v700h290q188 0 273 -83t85 -267t-85 -267t-273 -83zM379 618h-201v-536h201q143 0 208 64t65 204t-65 204t-208 64zM320 756l-178 129l31 42l147 -94l146 94l32 -42z" />
    <glyph glyph-name="dcaron" unicode="&#x10f;" horiz-adv-x="758" 
d="M109 57q-58 62 -58 203q0 140 58 204q57 63 184 63q147 0 203 -89v312h82v-750h-82l-1 82q-53 -89 -202 -89q-127 0 -184 64zM314 70q94 0 137 45.5t43 144.5q0 100 -43 145t-137 45q-95 0 -138 -45t-43 -145q0 -99 43 -144.5t138 -45.5zM640 495v35q38 0 55 27.5
t17 88.5v2q-34 0 -48.5 11.5t-14.5 42.5q0 29 13 42t42 13t42 -13t13 -42v-48q0 -83 -28.5 -121t-90.5 -38z" />
    <glyph glyph-name="Dcroat" unicode="&#x110;" horiz-adv-x="807" 
d="M99 316h-91v69h91v315h290q187 0 272 -83t85 -267t-85 -267t-272 -83h-290v316zM186 618v-233h238v-69h-238v-234h201q142 0 207 64t65 204t-65 204t-207 64h-201z" />
    <glyph glyph-name="dslash" unicode="&#x111;" horiz-adv-x="666" 
d="M109 57q-58 62 -58 203q0 140 58 204q57 63 184 63q147 0 203 -89v168h-232v64h232v80h82v-80h75v-64h-75v-606h-82l-1 82q-53 -89 -202 -89q-127 0 -184 64zM314 70q94 0 137 45.5t43 144.5q0 100 -43 145t-137 45q-95 0 -138 -45t-43 -145q0 -99 43 -144.5t138 -45.5z
" />
    <glyph glyph-name="Emacron" unicode="&#x112;" horiz-adv-x="731" 
d="M663 82v-82h-572v700h572v-82h-485v-229h435v-78h-435v-229h485zM534 844v-68h-313v68h313z" />
    <glyph glyph-name="emacron" unicode="&#x113;" horiz-adv-x="626" 
d="M315 -7q-139 0 -201.5 63.5t-62.5 203.5t63 204q62 63 201 63t200 -63q60 -64 60 -204v-24h-440q5 -89 48.5 -130t132.5 -41q128 0 163 89h85q-20 -87 -82 -124t-167 -37zM136 299h357q-7 82 -49.5 119t-127.5 37q-86 0 -129.5 -37t-50.5 -119zM158 611v68h313v-68h-313z
" />
    <glyph glyph-name="Ebreve" unicode="&#x114;" horiz-adv-x="731" 
d="M663 0h-572v700h572v-82h-485v-229h435v-78h-435v-229h485v-82zM213 917h68q0 -49 23 -71t73 -22q51 0 73.5 22t22.5 71h68q0 -78 -39 -114.5t-125 -36.5q-85 0 -124.5 37t-39.5 114z" />
    <glyph glyph-name="ebreve" unicode="&#x115;" horiz-adv-x="626" 
d="M114 57q-63 63 -63 203t63 204q62 63 201 63q138 0 199 -63t61 -204v-24h-440q5 -89 48.5 -130t132.5 -41q128 0 163 89h85q-20 -87 -82 -124t-167 -37q-140 0 -201 64zM316 455q-86 0 -129.5 -37t-50.5 -119h357q-7 82 -49.5 119t-127.5 37zM439 638q-38 -37 -125 -37
t-125 37q-39 38 -39 115h68q0 -49 22.5 -71.5t73.5 -22.5q50 0 73 22.5t23 71.5h68q0 -77 -39 -115z" />
    <glyph glyph-name="Edotaccent" unicode="&#x116;" horiz-adv-x="731" 
d="M663 82v-82h-572v700h572v-82h-485v-229h435v-78h-435v-229h485zM332 779q-13 13 -13 44t14 45t43 14q59 0 59 -59q0 -30 -14 -43.5t-45 -13.5t-44 13z" />
    <glyph glyph-name="edotaccent" unicode="&#x117;" horiz-adv-x="626" 
d="M114 57q-63 63 -63 203t63 204q62 63 201 63q138 0 199 -63t61 -204v-24h-440q5 -89 48.5 -130t132.5 -41q128 0 163 89h85q-20 -87 -82 -124t-167 -37q-140 0 -201 64zM316 455q-86 0 -129.5 -37t-50.5 -119h357q-7 82 -49.5 119t-127.5 37zM255 659q0 30 13.5 44
t44.5 14t44.5 -14t13.5 -44q0 -31 -13.5 -44.5t-44.5 -13.5t-44.5 13.5t-13.5 44.5z" />
    <glyph glyph-name="Eogonek" unicode="&#x118;" horiz-adv-x="731" 
d="M541 -14l13 14h-463v700h572v-82h-485v-229h435v-78h-435v-229h485v-82h-58q-19 -19 -35 -49q-14 -26 -14 -49q0 -39 36 -39q30 0 50 18l7 6l18 -35q-16 -16 -45 -29q-27 -11 -52 -11q-69 0 -69 71q0 30 12.5 59t27.5 44z" />
    <glyph glyph-name="eogonek" unicode="&#x119;" horiz-adv-x="626" 
d="M51 260q0 140 62.5 203.5t201.5 63.5q138 0 199 -63t61 -204v-24h-440q5 -89 48.5 -130t132.5 -41q128 0 163 89h85q-35 -146 -202 -159q-43 -46 -43 -93q0 -39 35 -39q30 0 50 18l7 6l18 -35q-16 -16 -45 -29q-27 -11 -51 -11q-70 0 -70 71q0 61 46 110
q-135 1 -196.5 65t-61.5 202zM316 455q-86 0 -129.5 -37t-50.5 -119h357q-7 82 -49.5 119t-127.5 37z" />
    <glyph glyph-name="Ecaron" unicode="&#x11a;" horiz-adv-x="731" 
d="M663 82v-82h-572v700h572v-82h-485v-229h435v-78h-435v-229h485zM377 756l-178 129l31 42l147 -94l146 94l32 -42z" />
    <glyph glyph-name="ecaron" unicode="&#x11b;" horiz-adv-x="626" 
d="M114 57q-63 63 -63 203t63 204q62 63 201 63q138 0 199 -63t61 -204v-24h-440q5 -89 48.5 -130t132.5 -41q128 0 163 89h85q-20 -87 -82 -124t-167 -37q-140 0 -201 64zM136 299h357q-7 82 -49.5 119t-127.5 37q-86 0 -129.5 -37t-50.5 -119zM314 591l-178 129l31 43
l147 -94l146 94l32 -43z" />
    <glyph glyph-name="Gcircumflex" unicode="&#x11c;" horiz-adv-x="829" 
d="M61 351q0 187 85 271.5t272 84.5q151 0 234 -53.5t109 -169.5h-91q-50 141 -252 141q-142 0 -206 -65.5t-64 -209.5q0 -146 67.5 -210.5t221.5 -64.5q123 0 180 39.5t57 125.5v50h-260v77h349v-127q0 -129 -78.5 -188t-248.5 -59q-201 0 -287 85q-88 84 -88 273zM269 756
l-32 42l178 129l178 -129l-31 -42l-147 94z" />
    <glyph glyph-name="gcircumflex" unicode="&#x11d;" horiz-adv-x="659" 
d="M293 527q147 0 203 -89v82h82v-519q0 -136 -61.5 -197t-196.5 -61q-116 0 -176 42t-74 134h82q14 -51 54 -75t112 -24q93 0 135.5 43.5t42.5 139.5v79q-56 -89 -203 -89q-127 0 -184.5 63.5t-57.5 203.5t57.5 203.5t184.5 63.5zM133 260q0 -100 43 -145t138 -45
q94 0 137 45t43 145q0 99 -43 144.5t-137 45.5q-95 0 -138 -45.5t-43 -144.5zM163 591l-31 42l178 130l178 -130l-32 -42l-146 94z" />
    <glyph glyph-name="Gbreve" unicode="&#x11e;" horiz-adv-x="829" 
d="M61 351q0 187 85 271.5t272 84.5q151 0 234 -53.5t109 -169.5h-91q-50 141 -252 141q-142 0 -206 -65.5t-64 -209.5q0 -146 67.5 -210.5t221.5 -64.5q123 0 180 39.5t57 125.5v50h-260v77h349v-127q0 -129 -78.5 -188t-248.5 -59q-201 0 -287 85q-88 84 -88 273zM415 766
q-85 0 -124.5 37t-39.5 114h68q0 -49 23 -71t73 -22q51 0 73.5 22t22.5 71h68q0 -78 -39 -114.5t-125 -36.5z" />
    <glyph glyph-name="gbreve" unicode="&#x11f;" horiz-adv-x="659" 
d="M293 527q147 0 203 -89v82h82v-519q0 -136 -61.5 -197t-196.5 -61q-116 0 -176 42t-74 134h82q14 -51 54 -75t112 -24q93 0 135.5 43.5t42.5 139.5v79q-56 -89 -203 -89q-127 0 -184.5 63.5t-57.5 203.5t57.5 203.5t184.5 63.5zM314 70q94 0 137 45t43 145
q0 99 -43 144.5t-137 45.5q-95 0 -138 -45.5t-43 -144.5q0 -100 43 -145t138 -45zM146 753h68q0 -49 23 -71.5t73 -22.5q51 0 73.5 22.5t22.5 71.5h68q0 -78 -39 -115t-125 -37q-85 0 -124.5 37t-39.5 115z" />
    <glyph glyph-name="Gdotaccent" unicode="&#x120;" horiz-adv-x="829" 
d="M436 -7q-201 0 -287 85q-88 84 -88 273q0 187 85 271.5t272 84.5q151 0 234 -53.5t109 -169.5h-91q-50 141 -252 141q-142 0 -206 -65.5t-64 -209.5q0 -146 67.5 -210.5t221.5 -64.5q123 0 180 39.5t57 125.5v50h-260v77h349v-127q0 -129 -78.5 -188t-248.5 -59zM415 766
q-31 0 -44.5 13t-13.5 44t13.5 45t44.5 14q58 0 58 -59q0 -57 -58 -57z" />
    <glyph glyph-name="gdotaccent" unicode="&#x121;" horiz-adv-x="659" 
d="M293 527q147 0 203 -89v82h82v-519q0 -136 -61.5 -197t-196.5 -61q-116 0 -176 42t-74 134h82q14 -51 54 -75t112 -24q93 0 135.5 43.5t42.5 139.5v79q-56 -89 -203 -89q-127 0 -184.5 63.5t-57.5 203.5t57.5 203.5t184.5 63.5zM314 70q94 0 137 45t43 145
q0 99 -43 144.5t-137 45.5q-95 0 -138 -45.5t-43 -144.5q0 -100 43 -145t138 -45zM251 659q0 30 13.5 44t44.5 14q59 0 59 -58q0 -31 -14 -44.5t-45 -13.5t-44.5 13.5t-13.5 44.5z" />
    <glyph glyph-name="uni0122" unicode="&#x122;" horiz-adv-x="829" 
d="M61 351q0 187 85 271.5t272 84.5q151 0 234 -53.5t109 -169.5h-91q-50 141 -252 141q-142 0 -206 -65.5t-64 -209.5q0 -146 67.5 -210.5t221.5 -64.5q123 0 180 39.5t57 125.5v50h-260v77h349v-127q0 -129 -78.5 -188t-248.5 -59q-201 0 -287 85q-88 84 -88 273z
M487 -113v-43q0 -74 -25 -108t-80 -34v30q34 0 49.5 25t15.5 81v2q-30 0 -42.5 10t-12.5 37q0 48 47 48q48 0 48 -48z" />
    <glyph glyph-name="uni0123" unicode="&#x123;" horiz-adv-x="659" 
d="M293 527q147 0 203 -89v82h82v-519q0 -136 -61.5 -197t-196.5 -61q-116 0 -176 42t-74 134h82q14 -51 54 -75t112 -24q93 0 135.5 43.5t42.5 139.5v79q-56 -89 -203 -89q-127 0 -184.5 63.5t-57.5 203.5t57.5 203.5t184.5 63.5zM314 70q94 0 137 45t43 145
q0 99 -43 144.5t-137 45.5q-95 0 -138 -45.5t-43 -144.5q0 -100 43 -145t138 -45zM365 836v-30q-34 0 -49 -25t-15 -81v-3q1 1 7 1q26 0 37 -11t11 -37q0 -47 -48 -47q-47 0 -47 47v44q0 74 24.5 108t79.5 34z" />
    <glyph glyph-name="Hcircumflex" unicode="&#x124;" horiz-adv-x="856" 
d="M178 0h-87v700h87v-309h500v309h87v-700h-87v309h-500v-309zM282 756l-32 42l178 129l179 -129l-32 -42l-147 94z" />
    <glyph glyph-name="hcircumflex" unicode="&#x125;" horiz-adv-x="661" 
d="M81 0v750h83v-310q52 87 198 87q115 0 168 -54t53 -173v-300h-83v300q0 78 -38.5 114t-121.5 36q-94 0 -135 -44.5t-41 -145.5v-260h-83zM-24 770l-32 42l178 130l179 -130l-32 -42l-147 94z" />
    <glyph glyph-name="Hbar" unicode="&#x126;" horiz-adv-x="871" 
d="M8 526v68h91v106h87v-106h499v106h87v-106h91v-68h-91v-526h-87v309h-499v-309h-87v526h-91zM685 391v135h-499v-135h499z" />
    <glyph glyph-name="hbar" unicode="&#x127;" horiz-adv-x="669" 
d="M88 606h-75v64h75v80h83v-80h231v-64h-231v-166q53 87 198 87q115 0 168 -54t53 -173v-300h-82v300q0 78 -39 114t-122 36q-94 0 -135 -44.5t-41 -145.5v-260h-83v606z" />
    <glyph glyph-name="Itilde" unicode="&#x128;" horiz-adv-x="270" 
d="M178 0h-87v700h87v-700zM27 776h-56q0 112 87 112q38 0 84 -28q47 -29 63 -29q36 0 36 52h57q0 -112 -84 -112q-39 0 -85 28t-65 28q-37 0 -37 -51z" />
    <glyph glyph-name="itilde" unicode="&#x129;" horiz-adv-x="232" 
d="M157 0h-82v520h82v-520zM19 611h-57q0 112 80 112q36 0 79 -28q44 -29 59 -29q32 0 32 52h57q0 -112 -78 -112q-36 0 -79 28t-59 28q-34 0 -34 -51z" />
    <glyph glyph-name="Imacron" unicode="&#x12a;" horiz-adv-x="270" 
d="M178 0h-87v700h87v-700zM292 776h-313v68h313v-68z" />
    <glyph glyph-name="imacron" unicode="&#x12b;" horiz-adv-x="232" 
d="M157 0h-82v520h82v-520zM248 611h-263v68h263v-68z" />
    <glyph glyph-name="Ibreve" unicode="&#x12c;" horiz-adv-x="270" 
d="M178 700v-700h-87v700h87zM-29 917h68q0 -49 23 -71t73 -22q51 0 73.5 22t22.5 71h68q0 -78 -39 -114.5t-125 -36.5q-85 0 -124.5 37t-39.5 114z" />
    <glyph glyph-name="ibreve" unicode="&#x12d;" horiz-adv-x="232" 
d="M157 520v-520h-82v520h82zM-38 753h68q0 -51 19.5 -72.5t66.5 -21.5t66.5 21.5t19.5 72.5h68q0 -80 -36 -116t-118 -36q-80 0 -117 36.5t-37 115.5z" />
    <glyph glyph-name="Iogonek" unicode="&#x12e;" horiz-adv-x="270" 
d="M99 -14l13 14h-21v700h87v-700h-15q-19 -19 -35 -49q-14 -26 -14 -49q0 -39 36 -39q30 0 50 18l7 6l17 -35q-16 -16 -44 -29q-27 -11 -52 -11q-69 0 -69 71q0 30 12.5 59t27.5 44z" />
    <glyph glyph-name="iogonek" unicode="&#x12f;" horiz-adv-x="245" 
d="M47 -117q0 30 12.5 59t27.5 44l13 14h-19v520h83v-520h-13q-19 -19 -35 -49q-14 -26 -14 -49q0 -39 36 -39q30 0 50 18l7 6l18 -35q-16 -16 -45 -29q-27 -11 -52 -11q-69 0 -69 71zM78 630q-13 13 -13 44q0 32 13 45t44 13q32 0 45 -13q14 -14 14 -45q0 -30 -14 -44
t-45 -14q-30 0 -44 14z" />
    <glyph glyph-name="Idot" unicode="&#x130;" horiz-adv-x="270" 
d="M178 0h-87v700h87v-700zM90 779q-13 13 -13 44t14 45t43 14q59 0 59 -59q0 -30 -14 -43.5t-45 -13.5t-44 13z" />
    <glyph glyph-name="dotlessi" unicode="&#x131;" horiz-adv-x="232" 
d="M157 0h-82v520h82v-520z" />
    <glyph glyph-name="IJ" unicode="&#x132;" horiz-adv-x="954" 
d="M310 205v56h88v-56q0 -67 46.5 -98.5t148.5 -31.5q101 0 147.5 41.5t46.5 131.5v452h87v-458q0 -130 -67 -189.5t-215 -59.5q-147 0 -214.5 51t-67.5 161zM91 0v700h87v-700h-87z" />
    <glyph glyph-name="ij" unicode="&#x133;" horiz-adv-x="490" 
d="M232 -250h-33v77h29q51 0 74.5 25t23.5 80v588h82v-586q0 -97 -42 -140.5t-134 -43.5zM164 520v-520h-83v520h83zM412 630q-14 -14 -45 -14q-30 0 -44 14t-14 44q0 31 14 45q13 13 44 13q32 0 45 -13q14 -14 14 -45q0 -30 -14 -44zM78 630q-13 13 -13 44q0 32 13 45
t44 13q32 0 45 -13q14 -14 14 -45q0 -30 -14 -44t-45 -14q-30 0 -44 14z" />
    <glyph glyph-name="Jcircumflex" unicode="&#x134;" horiz-adv-x="684" 
d="M323 -7q-148 0 -215.5 51t-67.5 161v56h88v-56q0 -67 46.5 -98.5t148.5 -31.5q101 0 147.5 41.5t46.5 131.5v452h87v-458q0 -130 -67 -189.5t-214 -59.5zM414 756l-31 42l178 129l178 -129l-32 -42l-146 94z" />
    <glyph glyph-name="jcircumflex" unicode="&#x135;" horiz-adv-x="239" 
d="M-13 -250h-33v77h29q52 0 75 25t23 80v588h83v-586q0 -97 -42 -140.5t-135 -43.5zM-24 591l-32 42l178 130l179 -130l-32 -42l-147 94z" />
    <glyph glyph-name="uni0136" unicode="&#x136;" horiz-adv-x="732" 
d="M178 0h-87v700h87v-301h142l259 301h108l-295 -341l317 -359h-110l-279 317h-142v-317zM299 -298v30q65 0 65 106v2q-30 0 -42.5 10t-12.5 37q0 48 47 48q48 0 48 -48v-43q0 -74 -25 -108t-80 -34z" />
    <glyph glyph-name="uni0137" unicode="&#x137;" horiz-adv-x="562" 
d="M164 226v-226h-83v750h83v-446h71l179 216h100l-211 -254l228 -266h-102l-193 226h-72zM214 -298v30q34 0 49 25t15 81v2q-30 0 -42.5 10t-12.5 37q0 48 48 48q47 0 47 -48v-43q0 -74 -24.5 -108t-79.5 -34z" />
    <glyph glyph-name="Lacute" unicode="&#x139;" horiz-adv-x="686" 
d="M636 0h-545v700h87v-618h458v-82zM104 766l-32 42l178 134l47 -60z" />
    <glyph glyph-name="lacute" unicode="&#x13a;" horiz-adv-x="245" 
d="M164 0h-83v750h83v-750zM91 779l-31 42l178 135l47 -61z" />
    <glyph glyph-name="uni013B" unicode="&#x13b;" horiz-adv-x="686" 
d="M636 82v-82h-545v700h87v-618h458zM323 -298v30q34 0 49 25t15 81v2q-31 0 -42.5 9.5t-11.5 37.5q0 48 47 48q48 0 48 -48v-43q0 -74 -25 -108t-80 -34z" />
    <glyph glyph-name="uni013C" unicode="&#x13c;" horiz-adv-x="245" 
d="M164 0h-83v750h83v-750zM137 -162v2q-30 0 -42.5 10t-12.5 37q0 48 47 48q48 0 48 -48v-43q0 -74 -25 -108t-80 -34v30q65 0 65 106z" />
    <glyph glyph-name="Lcaron" unicode="&#x13d;" horiz-adv-x="686" 
d="M636 82v-82h-545v700h87v-618h458zM256 472v30q34 0 49 25t15 81v2q-30 0 -42.5 10.5t-12.5 37.5q0 25 11 35.5t37 11.5q25 0 36 -11t11 -36v-44q0 -74 -24.5 -108t-79.5 -34z" />
    <glyph glyph-name="lcaron" unicode="&#x13e;" horiz-adv-x="344" 
d="M164 0h-83v750h83v-750zM226 495v35q37 0 54 27.5t17 88.5v2q-34 0 -48 11.5t-14 42.5q0 29 12.5 42t41.5 13t42 -13t13 -42v-48q0 -83 -28 -121t-90 -38z" />
    <glyph glyph-name="Ldot" unicode="&#x13f;" horiz-adv-x="686" 
d="M636 82v-82h-545v700h87v-618h458zM478 414q33 0 48.5 -15t15.5 -49t-15.5 -49t-48.5 -15q-34 0 -49 15t-15 49t15 49t49 15z" />
    <glyph glyph-name="ldot" unicode="&#x140;" horiz-adv-x="388" 
d="M164 750v-750h-83v750h83zM319 414q33 0 48.5 -15t15.5 -49t-15.5 -49t-48.5 -15q-34 0 -49 15t-15 49t15 49t49 15z" />
    <glyph glyph-name="Lslash" unicode="&#x141;" horiz-adv-x="686" 
d="M8 198v69l83 39v394h87v-353l296 138v-70l-296 -138v-195h458v-82h-545v237z" />
    <glyph glyph-name="lslash" unicode="&#x142;" horiz-adv-x="294" 
d="M13 242v75l93 48v385h82v-342l93 49v-75l-93 -49v-333h-82v290z" />
    <glyph glyph-name="Nacute" unicode="&#x143;" horiz-adv-x="849" 
d="M178 0h-87v700h87l492 -574v574h87v-700h-87l-492 573v-573zM587 882l-194 -116l-31 42l178 134z" />
    <glyph glyph-name="nacute" unicode="&#x144;" horiz-adv-x="661" 
d="M164 0h-83v520h83v-80q52 87 198 87q115 0 168 -54t53 -173v-300h-83v300q0 78 -38.5 114t-121.5 36q-94 0 -135 -44.5t-41 -145.5v-260zM494 717l-193 -116l-32 42l178 134z" />
    <glyph glyph-name="uni0145" unicode="&#x145;" horiz-adv-x="849" 
d="M91 0v700h87l492 -574v574h87v-700h-87l-492 573v-573h-87zM374 -298v30q34 0 49.5 25t15.5 81v2q-30 0 -42.5 10t-12.5 37q0 48 47 48q48 0 48 -48v-43q0 -74 -25 -108t-80 -34z" />
    <glyph glyph-name="uni0146" unicode="&#x146;" horiz-adv-x="661" 
d="M164 0h-83v520h83v-80q52 87 198 87q115 0 168 -54t53 -173v-300h-83v300q0 78 -38.5 114t-121.5 36q-94 0 -135 -44.5t-41 -145.5v-260zM387 -113v-43q0 -74 -25 -108t-80 -34v30q34 0 49 25t15 81v2q-31 0 -42.5 9.5t-11.5 37.5q0 48 47 48q48 0 48 -48z" />
    <glyph glyph-name="Ncaron" unicode="&#x147;" horiz-adv-x="849" 
d="M178 0h-87v700h87l492 -574v574h87v-700h-87l-492 573v-573zM425 756l-178 129l31 42l147 -94l146 94l32 -42z" />
    <glyph glyph-name="ncaron" unicode="&#x148;" horiz-adv-x="661" 
d="M164 0h-83v520h83v-80q52 87 198 87q115 0 168 -54t53 -173v-300h-83v300q0 78 -38.5 114t-121.5 36q-94 0 -135 -44.5t-41 -145.5v-260zM332 591l-178 129l32 43l146 -94l147 94l31 -43z" />
    <glyph glyph-name="Eng" unicode="&#x14a;" horiz-adv-x="849" 
d="M178 0h-87v700h87l492 -574v574h87v-701q0 -135 -66.5 -195.5t-214.5 -60.5v82q102 0 148 41.5t46 133.5l-492 573v-573z" />
    <glyph glyph-name="eng" unicode="&#x14b;" horiz-adv-x="661" 
d="M164 0h-83v520h83v-80q52 87 198 87q115 0 168 -54t53 -173v-366q0 -97 -42 -140.5t-135 -43.5h-32v77h29q51 0 74 25t23 80v368q0 78 -38.5 114t-121.5 36q-94 0 -135 -44.5t-41 -145.5v-260z" />
    <glyph glyph-name="Omacron" unicode="&#x14c;" 
d="M146 78q-85 84 -85 272t85 273q84 84 272 84t273 -85t85 -272t-85 -272t-273 -85t-272 85zM212 141q64 -66 206 -66t207 66q64 64 64 209t-64 210q-65 65 -207 65q-141 0 -206 -65q-64 -65 -64 -210t64 -209zM262 776v68h313v-68h-313z" />
    <glyph glyph-name="omacron" unicode="&#x14d;" horiz-adv-x="631" 
d="M114 57q-63 63 -63 203t63 204q63 63 202 63t202 -63q62 -65 62 -204t-62 -203q-63 -64 -202 -64t-202 64zM316 70q95 0 138.5 45.5t43.5 144.5q0 100 -43 145t-139 45t-139.5 -45t-43.5 -145q0 -99 43.5 -144.5t139.5 -45.5zM160 611v68h313v-68h-313z" />
    <glyph glyph-name="Obreve" unicode="&#x14e;" 
d="M146 623q84 84 272 84t273 -85t85 -272t-85 -272t-273 -85t-272 85q-85 84 -85 272t85 273zM212 141q64 -66 206 -66t207 66q64 64 64 209t-64 210q-65 65 -207 65q-141 0 -206 -65q-64 -65 -64 -210t64 -209zM254 917h68q0 -49 23 -71t73 -22q51 0 73.5 22t22.5 71h68
q0 -78 -39 -114.5t-125 -36.5q-85 0 -124.5 37t-39.5 114z" />
    <glyph glyph-name="obreve" unicode="&#x14f;" horiz-adv-x="631" 
d="M114 464q63 63 202 63t202 -63q62 -65 62 -204t-62 -203q-63 -64 -202 -64t-202 64q-63 63 -63 203t63 204zM316 70q95 0 138.5 45.5t43.5 144.5q0 100 -43 145t-139 45t-139.5 -45t-43.5 -145q0 -99 43.5 -144.5t139.5 -45.5zM152 753h68q0 -49 22.5 -71.5t73.5 -22.5
q50 0 73 22.5t23 71.5h68q0 -78 -39 -115t-125 -37t-125 37t-39 115z" />
    <glyph glyph-name="Ohungarumlaut" unicode="&#x150;" 
d="M146 78q-85 84 -85 272t85 273q84 84 272 84t273 -85t85 -272t-85 -272t-273 -85t-272 85zM212 560q-64 -65 -64 -210t64 -209q64 -66 206 -66t207 66q64 64 64 209t-64 210q-65 65 -207 65q-141 0 -206 -65zM318 756l-46 25l107 180l68 -37zM633 924l-128 -168l-46 25
l107 180z" />
    <glyph glyph-name="ohungarumlaut" unicode="&#x151;" horiz-adv-x="631" 
d="M114 57q-63 63 -63 203t63 204q63 63 202 63t202 -63q62 -65 62 -204t-62 -203q-63 -64 -202 -64t-202 64zM133 260q0 -99 43.5 -144.5t139.5 -45.5q95 0 138.5 45.5t43.5 144.5q0 100 -43 145t-139 45t-139.5 -45t-43.5 -145zM216 591l-46 26l107 180l67 -37zM531 760
l-129 -169l-45 26l106 180z" />
    <glyph glyph-name="OE" unicode="&#x152;" horiz-adv-x="1329" 
d="M415 707q208 0 289 -108v101h557v-82h-484v-229h434v-78h-434v-229h484v-82h-557v101q-82 -108 -289 -108q-186 0 -270 84.5t-84 272.5t84 272.5t270 84.5zM212 560q-64 -65 -64 -210t64 -209q64 -66 206 -66t207 66q64 64 64 209t-64 210q-65 65 -207 65
q-141 0 -206 -65z" />
    <glyph glyph-name="oe" unicode="&#x153;" horiz-adv-x="1073" 
d="M112 57q-61 62 -61 203q0 140 61 204q62 63 196 63q178 0 231 -117q53 117 231 117q134 0 193.5 -63.5t59.5 -203.5q0 -2 -0.5 -12t-0.5 -12h-440q5 -89 48.5 -130t132.5 -41q128 0 163 89h86q-20 -87 -80.5 -124t-161.5 -37q-178 0 -231 116q-53 -116 -231 -116
q-135 0 -196 64zM316 70q95 0 138.5 45.5t43.5 144.5q0 100 -43 145t-139 45t-139.5 -45t-43.5 -145q0 -99 43.5 -144.5t139.5 -45.5zM583 299h357q-7 82 -49.5 119t-127.5 37q-87 0 -130 -37.5t-50 -118.5z" />
    <glyph glyph-name="Racute" unicode="&#x154;" horiz-adv-x="769" 
d="M178 277v-277h-87v700h360q124 0 180.5 -47.5t56.5 -151.5q0 -141 -103 -181q98 -35 98 -156v-164h-87v161q0 61 -34.5 88.5t-110.5 27.5h-273zM178 618v-259h268q81 0 118 31t37 99q0 67 -37 98t-118 31h-268zM522 882l-194 -116l-32 42l178 134z" />
    <glyph glyph-name="racute" unicode="&#x155;" horiz-adv-x="422" 
d="M164 0h-83v520h83v-77q51 84 190 84h42v-77h-65q-90 0 -128.5 -44t-38.5 -146v-260zM391 717l-193 -116l-32 42l178 134z" />
    <glyph glyph-name="uni0156" unicode="&#x156;" horiz-adv-x="769" 
d="M178 0h-87v700h360q124 0 180.5 -47.5t56.5 -151.5q0 -141 -103 -181q98 -35 98 -156v-164h-87v161q0 61 -34.5 88.5t-110.5 27.5h-273v-277zM178 618v-259h268q81 0 118 31t37 99q0 67 -37 98t-118 31h-268zM339 -298v30q34 0 49.5 25t15.5 81v2q-30 0 -42.5 10
t-12.5 37q0 48 47 48q48 0 48 -48v-43q0 -74 -25 -108t-80 -34z" />
    <glyph glyph-name="uni0157" unicode="&#x157;" horiz-adv-x="422" 
d="M164 0h-83v520h83v-77q51 84 190 84h42v-77h-65q-90 0 -128.5 -44t-38.5 -146v-260zM77 -298v30q65 0 65 106v2q-30 0 -42.5 10t-12.5 37q0 48 47 48q48 0 48 -48v-43q0 -74 -25 -108t-80 -34z" />
    <glyph glyph-name="Rcaron" unicode="&#x158;" horiz-adv-x="769" 
d="M178 0h-87v700h360q124 0 180.5 -47.5t56.5 -151.5q0 -141 -103 -181q98 -35 98 -156v-164h-87v161q0 61 -34.5 88.5t-110.5 27.5h-273v-277zM178 618v-259h268q81 0 118 31t37 99q0 67 -37 98t-118 31h-268zM359 756l-178 129l32 42l146 -94l147 94l31 -42z" />
    <glyph glyph-name="rcaron" unicode="&#x159;" horiz-adv-x="422" 
d="M164 0h-83v520h83v-77q51 84 190 84h42v-77h-65q-90 0 -128.5 -44t-38.5 -146v-260zM407 720l-178 -129l-178 129l31 43l147 -94l146 94z" />
    <glyph glyph-name="Sacute" unicode="&#x15a;" horiz-adv-x="710" 
d="M48 193h90q19 -62 74.5 -90t157.5 -28q206 0 206 111q0 51 -51 81q-55 30 -181 49q-162 26 -223 69q-63 43 -63 128q0 194 288 194q141 0 212.5 -47t90.5 -153h-91q-16 61 -68.5 89.5t-149.5 28.5q-196 0 -196 -107q0 -48 48 -73q49 -27 168 -46q169 -28 237 -73
q65 -45 65 -133q0 -200 -301 -200q-144 0 -218.5 47.5t-94.5 152.5zM507 882l-193 -116l-32 42l178 134z" />
    <glyph glyph-name="sacute" unicode="&#x15b;" horiz-adv-x="577" 
d="M51 154h82q13 -46 53 -67.5t114 -21.5q147 0 147 75q0 32 -38 51.5t-124 32.5q-123 17 -173.5 52.5t-50.5 104.5q0 146 218 146q111 0 168 -38.5t72 -122.5h-82q-14 47 -52 68t-108 21q-67 0 -101.5 -19t-34.5 -53q0 -30 37 -49.5t121 -33.5q128 -20 178 -53
q50 -35 50 -101q0 -153 -229 -153q-113 0 -172.5 38.5t-74.5 122.5zM446 717l-193 -116l-32 42l178 134z" />
    <glyph glyph-name="Scircumflex" unicode="&#x15c;" horiz-adv-x="710" 
d="M48 193h90q19 -62 74.5 -90t157.5 -28q206 0 206 111q0 51 -51 81q-55 30 -181 49q-162 26 -223 69q-63 43 -63 128q0 194 288 194q141 0 212.5 -47t90.5 -153h-91q-16 61 -68.5 89.5t-149.5 28.5q-196 0 -196 -107q0 -48 48 -73q49 -27 168 -46q169 -28 237 -73
q65 -45 65 -133q0 -200 -301 -200q-144 0 -218.5 47.5t-94.5 152.5zM199 756l-32 42l178 129l178 -129l-31 -42l-147 94z" />
    <glyph glyph-name="scircumflex" unicode="&#x15d;" horiz-adv-x="577" 
d="M298 -7q-113 0 -172.5 38.5t-74.5 122.5h82q13 -46 53 -67.5t114 -21.5q147 0 147 75q0 32 -38 51.5t-124 32.5q-123 17 -173.5 52.5t-50.5 104.5q0 146 218 146q111 0 168 -38.5t72 -122.5h-82q-14 47 -52 68t-108 21q-67 0 -101.5 -19t-34.5 -53q0 -30 37 -49.5
t121 -33.5q128 -20 178 -53q50 -35 50 -101q0 -153 -229 -153zM138 591l-32 42l178 130l178 -130l-31 -42l-147 94z" />
    <glyph glyph-name="Scedilla" unicode="&#x15e;" horiz-adv-x="710" 
d="M48 193h90q19 -62 74.5 -90t157.5 -28q206 0 206 111q0 51 -51 81q-55 30 -181 49q-162 26 -223 69q-63 43 -63 128q0 194 288 194q141 0 212.5 -47t90.5 -153h-91q-16 61 -68.5 89.5t-149.5 28.5q-196 0 -196 -107q0 -48 48 -73q49 -27 168 -46q169 -28 237 -73
q65 -45 65 -133q0 -186 -256 -199l-11 -51q56 0 86.5 -23.5t30.5 -68.5q0 -42 -30 -62t-96 -20q-69 0 -101 23t-32 73h48q0 -50 82 -50q72 0 72 43q0 30 -29.5 42.5t-100.5 12.5l18 80q-135 2 -205.5 49.5t-89.5 150.5z" />
    <glyph glyph-name="scedilla" unicode="&#x15f;" horiz-adv-x="577" 
d="M258 -87l19 80q-103 3 -157.5 42t-68.5 119h82q13 -46 53 -67.5t114 -21.5q147 0 147 75q0 32 -38 51.5t-124 32.5q-123 17 -173.5 52.5t-50.5 104.5q0 146 218 146q111 0 168 -38.5t72 -122.5h-82q-14 47 -52 68t-108 21q-67 0 -101.5 -19t-34.5 -53q0 -30 37 -49.5
t121 -33.5q128 -20 178 -53q50 -35 50 -101q0 -138 -188 -152l-10 -51q116 0 116 -92q0 -42 -29.5 -62t-95.5 -20q-70 0 -102 23t-32 73h49q0 -50 81 -50q39 0 55.5 10t16.5 33q0 30 -29.5 42.5t-100.5 12.5z" />
    <glyph glyph-name="Scaron" unicode="&#x160;" horiz-adv-x="710" 
d="M48 193h90q19 -62 74.5 -90t157.5 -28q206 0 206 111q0 51 -51 81q-55 30 -181 49q-162 26 -223 69q-63 43 -63 128q0 194 288 194q141 0 212.5 -47t90.5 -153h-91q-16 61 -68.5 89.5t-149.5 28.5q-196 0 -196 -107q0 -48 48 -73q49 -27 168 -46q169 -28 237 -73
q65 -45 65 -133q0 -200 -301 -200q-144 0 -218.5 47.5t-94.5 152.5zM345 756l-178 129l32 42l146 -94l147 94l31 -42z" />
    <glyph glyph-name="scaron" unicode="&#x161;" horiz-adv-x="577" 
d="M298 -7q-113 0 -172.5 38.5t-74.5 122.5h82q13 -46 53 -67.5t114 -21.5q147 0 147 75q0 32 -38 51.5t-124 32.5q-123 17 -173.5 52.5t-50.5 104.5q0 146 218 146q111 0 168 -38.5t72 -122.5h-82q-14 47 -52 68t-108 21q-67 0 -101.5 -19t-34.5 -53q0 -30 37 -49.5
t121 -33.5q128 -20 178 -53q50 -35 50 -101q0 -153 -229 -153zM284 591l-178 129l32 43l146 -94l147 94l31 -43z" />
    <glyph glyph-name="uni0162" unicode="&#x162;" horiz-adv-x="756" 
d="M334 618h-304v82h696v-82h-304v-618h-88v618zM328 -298v30q34 0 49 25t15 81v2q-31 0 -42.5 9.5t-11.5 37.5q0 48 47 48q48 0 48 -48v-43q0 -74 -25 -108t-80 -34z" />
    <glyph glyph-name="uni0163" unicode="&#x163;" horiz-adv-x="416" 
d="M121 169v274h-90v77h90v115h83v-115h164v-77h-164v-264q0 -53 25.5 -77t82.5 -24h61v-78h-62q-100 0 -145 40t-45 129zM177 -298v30q34 0 49 25t15 81v2q-31 0 -42.5 9.5t-11.5 37.5q0 48 47 48q48 0 48 -48v-43q0 -74 -25 -108t-80 -34z" />
    <glyph glyph-name="Tcaron" unicode="&#x164;" horiz-adv-x="756" 
d="M334 618h-304v82h696v-82h-304v-618h-88v618zM556 885l-178 -129l-178 129l32 42l146 -94l147 94z" />
    <glyph glyph-name="tcaron" unicode="&#x165;" horiz-adv-x="416" 
d="M121 443h-90v77h90v115h83v-115h164v-77h-164v-264q0 -53 25.5 -77t82.5 -24h61v-78h-62q-100 0 -145 40t-45 129v274zM272 556v30q34 0 49 25t15 81v3q-31 0 -42.5 9.5t-11.5 37.5q0 25 11 36t36 11q48 0 48 -47v-43q0 -75 -25 -109t-80 -34z" />
    <glyph glyph-name="Tbar" unicode="&#x166;" horiz-adv-x="756" 
d="M334 618h-304v82h696v-82h-304v-233h174v-69h-174v-316h-88v316h-174v69h174v233z" />
    <glyph glyph-name="tbar" unicode="&#x167;" horiz-adv-x="416" 
d="M121 325v118h-90v77h90v115h83v-115h164v-77h-164v-118h159v-63h-159v-83q0 -53 25.5 -77t82.5 -24h61v-78h-62q-100 0 -145 40t-45 129v93h-90v63h90z" />
    <glyph glyph-name="Utilde" unicode="&#x168;" horiz-adv-x="816" 
d="M78 301v399h88v-391q0 -123 57.5 -178.5t184.5 -55.5q128 0 185.5 55.5t57.5 178.5v391h87v-399q0 -161 -78.5 -234.5t-251.5 -73.5t-251.5 73.5t-78.5 234.5zM300 776h-56q0 112 87 112q38 0 84 -28q47 -29 64 -29q35 0 35 52h57q0 -112 -84 -112q-39 0 -85 28t-64 28
q-38 0 -38 -51z" />
    <glyph glyph-name="utilde" unicode="&#x169;" horiz-adv-x="657" 
d="M298 -7q-114 0 -166.5 53.5t-52.5 173.5v300h82v-300q0 -78 38.5 -114t120.5 -36q92 0 132.5 44.5t40.5 145.5v260h83v-520h-83v79q-53 -86 -195 -86zM220 611h-57q0 112 87 112q38 0 84 -28q47 -29 64 -29q36 0 36 52h56q0 -112 -84 -112q-39 0 -85 28t-64 28
q-37 0 -37 -51z" />
    <glyph glyph-name="Umacron" unicode="&#x16a;" horiz-adv-x="816" 
d="M78 301v399h88v-391q0 -123 57.5 -178.5t184.5 -55.5q128 0 185.5 55.5t57.5 178.5v391h87v-399q0 -161 -78.5 -234.5t-251.5 -73.5t-251.5 73.5t-78.5 234.5zM252 776v68h313v-68h-313z" />
    <glyph glyph-name="umacron" unicode="&#x16b;" horiz-adv-x="657" 
d="M298 -7q-114 0 -166.5 53.5t-52.5 173.5v300h82v-300q0 -78 38.5 -114t120.5 -36q92 0 132.5 44.5t40.5 145.5v260h83v-520h-83v79q-53 -86 -195 -86zM171 611v68h313v-68h-313z" />
    <glyph glyph-name="Ubreve" unicode="&#x16c;" horiz-adv-x="816" 
d="M78 301v399h88v-391q0 -123 57.5 -178.5t184.5 -55.5q128 0 185.5 55.5t57.5 178.5v391h87v-399q0 -161 -78.5 -234.5t-251.5 -73.5t-251.5 73.5t-78.5 234.5zM244 917h68q0 -49 23 -71t73 -22q51 0 73.5 22t22.5 71h68q0 -78 -39 -114.5t-125 -36.5q-85 0 -124.5 37
t-39.5 114z" />
    <glyph glyph-name="ubreve" unicode="&#x16d;" horiz-adv-x="657" 
d="M79 220v300h82v-300q0 -78 38.5 -114t120.5 -36q92 0 132.5 44.5t40.5 145.5v260h83v-520h-83v79q-53 -86 -195 -86q-114 0 -166.5 53.5t-52.5 173.5zM163 753h68q0 -49 23 -71.5t73 -22.5q51 0 73.5 22.5t22.5 71.5h68q0 -78 -39 -115t-125 -37q-85 0 -124.5 37
t-39.5 115z" />
    <glyph glyph-name="Uring" unicode="&#x16e;" horiz-adv-x="816" 
d="M78 301v399h88v-391q0 -123 57.5 -178.5t184.5 -55.5q128 0 185.5 55.5t57.5 178.5v391h87v-399q0 -161 -78.5 -234.5t-251.5 -73.5t-251.5 73.5t-78.5 234.5zM490 792q-26 -26 -82 -26q-55 0 -81 26t-26 80q0 56 25.5 81.5t81.5 25.5t81.5 -25.5t25.5 -81.5
q0 -55 -25 -80zM462 872q0 54 -54 54t-54 -54q0 -53 54 -53t54 53z" />
    <glyph glyph-name="uring" unicode="&#x16f;" horiz-adv-x="657" 
d="M79 220v300h82v-300q0 -78 38.5 -114t120.5 -36q92 0 132.5 44.5t40.5 145.5v260h83v-520h-83v79q-53 -86 -195 -86q-114 0 -166.5 53.5t-52.5 173.5zM408 627q-26 -26 -81 -26q-54 0 -80 26t-26 81q0 56 25.5 81t80.5 25q56 0 81.5 -25.5t25.5 -80.5t-26 -81zM381 708
q0 53 -54 53t-54 -53q0 -54 54 -54t54 54z" />
    <glyph glyph-name="Uhungarumlaut" unicode="&#x170;" horiz-adv-x="816" 
d="M78 301v399h88v-391q0 -123 57.5 -178.5t184.5 -55.5q128 0 185.5 55.5t57.5 178.5v391h87v-399q0 -161 -78.5 -234.5t-251.5 -73.5t-251.5 73.5t-78.5 234.5zM437 924l-129 -168l-46 25l107 180zM623 924l-128 -168l-46 25l107 180z" />
    <glyph glyph-name="uhungarumlaut" unicode="&#x171;" horiz-adv-x="657" 
d="M79 220v300h82v-300q0 -78 38.5 -114t120.5 -36q92 0 132.5 44.5t40.5 145.5v260h83v-520h-83v79q-53 -86 -195 -86q-114 0 -166.5 53.5t-52.5 173.5zM543 760l-129 -169l-46 26l107 180zM227 591l-45 26l106 180l68 -37z" />
    <glyph glyph-name="Uogonek" unicode="&#x172;" horiz-adv-x="816" 
d="M78 301v399h88v-391q0 -123 57.5 -178.5t184.5 -55.5q128 0 185.5 55.5t57.5 178.5v391h87v-399q0 -146 -64 -219.5t-203 -86.5q-44 -49 -44 -93q0 -39 36 -39q30 0 50 18l7 6l18 -35q-16 -16 -45 -29q-27 -11 -51 -11q-70 0 -70 71q0 61 46 110q-174 0 -257 69t-83 239z
" />
    <glyph glyph-name="uogonek" unicode="&#x173;" horiz-adv-x="657" 
d="M79 220v300h82v-300q0 -78 38.5 -114t120.5 -36q92 0 132.5 44.5t40.5 145.5v260h83v-520h-11q-19 -19 -35 -49q-14 -26 -14 -49q0 -39 36 -39q30 0 50 18l7 6l18 -35q-16 -16 -45 -29q-27 -11 -52 -11q-69 0 -69 71q0 30 12.5 59t27.5 44l13 14h-21v79q-53 -86 -195 -86
q-114 0 -166.5 53.5t-52.5 173.5z" />
    <glyph glyph-name="Wcircumflex" unicode="&#x174;" horiz-adv-x="1174" 
d="M279 0l-254 700h90l215 -596l210 596h93l212 -596l213 596h90l-253 -700h-101l-207 578l-207 -578h-101zM440 756l-31 42l178 129l178 -129l-32 -42l-146 94z" />
    <glyph glyph-name="wcircumflex" unicode="&#x175;" horiz-adv-x="858" 
d="M200 0l-177 520h86l136 -422l143 422h82l142 -416l137 416h86l-177 -520h-92l-137 401l-136 -401h-93zM283 591l-31 42l178 130l178 -130l-32 -42l-146 94z" />
    <glyph glyph-name="Ycircumflex" unicode="&#x176;" horiz-adv-x="779" 
d="M346 0v284l-321 416h105l260 -332l259 332h104l-320 -416v-284h-87zM243 756l-31 42l178 129l178 -129l-32 -42l-146 94z" />
    <glyph glyph-name="ycircumflex" unicode="&#x177;" horiz-adv-x="577" 
d="M138 -250l106 250l-221 520h88l177 -413l178 413h88l-327 -770h-89zM142 591l-31 42l178 130l178 -130l-32 -42l-146 94z" />
    <glyph glyph-name="Ydieresis" unicode="&#x178;" horiz-adv-x="779" 
d="M346 0v284l-321 416h105l260 -332l259 332h104l-320 -416v-284h-87zM288 872q55 0 55 -53q0 -28 -13 -40.5t-42 -12.5q-53 0 -53 53t53 53zM450 860q12 12 40 12t41 -12q13 -13 13 -41t-12.5 -40.5t-41.5 -12.5q-28 0 -40.5 12t-12.5 41q0 28 13 41z" />
    <glyph glyph-name="Zacute" unicode="&#x179;" horiz-adv-x="673" 
d="M635 82v-82h-597v78l475 540h-466v82h583v-77l-475 -541h480zM499 882l-193 -116l-32 42l178 134z" />
    <glyph glyph-name="zacute" unicode="&#x17a;" horiz-adv-x="531" 
d="M368 443h-327v77h447v-61l-329 -381h331v-78h-449v61zM428 717l-194 -116l-31 42l178 134z" />
    <glyph glyph-name="Zdotaccent" unicode="&#x17b;" horiz-adv-x="673" 
d="M635 82v-82h-597v78l475 540h-466v82h583v-77l-475 -541h480zM337 882q58 0 58 -59q0 -57 -58 -57q-31 0 -44.5 13t-13.5 44t13.5 45t44.5 14z" />
    <glyph glyph-name="zdotaccent" unicode="&#x17c;" horiz-adv-x="531" 
d="M41 443v77h447v-61l-329 -381h331v-78h-449v61l327 382h-327zM207 659q0 30 13.5 44t44.5 14t44.5 -14t13.5 -44q0 -31 -13.5 -44.5t-44.5 -13.5t-44.5 13.5t-13.5 44.5z" />
    <glyph glyph-name="Zcaron" unicode="&#x17d;" horiz-adv-x="673" 
d="M635 0h-597v78l475 540h-466v82h583v-77l-475 -541h480v-82zM515 885l-178 -129l-178 129l32 42l146 -94l147 94z" />
    <glyph glyph-name="zcaron" unicode="&#x17e;" horiz-adv-x="531" 
d="M368 443h-327v77h447v-61l-329 -381h331v-78h-449v61zM266 591l-178 129l31 43l147 -94l146 94l32 -43z" />
    <glyph glyph-name="uni018F" unicode="&#x18f;" 
d="M61 350q0 27 1 34h625q-7 126 -72.5 183.5t-196.5 57.5q-201 0 -250 -139h-93q30 128 126 177q87 44 217 44q188 0 273 -85t85 -272t-85 -272t-273 -85t-272 85q-85 84 -85 272zM685 306h-533q8 -121 73 -176t193 -55t193 54.5t74 176.5z" />
    <glyph glyph-name="florin" unicode="&#x192;" horiz-adv-x="403" 
d="M-102 -250h-52l14 77h48q65 0 100 32.5t47 102.5l85 481h-96l14 77h96l3 20q20 112 77 162.5t163 50.5h52l-14 -78h-47q-65 0 -100 -32t-48 -103l-4 -20h167l-14 -77h-167l-84 -481q-19 -111 -76.5 -161.5t-163.5 -50.5z" />
    <glyph glyph-name="uni01DD" unicode="&#x1dd;" horiz-adv-x="626" 
d="M513 57q-61 -64 -201 -64q-139 0 -200 64t-61 203q0 19 1 24h439q-4 88 -47.5 129.5t-132.5 41.5q-128 0 -163 -89h-86q16 61 52.5 98t84.5 50.5t113 12.5q139 0 201 -63.5t62 -203.5q0 -138 -62 -203zM490 221h-356q7 -83 49 -119.5t128 -36.5q85 0 128.5 37.5
t50.5 118.5z" />
    <glyph glyph-name="Aringacute" unicode="&#x1fa;" horiz-adv-x="809" 
d="M118 0h-93l322 686q-49 19 -49 96q0 56 26 81.5t81 25.5q48 0 73 -19l147 111l47 -61l-165 -98q4 -15 4 -40q0 -75 -49 -97l321 -685h-93l-74 160l-423 -1zM577 242l-172 369l-173 -369h345zM405 729q53 0 53 53q0 54 -53 54q-55 0 -55 -54q0 -53 55 -53z" />
    <glyph glyph-name="aringacute" unicode="&#x1fb;" horiz-adv-x="637" 
d="M61 146q0 83 54 119.5t176 36.5h185v7q0 77 -38.5 111.5t-124.5 34.5q-69 0 -106 -22.5t-51 -71.5h-82q15 87 72 126.5t170 39.5q128 0 185.5 -51.5t57.5 -165.5v-310h-83v77q-56 -84 -213 -84q-105 0 -153.5 36.5t-48.5 116.5zM204 678q0 55 25.5 80.5t81.5 25.5
q47 0 72 -18l147 112l47 -61l-164 -98q4 -15 4 -41q0 -56 -25.5 -81.5t-80.5 -25.5t-81 25.5t-26 81.5zM476 239h-166q-87 0 -126.5 -21.5t-39.5 -68.5q0 -44 33.5 -64t103.5 -20q94 0 140 34.5t55 110.5v29zM256 678q0 -54 55 -54q53 0 53 54q0 53 -53 53q-55 0 -55 -53z
" />
    <glyph glyph-name="AEacute" unicode="&#x1fc;" horiz-adv-x="1188" 
d="M241 159l-114 -159h-102l499 700h596v-82h-459v-229h409v-78h-409v-229h459v-82h-546v160zM574 242v385l-275 -385h275zM775 882l-194 -116l-31 42l178 134z" />
    <glyph glyph-name="aeacute" unicode="&#x1fd;" horiz-adv-x="1051" 
d="M263 -7q-105 0 -153.5 36.5t-48.5 116.5q0 83 54 119.5t176 36.5h188q3 79 -36.5 116t-129.5 37q-69 0 -106 -22.5t-51 -71.5h-82q15 87 72 126.5t170 39.5q165 0 209 -96q53 96 214 96q138 0 200 -63t62 -202q0 -4 -0.5 -14t-0.5 -12h-440q5 -89 48.5 -130t132.5 -41
q128 0 163 89h85q-20 -87 -81.5 -124t-166.5 -37q-101 0 -159 32.5t-82 102.5q-22 -70 -79.5 -102.5t-157.5 -32.5zM144 149q0 -44 33 -64t105 -20q100 0 146.5 40.5t50.5 133.5h-169q-87 0 -126.5 -21.5t-39.5 -68.5zM561 299h357q-7 82 -49.5 119t-127.5 37
q-86 0 -129.5 -37t-50.5 -119zM693 717l-193 -116l-32 42l178 134z" />
    <glyph glyph-name="Oslashacute" unicode="&#x1fe;" 
d="M418 707q95 0 164 -21l20 34h62l-31 -55q143 -77 143 -315q0 -187 -85 -272t-273 -85q-96 0 -163 21l-20 -34h-63l32 55q-143 75 -143 315q0 188 84.5 272.5t272.5 84.5zM148 350q0 -179 101 -238l289 498q-51 15 -120 15q-142 0 -206 -65.5t-64 -209.5zM418 75
q142 0 206.5 65.5t64.5 209.5q0 178 -101 238l-289 -498q50 -15 119 -15zM581 882l-194 -116l-32 42l179 134z" />
    <glyph glyph-name="oslashacute" unicode="&#x1ff;" horiz-adv-x="631" 
d="M129 -20l27 45q-105 55 -105 235q0 140 63 203.5t202 63.5q72 0 120 -16l15 26h50l-24 -43q103 -57 103 -234q0 -140 -62.5 -203.5t-201.5 -63.5q-73 0 -120 16l-16 -29h-51zM133 260q0 -120 66 -160l195 339q-36 11 -78 11q-96 0 -139.5 -45t-43.5 -145zM434 419
l-196 -338q36 -11 78 -11q95 0 138.5 45.5t43.5 144.5q0 119 -64 159zM284 601l-31 42l178 134l47 -60z" />
    <glyph glyph-name="uni0218" unicode="&#x218;" horiz-adv-x="710" 
d="M361 -7q-144 0 -218.5 47.5t-94.5 152.5h90q19 -62 74.5 -90t157.5 -28q206 0 206 111q0 51 -51 81q-55 30 -181 49q-162 26 -223 69q-63 43 -63 128q0 194 288 194q141 0 212.5 -47t90.5 -153h-91q-16 61 -68.5 89.5t-149.5 28.5q-196 0 -196 -107q0 -48 48 -73
q49 -27 168 -46q169 -28 237 -73q65 -45 65 -133q0 -200 -301 -200zM440 -113v-43q0 -74 -25 -108t-80 -34v30q65 0 65 106v2q-31 0 -43 9.5t-12 37.5q0 48 47 48q48 0 48 -48z" />
    <glyph glyph-name="uni0219" unicode="&#x219;" horiz-adv-x="577" 
d="M51 154h82q13 -46 53 -67.5t114 -21.5q147 0 147 75q0 32 -38 51.5t-124 32.5q-123 17 -173.5 52.5t-50.5 104.5q0 146 218 146q111 0 168 -38.5t72 -122.5h-82q-14 47 -52 68t-108 21q-67 0 -101.5 -19t-34.5 -53q0 -30 37 -49.5t121 -33.5q128 -20 178 -53
q50 -35 50 -101q0 -153 -229 -153q-113 0 -172.5 38.5t-74.5 122.5zM259 -298v30q34 0 49 25t15 81v2q-31 0 -42.5 9.5t-11.5 37.5q0 48 47 48q48 0 48 -48v-43q0 -74 -25 -108t-80 -34z" />
    <glyph glyph-name="uni021A" unicode="&#x21a;" horiz-adv-x="756" 
d="M334 618h-304v82h696v-82h-304v-618h-88v618zM328 -298v30q34 0 49 25t15 81v2q-31 0 -42.5 9.5t-11.5 37.5q0 48 47 48q48 0 48 -48v-43q0 -74 -25 -108t-80 -34z" />
    <glyph glyph-name="uni021B" unicode="&#x21b;" horiz-adv-x="416" 
d="M121 169v274h-90v77h90v115h83v-115h164v-77h-164v-264q0 -53 25.5 -77t82.5 -24h61v-78h-62q-100 0 -145 40t-45 129zM177 -298v30q34 0 49 25t15 81v2q-31 0 -42.5 9.5t-11.5 37.5q0 48 47 48q48 0 48 -48v-43q0 -74 -25 -108t-80 -34z" />
    <glyph glyph-name="uni0237" unicode="&#x237;" horiz-adv-x="239" 
d="M-13 -250h-33v77h29q52 0 75 25t23 80v588h83v-586q0 -97 -42 -140.5t-135 -43.5z" />
    <glyph glyph-name="uni0259" unicode="&#x259;" horiz-adv-x="626" 
d="M513 57q-61 -64 -201 -64q-139 0 -200 64t-61 203q0 19 1 24h439q-4 88 -47.5 129.5t-132.5 41.5q-128 0 -163 -89h-86q16 61 52.5 98t84.5 50.5t113 12.5q139 0 201 -63.5t62 -203.5q0 -138 -62 -203zM490 221h-356q7 -83 49 -119.5t128 -36.5q85 0 128.5 37.5
t50.5 118.5z" />
    <glyph glyph-name="circumflex" unicode="&#x2c6;" horiz-adv-x="468" 
d="M234 794l-146 -94l-32 42l178 130l178 -130l-31 -42z" />
    <glyph glyph-name="caron" unicode="&#x2c7;" horiz-adv-x="468" 
d="M412 830l-178 -130l-178 130l32 42l146 -94l147 94z" />
    <glyph glyph-name="breve" unicode="&#x2d8;" horiz-adv-x="440" 
d="M56 852h68q0 -49 23 -71.5t73 -22.5q51 0 73.5 22.5t22.5 71.5h68q0 -78 -39 -115t-125 -37q-85 0 -124.5 37t-39.5 115z" />
    <glyph glyph-name="dotaccent" unicode="&#x2d9;" horiz-adv-x="228" 
d="M70 714q-14 14 -14 44q0 31 14 45q13 13 44 13q32 0 45 -13t13 -45q0 -31 -13 -44q-14 -14 -45 -14q-30 0 -44 14z" />
    <glyph glyph-name="ring" unicode="&#x2da;" horiz-adv-x="326" 
d="M82 888q26 26 81 26t81 -26t26 -81t-26 -81t-81 -26t-81 26t-26 81t26 81zM163 861q-54 0 -54 -54t54 -54t54 54t-54 54z" />
    <glyph glyph-name="ogonek" unicode="&#x2db;" horiz-adv-x="274" 
d="M50 -117q0 30 12.5 59.5t27.5 43.5l13 14h51q-19 -19 -35 -49q-14 -26 -14 -49q0 -39 36 -39q30 0 50 18l7 6l18 -35q-16 -16 -45 -29q-27 -11 -51 -11q-70 0 -70 71z" />
    <glyph glyph-name="tilde" unicode="&#x2dc;" horiz-adv-x="439" 
d="M113 700h-57q0 112 87 112q38 0 84 -28q47 -29 64 -29q35 0 35 52h57q0 -112 -84 -112q-38 0 -85 29q-46 28 -64 28q-37 0 -37 -52z" />
    <glyph glyph-name="hungarumlaut" unicode="&#x2dd;" horiz-adv-x="473" 
d="M102 700l-46 26l107 180l67 -37zM288 700l-45 26l107 180l67 -37z" />
    <glyph glyph-name="uni0326" unicode="&#x326;" horiz-adv-x="200" 
d="M109 -162v2q-31 0 -42.5 9.5t-11.5 37.5q0 48 47 48q48 0 48 -48v-43q0 -74 -25 -108t-80 -34v30q34 0 49 25t15 81z" />
    <glyph glyph-name="uni037E" unicode="&#x37e;" horiz-adv-x="248" 
d="M57 -177v40q41 0 60 30.5t19 97.5v2q-39 0 -55.5 13.5t-16.5 49.5q0 34 15 49t49 15q33 0 48.5 -15t15.5 -49v-55q0 -94 -32 -136t-103 -42zM75 512q15 15 49 15t49 -15q15 -16 15 -49q0 -34 -15 -49t-49 -15t-49 15t-15 49q0 33 15 49z" />
    <glyph glyph-name="tonos" unicode="&#x384;" horiz-adv-x="303" 
d="M101 695l-45 25l124 201l67 -36z" />
    <glyph glyph-name="dieresistonos" unicode="&#x385;" horiz-adv-x="468" 
d="M337 919l-95 -176l-45 16l74 184zM105 705q-26 0 -37.5 11.5t-11.5 37.5t11.5 38t37.5 12q27 0 39 -12t12 -38t-12 -37.5t-39 -11.5zM362 705q-27 0 -38.5 11.5t-11.5 37.5t11.5 38t38.5 12q26 0 38 -12t12 -38t-12 -37.5t-38 -11.5z" />
    <glyph glyph-name="Alphatonos" unicode="&#x386;" horiz-adv-x="809" 
d="M118 0h-93l329 700h101l328 -700h-93l-74 160l-423 -1zM577 242l-172 369l-173 -369h345zM114 469l-49 16l81 222l73 -22z" />
    <glyph glyph-name="anoteleia" unicode="&#x387;" horiz-adv-x="248" 
d="M75 301q-15 15 -15 49t15 49t49 15t49 -15t15 -49t-15 -49t-49 -15t-49 15z" />
    <glyph glyph-name="Epsilontonos" unicode="&#x388;" horiz-adv-x="731" 
d="M663 0h-572v700h572v-82h-485v-229h435v-78h-435v-229h485v-82zM-71 469l-49 16l82 222l73 -22z" />
    <glyph glyph-name="Etatonos" unicode="&#x389;" horiz-adv-x="856" 
d="M178 0h-87v700h87v-309h500v309h87v-700h-87v309h-500v-309zM35 685l-106 -216l-49 16l82 222z" />
    <glyph glyph-name="Iotatonos" unicode="&#x38a;" horiz-adv-x="270" 
d="M178 0h-87v700h87v-700zM35 685l-106 -216l-49 16l82 222z" />
    <glyph glyph-name="Omicrontonos" unicode="&#x38c;" 
d="M146 623q84 84 272 84t273 -85t85 -272t-85 -272t-273 -85t-272 85q-85 84 -85 272t85 273zM212 560q-64 -65 -64 -210t64 -209q64 -66 206 -66t207 66q64 64 64 209t-64 210q-65 65 -207 65q-141 0 -206 -65zM-51 469l-49 16l81 222l73 -22z" />
    <glyph glyph-name="Upsilontonos" unicode="&#x38e;" horiz-adv-x="779" 
d="M346 0v284l-321 416h105l260 -332l259 332h104l-320 -416v-284h-87zM-22 685l-105 -216l-49 16l82 222z" />
    <glyph glyph-name="Omegatonos" unicode="&#x38f;" 
d="M342 0h-296v82h140q-125 71 -125 281q0 181 84.5 262.5t272.5 81.5t273 -81.5t85 -262.5q0 -209 -125 -281h139v-82h-296v74q12 1 30 8q85 22 125 86.5t40 178.5q0 146 -64.5 212t-206.5 66t-206 -66t-64 -212q0 -115 39.5 -179t124.5 -86q18 -7 30 -8v-74zM54 685
l-105 -216l-49 16l81 222z" />
    <glyph glyph-name="iotadieresistonos" unicode="&#x390;" horiz-adv-x="232" 
d="M157 0h-82v520h82v-520zM217 815l-95 -177l-46 17l75 183zM242 699q50 0 50 -49q0 -50 -50 -50q-27 0 -38.5 12t-11.5 38t11.5 37.5t38.5 11.5zM-53 612q-11 13 -11 38t11 38q13 11 38 11q50 0 50 -49q0 -26 -12 -38t-38 -12t-38 12z" />
    <glyph glyph-name="Alpha" unicode="&#x391;" horiz-adv-x="809" 
d="M118 0h-93l329 700h101l328 -700h-93l-74 160l-423 -1zM577 242l-172 369l-173 -369h345z" />
    <glyph glyph-name="Beta" unicode="&#x392;" horiz-adv-x="769" 
d="M496 0h-405v700h380q114 0 165.5 -43t51.5 -138q0 -119 -81 -157q106 -34 106 -173q0 -99 -51.5 -144t-165.5 -45zM496 319h-318v-237h318q71 0 103 28.5t32 90.5t-32.5 90t-102.5 28zM178 618v-222h291q75 0 106 25.5t31 85.5q0 58 -32.5 84.5t-102.5 26.5h-293z" />
    <glyph glyph-name="Gamma" unicode="&#x393;" horiz-adv-x="623" 
d="M178 0h-87v700h502v-82h-415v-618z" />
    <glyph glyph-name="uni0394" unicode="&#x394;" horiz-adv-x="809" 
d="M783 0h-758l329 700h101zM405 611l-248 -529h495z" />
    <glyph glyph-name="Epsilon" unicode="&#x395;" horiz-adv-x="731" 
d="M663 82v-82h-572v700h572v-82h-485v-229h435v-78h-435v-229h485z" />
    <glyph glyph-name="Zeta" unicode="&#x396;" horiz-adv-x="673" 
d="M635 82v-82h-597v78l475 540h-466v82h583v-77l-475 -541h480z" />
    <glyph glyph-name="Eta" unicode="&#x397;" horiz-adv-x="856" 
d="M178 0h-87v700h87v-309h500v309h87v-700h-87v309h-500v-309z" />
    <glyph glyph-name="Theta" unicode="&#x398;" 
d="M146 623q84 84 272 84t273 -85t85 -272t-85 -272t-273 -85t-272 85q-85 84 -85 272t85 273zM212 560q-64 -65 -64 -210t64 -209q64 -66 206 -66t207 66q64 64 64 209t-64 210q-65 65 -207 65q-141 0 -206 -65zM224 311v78h389v-78h-389z" />
    <glyph glyph-name="Iota" unicode="&#x399;" horiz-adv-x="270" 
d="M178 0h-87v700h87v-700z" />
    <glyph glyph-name="Kappa" unicode="&#x39a;" horiz-adv-x="732" 
d="M178 0h-87v700h87v-301h142l259 301h108l-295 -341l317 -359h-110l-279 317h-142v-317z" />
    <glyph glyph-name="Lambda" unicode="&#x39b;" horiz-adv-x="809" 
d="M118 0h-93l329 700h101l328 -700h-93l-285 611z" />
    <glyph glyph-name="Mu" unicode="&#x39c;" horiz-adv-x="1017" 
d="M178 0h-87v700h141l277 -606l276 606h141v-700h-87v617l-280 -617h-101l-280 617v-617z" />
    <glyph glyph-name="Nu" unicode="&#x39d;" horiz-adv-x="849" 
d="M178 573v-573h-87v700h87l492 -574v574h87v-700h-87z" />
    <glyph glyph-name="Xi" unicode="&#x39e;" horiz-adv-x="721" 
d="M653 82v-82h-585v82h585zM653 700v-82h-585v82h585zM603 389v-78h-485v78h485z" />
    <glyph glyph-name="Omicron" unicode="&#x39f;" 
d="M146 623q84 84 272 84t273 -85t85 -272t-85 -272t-273 -85t-272 85q-85 84 -85 272t85 273zM212 560q-64 -65 -64 -210t64 -209q64 -66 206 -66t207 66q64 64 64 209t-64 210q-65 65 -207 65q-141 0 -206 -65z" />
    <glyph glyph-name="Pi" unicode="&#x3a0;" horiz-adv-x="841" 
d="M178 0h-87v700h659v-700h-87v618h-485v-618z" />
    <glyph glyph-name="Rho" unicode="&#x3a1;" horiz-adv-x="716" 
d="M178 0h-87v700h345q124 0 180.5 -52t56.5 -167t-56 -167t-181 -52h-258v-262zM431 618h-253v-274h253q81 0 118 32.5t37 104.5t-37 104.5t-118 32.5z" />
    <glyph glyph-name="Sigma" unicode="&#x3a3;" horiz-adv-x="678" 
d="M641 0h-593v78l276 272l-276 273v77h579v-79h-466l277 -271l-277 -271h480v-79z" />
    <glyph glyph-name="Tau" unicode="&#x3a4;" horiz-adv-x="756" 
d="M334 618h-304v82h696v-82h-304v-618h-88v618z" />
    <glyph glyph-name="Upsilon" unicode="&#x3a5;" horiz-adv-x="779" 
d="M346 0v284l-321 416h105l260 -332l259 332h104l-320 -416v-284h-87z" />
    <glyph glyph-name="Phi" unicode="&#x3a6;" horiz-adv-x="934" 
d="M61 349q0 141 86 204.5t276 63.5v90h88v-90q190 0 276 -63.5t86 -204.5q0 -142 -86 -206.5t-276 -64.5v-85h-88v85q-190 0 -276 64.5t-86 206.5zM511 537v-379q144 2 209.5 47t65.5 144t-65 143.5t-210 44.5zM423 158v379q-144 -1 -209.5 -46t-65.5 -143
q0 -99 65.5 -144.5t209.5 -45.5z" />
    <glyph glyph-name="Chi" unicode="&#x3a7;" horiz-adv-x="746" 
d="M319 357l-284 343h107l231 -278l231 278h107l-284 -343l296 -357h-108l-242 292l-242 -292h-108z" />
    <glyph glyph-name="Psi" unicode="&#x3a8;" horiz-adv-x="905" 
d="M69 432v268h87v-262q0 -86 60.5 -128.5t192.5 -48.5v439h87v-439q132 5 192.5 47.5t60.5 129.5v262h87v-268q0 -126 -81.5 -187t-258.5 -67v-178h-87v179q-177 6 -258.5 66.5t-81.5 186.5z" />
    <glyph glyph-name="uni03A9" unicode="&#x3a9;" 
d="M342 74v-74h-296v82h140q-125 71 -125 281q0 181 84.5 262.5t272.5 81.5t273 -81.5t85 -262.5q0 -209 -125 -281h139v-82h-296v74q12 1 30 8q85 22 125 86.5t40 178.5q0 146 -64.5 212t-206.5 66t-206 -66t-64 -212q0 -115 39.5 -179t124.5 -86q18 -7 30 -8z" />
    <glyph glyph-name="Iotadieresis" unicode="&#x3aa;" horiz-adv-x="270" 
d="M178 700v-700h-87v700h87zM-8 779q-12 12 -12 40t13 41q14 12 41 12q54 0 54 -53t-54 -53q-29 0 -42 13zM236 872q53 0 53 -53t-53 -53q-29 0 -41.5 12t-12.5 41q0 28 12.5 40.5t41.5 12.5z" />
    <glyph glyph-name="Upsilondieresis" unicode="&#x3ab;" horiz-adv-x="779" 
d="M346 0v284l-321 416h105l260 -332l259 332h104l-320 -416v-284h-87zM288 872q55 0 55 -53q0 -28 -13 -40.5t-42 -12.5q-53 0 -53 53t53 53zM450 860q12 12 40 12t41 -12q13 -13 13 -41t-12.5 -40.5t-41.5 -12.5q-28 0 -40.5 12t-12.5 41q0 28 13 41z" />
    <glyph glyph-name="alphatonos" unicode="&#x3ac;" horiz-adv-x="659" 
d="M293 527q147 0 203 -89v82h82v-520h-82v82q-56 -89 -203 -89q-127 0 -184.5 63.5t-57.5 203.5t57.5 203.5t184.5 63.5zM133 260q0 -99 43 -144.5t138 -45.5q94 0 137 45.5t43 144.5q0 100 -43 145t-137 45q-95 0 -138 -45t-43 -145zM459 781l-146 -191l-45 26l124 201z
" />
    <glyph glyph-name="epsilontonos" unicode="&#x3ad;" horiz-adv-x="574" 
d="M53 145q0 91 77 120q-77 29 -77 116q0 77 53.5 111.5t170.5 34.5q118 0 175 -36.5t72 -119.5h-85q-12 44 -49 64t-109 20q-75 0 -110 -20t-35 -63q0 -39 28 -57t90 -18h120v-63h-122q-62 0 -89 -18.5t-27 -60.5q0 -47 35.5 -68.5t110.5 -21.5q72 0 108 19.5t49 64.5h84
q-15 -83 -71.5 -119.5t-173.5 -36.5t-171 36t-54 116zM424 781l-146 -191l-45 26l124 201z" />
    <glyph glyph-name="etatonos" unicode="&#x3ae;" horiz-adv-x="661" 
d="M164 0h-83v520h83v-80q52 87 198 87q115 0 168 -54t53 -173v-300h-83v300q0 78 -38.5 114t-121.5 36q-94 0 -135 -44.5t-41 -145.5v-260zM486 781l-146 -191l-45 26l124 201z" />
    <glyph glyph-name="iotatonos" unicode="&#x3af;" horiz-adv-x="232" 
d="M157 0h-82v520h82v-520zM124 590l-45 26l124 201l67 -36z" />
    <glyph glyph-name="upsilondieresistonos" unicode="&#x3b0;" horiz-adv-x="654" 
d="M327 -7q-130 0 -189 57t-59 185v285h82v-282q0 -87 39.5 -127.5t126.5 -40.5t126.5 40.5t39.5 127.5v282h83v-285q0 -128 -59 -185t-190 -57zM428 829l-95 -176l-45 16l74 184zM159 627q-12 11 -12 37t12 38q10 12 37 12q51 0 51 -50q0 -49 -51 -49q-26 0 -37 12z
M453 615q-27 0 -38.5 11.5t-11.5 37.5t11.5 38t38.5 12q50 0 50 -50q0 -49 -50 -49z" />
    <glyph glyph-name="alpha" unicode="&#x3b1;" horiz-adv-x="659" 
d="M109 57q-58 62 -58 203q0 140 58 204q57 63 184 63q147 0 203 -89v82h82v-520h-82v82q-56 -89 -203 -89q-127 0 -184 64zM314 70q94 0 137 45.5t43 144.5q0 100 -43 145t-137 45q-95 0 -138 -45t-43 -145q0 -99 43 -144.5t138 -45.5z" />
    <glyph glyph-name="beta" unicode="&#x3b2;" horiz-adv-x="640" 
d="M164 -160h-83v684q0 123 56 178t183 55q114 0 166 -44.5t52 -144.5q0 -109 -65 -150q59 -18 86.5 -65.5t27.5 -131.5q0 -117 -54.5 -172.5t-171.5 -55.5q-145 0 -197 87v-240zM339 70q87 0 126.5 39t39.5 125q0 76 -31.5 110.5t-102.5 34.5h-106v63h72q63 0 91 27.5
t28 87.5q0 65 -33 94t-105 29q-82 0 -118 -36.5t-36 -118.5v-265q0 -101 41 -145.5t134 -44.5z" />
    <glyph glyph-name="gamma" unicode="&#x3b3;" horiz-adv-x="584" 
d="M251 -250v237l-228 533h88l181 -438l181 438h88l-228 -533v-237h-82z" />
    <glyph glyph-name="delta" unicode="&#x3b4;" horiz-adv-x="631" 
d="M307 523q63 0 101 -24q-53 62 -132 107q-85 46 -136 58l-54 13v73h448v-68h-303q43 -14 69 -26q77 -35 142 -93q83 -75 118 -177q20 -62 20 -126q0 -140 -62.5 -203.5t-201.5 -63.5q-140 0 -202.5 62.5t-62.5 202.5q0 139 61 202t195 63zM133 262q0 -100 43.5 -146
t139.5 -46q95 0 138.5 46t43.5 146q0 101 -43.5 147t-138.5 46q-96 0 -139.5 -45.5t-43.5 -147.5z" />
    <glyph glyph-name="epsilon" unicode="&#x3b5;" horiz-adv-x="574" 
d="M53 145q0 91 77 120q-77 29 -77 116q0 77 53.5 111.5t170.5 34.5q118 0 175 -36.5t72 -119.5h-85q-12 44 -49 64t-109 20q-75 0 -110 -20t-35 -63q0 -39 28 -57t90 -18h120v-63h-122q-62 0 -89 -18.5t-27 -60.5q0 -47 35.5 -68.5t110.5 -21.5q72 0 108 19.5t49 64.5h84
q-15 -83 -71.5 -119.5t-173.5 -36.5t-171 36t-54 116z" />
    <glyph glyph-name="zeta" unicode="&#x3b6;" horiz-adv-x="514" 
d="M326 623l45 50h-325v77h442v-61l-79 -90q-5 -6 -28 -32.5t-40 -44.5q-65 -71 -73 -81q-47 -56 -60 -73q-63 -80 -63 -123q0 -28 14.5 -52t32 -39.5t52 -32t55 -24.5t59.5 -21q116 -42 116 -91q0 -47 -67 -162l-63 32q44 90 44 103q0 14 -18 28q-20 14 -111 45
q-40 14 -70.5 29.5t-62.5 40.5t-49 61t-17 82q0 38 44 106q45 70 82 114q32 38 117 133q6 6 13 15t10 11z" />
    <glyph glyph-name="eta" unicode="&#x3b7;" horiz-adv-x="661" 
d="M81 0v520h83v-80q52 87 198 87q115 0 168 -54t53 -173v-300h-83v300q0 78 -38.5 114t-121.5 36q-94 0 -135 -44.5t-41 -145.5v-260h-83z" />
    <glyph glyph-name="theta" unicode="&#x3b8;" horiz-adv-x="611" 
d="M51 375q0 200 60.5 291t193.5 91q134 0 194.5 -91t60.5 -291q0 -201 -60.5 -291.5t-194.5 -90.5q-133 0 -193.5 90.5t-60.5 291.5zM477 344h-343q4 -143 45 -208.5t126 -65.5q86 0 127 65.5t45 208.5zM134 421h343q-5 135 -46.5 197t-125.5 62t-125 -61.5t-46 -197.5z
" />
    <glyph glyph-name="iota" unicode="&#x3b9;" horiz-adv-x="232" 
d="M157 0h-82v520h82v-520z" />
    <glyph glyph-name="kappa" unicode="&#x3ba;" horiz-adv-x="595" 
d="M164 226v-226h-83v520h83v-216h107l179 216h101l-212 -254l225 -266h-102l-191 226h-107z" />
    <glyph glyph-name="lambda" unicode="&#x3bb;" horiz-adv-x="577" 
d="M112 0h-89l221 500l-106 250h89l327 -750h-88l-176 399z" />
    <glyph glyph-name="uni03BC" unicode="&#x3bc;" horiz-adv-x="657" 
d="M161 -250h-82v770h82v-300q0 -78 38.5 -114t120.5 -36q92 0 132.5 44.5t40.5 145.5v260h83v-520h-83v79q-53 -86 -195 -86q-91 0 -143 34z" />
    <glyph glyph-name="nu" unicode="&#x3bd;" horiz-adv-x="584" 
d="M245 0l-222 520h88l181 -432l181 432h88l-223 -520h-93z" />
    <glyph glyph-name="xi" unicode="&#x3be;" horiz-adv-x="570" 
d="M151 409q-77 39 -77 157q0 101 52 146t169 45q125 0 182 -51.5t57 -166.5l-82 1q0 73 -37 106.5t-117 33.5q-76 0 -109 -29t-33 -96q0 -61 30 -89.5t98 -28.5h121v-63h-137q-64 0 -93.5 -30t-29.5 -94q0 -40 27.5 -70.5t68.5 -46.5t89.5 -32.5t89.5 -29.5t68.5 -36.5
t27.5 -54.5q0 -36 -67 -157l-63 32q3 5 28 55q16 37 16 52q0 19 -27 33.5t-68 24.5t-88.5 27t-88.5 38.5t-68 62t-27 95.5q0 130 88 166z" />
    <glyph glyph-name="omicron" unicode="&#x3bf;" horiz-adv-x="631" 
d="M114 464q63 63 202 63t202 -63q62 -65 62 -204t-62 -203q-63 -64 -202 -64t-202 64q-63 63 -63 203t63 204zM133 260q0 -99 43.5 -144.5t139.5 -45.5q95 0 138.5 45.5t43.5 144.5q0 100 -43 145t-139 45t-139.5 -45t-43.5 -145z" />
    <glyph glyph-name="pi" unicode="&#x3c0;" horiz-adv-x="658" 
d="M164 0h-83v520h496v-520h-83v443h-330v-443z" />
    <glyph glyph-name="rho" unicode="&#x3c1;" horiz-adv-x="659" 
d="M164 -250h-83v510q0 140 63 203.5t202 63.5q138 0 200 -63.5t62 -203.5t-57 -203.5t-184 -63.5q-149 0 -203 89v-332zM209 115q42 -45 137 -45q94 0 138 45q42 45 42 145q0 99 -43 144.5t-137 45.5t-137 -45.5t-43 -144.5q0 -101 43 -145z" />
    <glyph glyph-name="uni03C2" unicode="&#x3c2;" horiz-adv-x="600" 
d="M51 260q0 140 61.5 203.5t197.5 63.5q116 0 176.5 -45.5t75.5 -145.5h-82q-14 59 -54.5 86.5t-114.5 27.5q-94 0 -136 -45t-42 -145q-1 -29 15 -54t37.5 -41.5t58 -32t63 -24t66.5 -19.5q131 -38 131 -93q0 -50 -67 -174l-63 33q44 96 44 114q1 21 -33 37.5t-101.5 37
t-102.5 36.5q-58 24 -94 70.5t-36 109.5z" />
    <glyph glyph-name="sigma" unicode="&#x3c3;" horiz-adv-x="646" 
d="M51 259q0 139 62.5 200t202.5 61h294v-77l-105 -1q75 -56 75 -199q0 -131 -62.5 -190.5t-201.5 -59.5q-140 0 -202.5 63t-62.5 203zM177 399q-44 -44 -44 -142t44 -142q43 -45 139 -45q95 0 138.5 44.5t43.5 142.5q0 97 -43.5 141.5t-138.5 44.5t-139 -44z" />
    <glyph glyph-name="tau" unicode="&#x3c4;" horiz-adv-x="516" 
d="M202 443h-176v77h455v-77h-197v-264q0 -53 25.5 -77t83.5 -24h30v-78h-32q-99 0 -144 40t-45 129v274z" />
    <glyph glyph-name="upsilon" unicode="&#x3c5;" horiz-adv-x="654" 
d="M79 235v285h82v-282q0 -87 39.5 -127.5t126.5 -40.5t126.5 40.5t39.5 127.5v282h83v-285q0 -128 -59 -185t-190 -57q-130 0 -189 57t-59 185z" />
    <glyph glyph-name="phi" unicode="&#x3c6;" horiz-adv-x="770" 
d="M51 261q0 125 50.5 186.5t161.5 71.5v-80q-67 -10 -98.5 -52.5t-31.5 -125.5q0 -96 41.5 -139.5t133.5 -43.5h36v442h120q134 0 194.5 -61.5t60.5 -197.5q0 -137 -60.5 -198.5t-194.5 -61.5h-38v-252h-82v252h-38q-134 0 -194.5 61.5t-60.5 198.5zM426 443v-365h36
q91 0 132.5 43.5t41.5 139.5q0 95 -41.5 138.5t-132.5 43.5h-36z" />
    <glyph glyph-name="chi" unicode="&#x3c7;" horiz-adv-x="604" 
d="M303 202l-168 -202h-104l219 264l-213 256h104l162 -194l161 194h103l-211 -256l218 -264h-104z" />
    <glyph glyph-name="psi" unicode="&#x3c8;" horiz-adv-x="830" 
d="M374 -250v243q-154 7 -224.5 67t-70.5 184v276h82v-272q0 -86 51 -128.5t162 -48.5v449h82v-449q111 6 162 48.5t51 128.5v272h82v-276q0 -125 -70.5 -184.5t-224.5 -66.5v-243h-82z" />
    <glyph glyph-name="omega" unicode="&#x3c9;" horiz-adv-x="887" 
d="M51 253q0 134 58 200.5t183 73.5v-77q-159 -10 -159 -194q0 -92 37.5 -139t107.5 -47q57 0 90.5 30t33.5 87v151h83v-151q0 -58 33.5 -87.5t91.5 -29.5q69 0 106.5 47t37.5 139q0 184 -159 194v77q125 -7 183 -73.5t58 -199.5q0 -261 -214 -261q-137 0 -179 99
q-41 -99 -178 -99q-214 0 -214 260z" />
    <glyph glyph-name="iotadieresis" unicode="&#x3ca;" horiz-adv-x="232" 
d="M157 520v-520h-82v520h82zM-38 649q0 53 53 53q54 0 54 -53q0 -28 -12.5 -40.5t-41.5 -12.5t-41 12t-12 41zM217 702q54 0 54 -53t-54 -53q-29 0 -41.5 12.5t-12.5 40.5q0 53 54 53z" />
    <glyph glyph-name="upsilondieresis" unicode="&#x3cb;" horiz-adv-x="654" 
d="M79 235v285h82v-282q0 -87 39.5 -127.5t126.5 -40.5t126.5 40.5t39.5 127.5v282h83v-285q0 -128 -59 -185t-190 -57q-130 0 -189 57t-59 185zM173 663q0 54 53 54q55 0 55 -54q0 -28 -13 -40.5t-42 -12.5q-28 0 -40.5 12t-12.5 41zM469 623q-13 -13 -41 -13t-40 12
q-13 12 -13 41q0 54 53 54q54 0 54 -54q0 -28 -13 -40z" />
    <glyph glyph-name="omicrontonos" unicode="&#x3cc;" horiz-adv-x="631" 
d="M114 464q63 63 202 63t202 -63q62 -65 62 -204t-62 -203q-63 -64 -202 -64t-202 64q-63 63 -63 203t63 204zM133 260q0 -99 43.5 -144.5t139.5 -45.5q95 0 138.5 45.5t43.5 144.5q0 100 -43 145t-139 45t-139.5 -45t-43.5 -145zM469 781l-145 -191l-45 26l123 201z" />
    <glyph glyph-name="upsilontonos" unicode="&#x3cd;" horiz-adv-x="654" 
d="M327 -7q-130 0 -189 57t-59 185v285h82v-282q0 -87 39.5 -127.5t126.5 -40.5t126.5 40.5t39.5 127.5v282h83v-285q0 -128 -59 -185t-190 -57zM481 795l-146 -190l-45 25l124 201z" />
    <glyph glyph-name="omegatonos" unicode="&#x3ce;" horiz-adv-x="887" 
d="M51 253q0 134 58 200.5t183 73.5v-77q-159 -10 -159 -194q0 -92 37.5 -139t107.5 -47q57 0 90.5 30t33.5 87v151h83v-151q0 -58 33.5 -87.5t91.5 -29.5q69 0 106.5 47t37.5 139q0 184 -159 194v77q125 -7 183 -73.5t58 -199.5q0 -261 -214 -261q-137 0 -179 99
q-41 -99 -178 -99q-214 0 -214 260zM597 781l-146 -191l-45 26l124 201z" />
    <glyph glyph-name="uni0400" unicode="&#x400;" horiz-adv-x="731" 
d="M663 82v-82h-572v700h572v-82h-485v-229h435v-78h-435v-229h485zM440 808l-32 -42l-193 116l47 60z" />
    <glyph glyph-name="uni0401" unicode="&#x401;" horiz-adv-x="731" 
d="M663 82v-82h-572v700h572v-82h-485v-229h435v-78h-435v-229h485zM276 872q54 0 54 -53t-54 -53q-28 0 -40.5 12t-12.5 41q0 53 53 53zM424 819q0 28 12.5 40.5t41.5 12.5q53 0 53 -53t-53 -53q-29 0 -41.5 12t-12.5 41z" />
    <glyph glyph-name="uni0402" unicode="&#x402;" horiz-adv-x="984" 
d="M30 618v82h656v-82h-304v-191q109 16 210 16q175 0 248 -58t73 -193q0 -104 -43 -151.5t-137 -47.5h-34v82h29q51 0 74.5 28.5t23.5 90.5q0 89 -53.5 127.5t-180.5 38.5q-97 0 -210 -16v-344h-88v618h-264z" />
    <glyph glyph-name="uni0403" unicode="&#x403;" horiz-adv-x="623" 
d="M178 0h-87v700h502v-82h-415v-618zM505 882l-194 -116l-31 42l178 134z" />
    <glyph glyph-name="uni0404" unicode="&#x404;" horiz-adv-x="825" 
d="M146 78q-85 84 -85 272t85 273q84 84 272 84q154 0 238 -56.5t108 -178.5h-90q-24 79 -86 116t-170 37q-131 0 -196 -56.5t-73 -179.5h374v-78h-374q8 -123 73 -179.5t196 -56.5q109 0 171 37t85 117h90q-24 -122 -108 -179t-238 -57q-188 0 -272 85z" />
    <glyph glyph-name="uni0405" unicode="&#x405;" horiz-adv-x="710" 
d="M48 193h90q19 -62 74.5 -90t157.5 -28q206 0 206 111q0 51 -51 81q-55 30 -181 49q-162 26 -223 69q-63 43 -63 128q0 194 288 194q141 0 212.5 -47t90.5 -153h-91q-16 61 -68.5 89.5t-149.5 28.5q-196 0 -196 -107q0 -48 48 -73q49 -27 168 -46q169 -28 237 -73
q65 -45 65 -133q0 -200 -301 -200q-144 0 -218.5 47.5t-94.5 152.5z" />
    <glyph glyph-name="uni0406" unicode="&#x406;" horiz-adv-x="270" 
d="M178 0h-87v700h87v-700z" />
    <glyph glyph-name="uni0407" unicode="&#x407;" horiz-adv-x="270" 
d="M178 700v-700h-87v700h87zM-8 779q-12 12 -12 40t13 41q14 12 41 12q54 0 54 -53t-54 -53q-29 0 -42 13zM236 872q53 0 53 -53t-53 -53q-29 0 -41.5 12t-12.5 41q0 28 12.5 40.5t41.5 12.5z" />
    <glyph glyph-name="uni0408" unicode="&#x408;" horiz-adv-x="684" 
d="M40 205v56h88v-56q0 -67 46.5 -98.5t148.5 -31.5q101 0 147.5 41.5t46.5 131.5v452h87v-458q0 -130 -67 -189.5t-214 -59.5q-148 0 -215.5 51t-67.5 161z" />
    <glyph glyph-name="uni0409" unicode="&#x409;" horiz-adv-x="1234" 
d="M48 0v87h36q32 0 48 24q18 26 31 111q15 94 22 254l10 224h503v-289h248q124 0 180.5 -48.5t56.5 -156.5t-56.5 -157t-180.5 -49h-335v618h-334l-6 -150q-11 -196 -30 -292.5t-52.5 -134.5t-97.5 -41h-43zM941 329h-243v-247h243q81 0 118 29.5t37 94.5q0 64 -37 93.5
t-118 29.5z" />
    <glyph glyph-name="uni040A" unicode="&#x40a;" horiz-adv-x="1270" 
d="M178 329v-329h-87v700h87v-289h470v289h87v-289h247q125 0 181 -48.5t56 -156.5t-56.5 -157t-180.5 -49h-334v329h-470zM978 329h-243v-247h243q81 0 117.5 29.5t36.5 94.5t-36.5 94t-117.5 29z" />
    <glyph glyph-name="uni040B" unicode="&#x40b;" horiz-adv-x="984" 
d="M30 618v82h656v-82h-304v-191q109 16 211 16q177 0 248 -58q72 -59 72 -193v-192h-87v184q0 95 -52 135q-53 41 -183 41q-96 0 -209 -16v-344h-88v618h-264z" />
    <glyph glyph-name="uni040C" unicode="&#x40c;" horiz-adv-x="732" 
d="M178 0h-87v700h87v-301h142l259 301h108l-295 -341l317 -359h-110l-279 317h-142v-317zM508 882l-194 -116l-31 42l178 134z" />
    <glyph glyph-name="uni040D" unicode="&#x40d;" horiz-adv-x="849" 
d="M757 0h-87v574l-492 -574h-87v700h87v-573l492 573h87v-700zM309 942l178 -134l-31 -42l-194 116z" />
    <glyph glyph-name="uni040E" unicode="&#x40e;" horiz-adv-x="781" 
d="M353 156l-328 544h99l275 -463l261 463h96l-326 -575q-37 -66 -83.5 -95.5t-113.5 -29.5h-74v71h68q42 0 70.5 20t55.5 65zM164 945h77q0 -55 38.5 -88t111.5 -33q72 0 110.5 33.5t38.5 87.5h78q0 -89 -57 -139t-170 -50q-111 0 -169 50.5t-58 138.5z" />
    <glyph glyph-name="uni040F" unicode="&#x40f;" horiz-adv-x="840" 
d="M91 0v700h87v-618h475v618h87v-700h-281v-170h-87v170h-281z" />
    <glyph glyph-name="uni0410" unicode="&#x410;" horiz-adv-x="809" 
d="M118 0h-93l329 700h101l328 -700h-93l-74 160l-423 -1zM577 242l-172 369l-173 -369h345z" />
    <glyph glyph-name="uni0411" unicode="&#x411;" horiz-adv-x="769" 
d="M481 0h-390v700h572v-82h-485v-202h303q125 0 181 -49t56 -159q0 -109 -56.5 -158.5t-180.5 -49.5zM178 334v-252h298q81 0 118 30.5t37 95.5q0 67 -37 96.5t-118 29.5h-298z" />
    <glyph glyph-name="uni0412" unicode="&#x412;" horiz-adv-x="769" 
d="M496 0h-405v700h380q114 0 165.5 -43t51.5 -138q0 -119 -81 -157q106 -34 106 -173q0 -99 -51.5 -144t-165.5 -45zM496 319h-318v-237h318q71 0 103 28.5t32 90.5t-32.5 90t-102.5 28zM178 618v-222h291q75 0 106 25.5t31 85.5q0 58 -32.5 84.5t-102.5 26.5h-293z" />
    <glyph glyph-name="uni0413" unicode="&#x413;" horiz-adv-x="623" 
d="M178 0h-87v700h502v-82h-415v-618z" />
    <glyph glyph-name="uni0414" unicode="&#x414;" horiz-adv-x="903" 
d="M130 -170h-87v252h89q24 14 38 41q14 29 27 114q12 76 20 236l9 227h514v-618h120v-252h-87v170h-643v-170zM236 82h417v536h-344l-7 -149q-12 -295 -66 -387z" />
    <glyph glyph-name="uni0415" unicode="&#x415;" horiz-adv-x="731" 
d="M663 82v-82h-572v700h572v-82h-485v-229h435v-78h-435v-229h485z" />
    <glyph glyph-name="uni0416" unicode="&#x416;" horiz-adv-x="1066" 
d="M377 317l-249 -317h-105l283 358l-264 342h104l231 -301h112v301h87v-301h112l232 301h104l-265 -342l284 -358h-106l-248 317h-113v-317h-87v317h-112z" />
    <glyph glyph-name="uni0417" unicode="&#x417;" horiz-adv-x="718" 
d="M38 198h83q0 -67 54.5 -97.5t172.5 -30.5t172.5 30.5t54.5 96.5q0 67 -48 96.5t-155 29.5h-134v73h139q100 0 144.5 27.5t44.5 90.5q0 61 -51.5 88.5t-163.5 27.5q-113 0 -164 -28t-51 -89h-83q0 102 70 148t228 46t227.5 -43.5t69.5 -141.5q0 -123 -104 -162
q113 -42 113 -172q0 -102 -73.5 -148.5t-235.5 -46.5t-236 48.5t-74 156.5z" />
    <glyph glyph-name="uni0418" unicode="&#x418;" horiz-adv-x="849" 
d="M757 0h-87v574l-492 -574h-87v700h87v-573l492 573h87v-700z" />
    <glyph glyph-name="uni0419" unicode="&#x419;" horiz-adv-x="849" 
d="M757 0h-87v574l-492 -574h-87v700h87v-573l492 573h87v-700zM198 945h77q0 -55 38.5 -88t111.5 -33q72 0 110.5 33.5t38.5 87.5h78q0 -89 -57 -139t-170 -50q-111 0 -169 50.5t-58 138.5z" />
    <glyph glyph-name="uni041A" unicode="&#x41a;" horiz-adv-x="732" 
d="M178 0h-87v700h87v-301h142l259 301h108l-295 -341l317 -359h-110l-279 317h-142v-317z" />
    <glyph glyph-name="uni041B" unicode="&#x41b;" horiz-adv-x="799" 
d="M91 0h-43v87h36q32 0 48 24q18 26 31 111q15 94 22 254l10 224h513v-700h-87v618h-344l-6 -150q-11 -196 -30 -292.5t-52.5 -134.5t-97.5 -41z" />
    <glyph glyph-name="uni041C" unicode="&#x41c;" horiz-adv-x="1017" 
d="M178 0h-87v700h141l277 -606l276 606h141v-700h-87v617l-280 -617h-101l-280 617v-617z" />
    <glyph glyph-name="uni041D" unicode="&#x41d;" horiz-adv-x="856" 
d="M178 0h-87v700h87v-309h500v309h87v-700h-87v309h-500v-309z" />
    <glyph glyph-name="uni041E" unicode="&#x41e;" 
d="M146 623q84 84 272 84t273 -85t85 -272t-85 -272t-273 -85t-272 85q-85 84 -85 272t85 273zM212 560q-64 -65 -64 -210t64 -209q64 -66 206 -66t207 66q64 64 64 209t-64 210q-65 65 -207 65q-141 0 -206 -65z" />
    <glyph glyph-name="uni041F" unicode="&#x41f;" horiz-adv-x="841" 
d="M178 0h-87v700h659v-700h-87v618h-485v-618z" />
    <glyph glyph-name="uni0420" unicode="&#x420;" horiz-adv-x="716" 
d="M178 0h-87v700h345q124 0 180.5 -52t56.5 -167t-56 -167t-181 -52h-258v-262zM431 618h-253v-274h253q81 0 118 32.5t37 104.5t-37 104.5t-118 32.5z" />
    <glyph glyph-name="uni0421" unicode="&#x421;" horiz-adv-x="825" 
d="M146 78q-85 84 -85 272t85 273q84 84 272 84q154 0 238 -56.5t108 -178.5h-90q-24 79 -86 116t-170 37q-142 0 -206 -65.5t-64 -209.5t64 -209.5t206 -65.5q109 0 171 37t85 117h90q-24 -122 -108 -179t-238 -57q-188 0 -272 85z" />
    <glyph glyph-name="uni0422" unicode="&#x422;" horiz-adv-x="756" 
d="M334 618h-304v82h696v-82h-304v-618h-88v618z" />
    <glyph glyph-name="uni0423" unicode="&#x423;" horiz-adv-x="781" 
d="M353 156l-328 544h99l275 -463l261 463h96l-326 -575q-37 -66 -83.5 -95.5t-113.5 -29.5h-74v71h68q42 0 70.5 20t55.5 65z" />
    <glyph glyph-name="uni0424" unicode="&#x424;" horiz-adv-x="934" 
d="M61 349q0 141 86 204.5t276 63.5v90h88v-90q190 0 276 -63.5t86 -204.5q0 -142 -86 -206.5t-276 -64.5v-85h-88v85q-190 0 -276 64.5t-86 206.5zM511 537v-379q144 2 209.5 47t65.5 144t-65 143.5t-210 44.5zM423 158v379q-144 -1 -209.5 -46t-65.5 -143
q0 -99 65.5 -144.5t209.5 -45.5z" />
    <glyph glyph-name="uni0425" unicode="&#x425;" horiz-adv-x="746" 
d="M319 357l-284 343h107l231 -278l231 278h107l-284 -343l296 -357h-108l-242 292l-242 -292h-108z" />
    <glyph glyph-name="uni0426" unicode="&#x426;" horiz-adv-x="903" 
d="M91 0v700h87v-618h475v618h87v-618h120v-252h-87v170h-682z" />
    <glyph glyph-name="uni0427" unicode="&#x427;" horiz-adv-x="766" 
d="M376 258q-175 0 -248 59q-72 59 -72 191v192h87v-184q0 -95 52 -135q53 -41 184 -41q93 0 209 16v344h87v-700h-87v273q-108 -15 -212 -15z" />
    <glyph glyph-name="uni0428" unicode="&#x428;" horiz-adv-x="1136" 
d="M1045 0h-954v700h87v-618h347v618h87v-618h346v618h87v-700z" />
    <glyph glyph-name="uni0429" unicode="&#x429;" horiz-adv-x="1209" 
d="M91 0v700h87v-618h347v618h87v-618h346v618h87v-618h121v-252h-87v170h-988z" />
    <glyph glyph-name="uni042A" unicode="&#x42a;" horiz-adv-x="967" 
d="M334 618h-304v82h392v-272h257q125 0 181 -50.5t56 -163.5q0 -112 -56.5 -163t-180.5 -51h-345v618zM422 346v-264h253q81 0 117.5 31.5t36.5 100.5q0 70 -36.5 101t-117.5 31h-253z" />
    <glyph glyph-name="uni042B" unicode="&#x42b;" horiz-adv-x="979" 
d="M436 0h-345v700h87v-272h258q125 0 181 -50.5t56 -163.5q0 -112 -56.5 -163t-180.5 -51zM178 346v-264h253q81 0 118 31.5t37 100.5q0 70 -37 101t-118 31h-253zM888 0h-87v700h87v-700z" />
    <glyph glyph-name="uni042C" unicode="&#x42c;" horiz-adv-x="724" 
d="M436 0h-345v700h87v-272h258q125 0 181 -50.5t56 -163.5q0 -112 -56.5 -163t-180.5 -51zM178 346v-264h253q81 0 118 31.5t37 100.5q0 70 -37 101t-118 31h-253z" />
    <glyph glyph-name="uni042D" unicode="&#x42d;" horiz-adv-x="825" 
d="M61 229h90q24 -80 86 -117t170 -37q132 0 196.5 56.5t72.5 179.5h-328v78h328q-8 123 -72.5 179.5t-196.5 56.5q-108 0 -170 -37t-86 -116h-90q25 122 108.5 178.5t237.5 56.5q187 0 272 -84.5t85 -272.5t-85 -272.5t-272 -84.5q-154 0 -237.5 56.5t-108.5 179.5z" />
    <glyph glyph-name="uni042E" unicode="&#x42e;" horiz-adv-x="1116" 
d="M178 309v-309h-87v700h87v-309h173q9 166 93 241t259 75q185 0 268.5 -84.5t83.5 -272.5t-83.5 -272.5t-268.5 -84.5q-175 0 -259 75t-93 241h-173zM501 141q63 -66 202 -66t202 66q63 65 63 209t-63 210q-63 65 -202 65t-202 -65q-63 -66 -63 -210t63 -209z" />
    <glyph glyph-name="uni042F" unicode="&#x42f;" horiz-adv-x="766" 
d="M390 272l-233 -272h-109l234 273q-106 6 -155 57.5t-49 155.5q0 112 56 163t181 51h359v-700h-87v272h-197zM165 486q0 -69 36.5 -100.5t117.5 -31.5h268v264h-268q-81 0 -117.5 -31t-36.5 -101z" />
    <glyph glyph-name="uni0430" unicode="&#x430;" horiz-adv-x="637" 
d="M263 -7q-105 0 -153.5 36.5t-48.5 116.5q0 83 54 119.5t176 36.5h185v7q0 77 -38.5 111.5t-124.5 34.5q-69 0 -106 -22.5t-51 -71.5h-82q15 87 72 126.5t170 39.5q128 0 185.5 -51.5t57.5 -165.5v-310h-83v77q-56 -84 -213 -84zM144 149q0 -44 33.5 -64t103.5 -20
q94 0 140 34.5t55 110.5v29h-166q-87 0 -126.5 -21.5t-39.5 -68.5z" />
    <glyph glyph-name="uni0431" unicode="&#x431;" horiz-adv-x="644" 
d="M326 741l219 16v-77l-211 -16q-95 -7 -139 -50t-50 -145q-3 -50 -2 -86q10 75 56.5 109.5t137.5 34.5q135 0 195.5 -63t60.5 -202q0 -141 -62 -205t-199 -64q-99 0 -155 33t-87 116q-32 87 -32 233q0 190 58 272t210 94zM197 406q-43 -44 -43 -145t43 -145
q42 -46 136 -46q93 0 135.5 45.5t42.5 145.5q0 99 -42.5 144t-135.5 45q-94 0 -136 -44z" />
    <glyph glyph-name="uni0432" unicode="&#x432;" horiz-adv-x="607" 
d="M363 0h-282v520h261q98 0 142.5 -32.5t44.5 -104.5q0 -81 -56 -113q81 -28 81 -127q0 -76 -45 -109.5t-146 -33.5zM355 234h-191v-161h192q61 0 88 19t27 62q0 42 -27 61t-89 19zM164 447v-150h169q60 0 86.5 18t26.5 57t-26.5 57t-86.5 18h-169z" />
    <glyph glyph-name="uni0433" unicode="&#x433;" horiz-adv-x="492" 
d="M164 0h-83v520h386v-77h-303v-443z" />
    <glyph glyph-name="uni0434" unicode="&#x434;" horiz-adv-x="737" 
d="M113 -160h-83v238h71q33 20 50 81q16 63 23 229l6 132h417v-442h97v-238h-82v160h-499v-160zM202 78h312v365h-256l-3 -61q-10 -231 -53 -304z" />
    <glyph glyph-name="uni0435" unicode="&#x435;" horiz-adv-x="626" 
d="M114 57q-63 63 -63 203t63 204q62 63 201 63q138 0 199 -63t61 -204v-24h-440q5 -89 48.5 -130t132.5 -41q128 0 163 89h85q-20 -87 -82 -124t-167 -37q-140 0 -201 64zM316 455q-86 0 -129.5 -37t-50.5 -119h357q-7 82 -49.5 119t-127.5 37z" />
    <glyph glyph-name="uni0436" unicode="&#x436;" horiz-adv-x="872" 
d="M305 226l-173 -226h-101l205 266l-193 254h99l163 -216h90v216h82v-216h89l164 216h98l-192 -254l205 -266h-101l-174 226h-89v-226h-82v226h-90z" />
    <glyph glyph-name="uni0437" unicode="&#x437;" horiz-adv-x="584" 
d="M133 356h-83q13 91 71 131t180 40q114 0 166.5 -34.5t52.5 -111.5q0 -86 -70 -114q80 -29 80 -122q0 -80 -54 -116t-171 -36q-123 0 -182.5 40.5t-71.5 130.5h83q11 -52 50.5 -75.5t117.5 -23.5q75 0 110.5 21.5t35.5 68.5q0 42 -27 60.5t-89 18.5h-102v63h94q60 0 87 18
t27 57q0 83 -140 83q-77 0 -115.5 -23.5t-49.5 -75.5z" />
    <glyph glyph-name="uni0438" unicode="&#x438;" horiz-adv-x="658" 
d="M494 389l-340 -389h-73v520h83v-389l340 389h73v-520h-83v389z" />
    <glyph glyph-name="uni0439" unicode="&#x439;" horiz-adv-x="658" 
d="M154 0h-73v520h83v-389l340 389h73v-520h-83v389zM153 738h68q0 -49 26 -71.5t83 -22.5t83 22.5t26 71.5h68q0 -78 -42.5 -115t-134.5 -37t-134.5 37t-42.5 115z" />
    <glyph glyph-name="uni043A" unicode="&#x43a;" horiz-adv-x="595" 
d="M164 226v-226h-83v520h83v-216h107l179 216h101l-212 -254l225 -266h-102l-191 226h-107z" />
    <glyph glyph-name="uni043B" unicode="&#x43b;" horiz-adv-x="660" 
d="M77 0h-34v82h31q27 1 41 21.5t23.5 85t17.5 199.5l6 132h417v-520h-83v443h-257l-2 -61q-8 -156 -27 -238.5t-49 -112.5t-84 -31z" />
    <glyph glyph-name="uni043C" unicode="&#x43c;" horiz-adv-x="831" 
d="M164 447v-447h-83v520h133l202 -439l201 439h133v-520h-82v447l-208 -447h-88z" />
    <glyph glyph-name="uni043D" unicode="&#x43d;" horiz-adv-x="658" 
d="M164 0h-83v520h83v-221h330v221h83v-520h-83v221h-330v-221z" />
    <glyph glyph-name="uni043E" unicode="&#x43e;" horiz-adv-x="631" 
d="M114 464q63 63 202 63t202 -63q62 -65 62 -204t-62 -203q-63 -64 -202 -64t-202 64q-63 63 -63 203t63 204zM133 260q0 -99 43.5 -144.5t139.5 -45.5q95 0 138.5 45.5t43.5 144.5q0 100 -43 145t-139 45t-139.5 -45t-43.5 -145z" />
    <glyph glyph-name="uni043F" unicode="&#x43f;" horiz-adv-x="658" 
d="M164 0h-83v520h496v-520h-83v443h-330v-443z" />
    <glyph glyph-name="uni0440" unicode="&#x440;" horiz-adv-x="659" 
d="M164 -250h-83v770h83v-82q53 89 203 89q127 0 184 -63.5t57 -203.5t-57 -203.5t-184 -63.5q-149 0 -203 89v-332zM209 115q42 -45 137 -45q94 0 138 45q42 45 42 145q0 99 -43 144.5t-137 45.5t-137 -45.5t-43 -144.5q0 -101 43 -145z" />
    <glyph glyph-name="uni0441" unicode="&#x441;" horiz-adv-x="610" 
d="M310 -7q-136 0 -197.5 63.5t-61.5 203.5t61.5 203.5t197.5 63.5q116 0 176.5 -45.5t75.5 -145.5h-82q-14 59 -54.5 86.5t-114.5 27.5q-94 0 -136 -45t-42 -145q0 -99 42.5 -144.5t135.5 -45.5q74 0 114.5 27.5t54.5 86.5h82q-15 -100 -75.5 -145.5t-176.5 -45.5z" />
    <glyph glyph-name="uni0442" unicode="&#x442;" horiz-adv-x="566" 
d="M242 443h-216v77h515v-77h-217v-443h-82v443z" />
    <glyph glyph-name="uni0443" unicode="&#x443;" horiz-adv-x="577" 
d="M138 -250l106 250l-221 520h88l177 -413l178 413h88l-327 -770h-89z" />
    <glyph glyph-name="uni0444" unicode="&#x444;" horiz-adv-x="819" 
d="M368 1h-62q-134 0 -194.5 61.5t-60.5 198.5q0 136 60.5 197.5t194.5 61.5h62v230h83v-230h62q134 0 194.5 -61.5t60.5 -197.5q0 -137 -60.5 -198.5t-194.5 -61.5h-62v-252h-83v252zM512 443h-61v-365h61q91 0 132.5 43.5t41.5 139.5q0 95 -41.5 138.5t-132.5 43.5z
M133 261q0 -96 41.5 -139.5t133.5 -43.5h60v365h-60q-92 0 -133.5 -43.5t-41.5 -138.5z" />
    <glyph glyph-name="uni0445" unicode="&#x445;" horiz-adv-x="604" 
d="M303 202l-168 -202h-104l219 264l-213 256h104l162 -194l161 194h103l-211 -256l218 -264h-104z" />
    <glyph glyph-name="uni0446" unicode="&#x446;" horiz-adv-x="702" 
d="M582 0h-501v520h83v-442h320v442h83v-442h97v-238h-82v160z" />
    <glyph glyph-name="uni0447" unicode="&#x447;" horiz-adv-x="608" 
d="M58 388v132h83v-132q0 -68 37 -97.5t125 -29.5q45 0 142 11v248h82v-520h-82v195q-84 -12 -153 -12q-126 0 -180 48t-54 157z" />
    <glyph glyph-name="uni0448" unicode="&#x448;" horiz-adv-x="928" 
d="M81 0v520h83v-442h259v442h82v-442h259v442h83v-520h-766z" />
    <glyph glyph-name="uni0449" unicode="&#x449;" horiz-adv-x="993" 
d="M81 0v520h83v-442h259v442h82v-442h259v442h83v-442h108v-238h-83v160h-791z" />
    <glyph glyph-name="uni044A" unicode="&#x44a;" horiz-adv-x="725" 
d="M229 443h-203v77h285v-168h167q104 0 151.5 -42t47.5 -134q0 -93 -47.5 -134.5t-151.5 -41.5h-249v443zM470 274h-159v-196h160q65 0 94 23t29 75t-29.5 75t-94.5 23z" />
    <glyph glyph-name="uni044B" unicode="&#x44b;" horiz-adv-x="799" 
d="M331 0h-250v520h83v-168h166q104 0 151.5 -42t47.5 -134q0 -93 -47 -134.5t-151 -41.5zM323 274h-159v-196h159q65 0 94 23t29 75t-29 75t-94 23zM718 0h-82v520h82v-520z" />
    <glyph glyph-name="uni044C" unicode="&#x44c;" horiz-adv-x="577" 
d="M331 0h-250v520h83v-168h166q104 0 151.5 -42t47.5 -134q0 -93 -47 -134.5t-151 -41.5zM323 274h-159v-196h159q65 0 94 23t29 75t-29 75t-94 23z" />
    <glyph glyph-name="uni044D" unicode="&#x44d;" horiz-adv-x="610" 
d="M130 336h-82q16 100 76 145.5t176 45.5q136 0 197.5 -63.5t61.5 -203.5t-61.5 -203.5t-197.5 -63.5q-116 0 -176.5 45.5t-75.5 145.5h82q14 -59 55 -86.5t114 -27.5q86 0 128.5 38t48.5 120h-219v64h219q-6 83 -48 120.5t-129 37.5q-74 0 -114.5 -27.5t-54.5 -86.5z" />
    <glyph glyph-name="uni044E" unicode="&#x44e;" horiz-adv-x="868" 
d="M164 221v-221h-83v520h83v-221h135q8 119 70.5 173.5t188.5 54.5q137 0 198.5 -63.5t61.5 -203.5t-61.5 -203.5t-198.5 -63.5q-127 0 -189 54t-70 174h-135zM380 260q0 -99 42.5 -144.5t135.5 -45.5t135 45.5t42 144.5q0 101 -41.5 145.5t-135.5 44.5q-93 0 -135.5 -45
t-42.5 -145z" />
    <glyph glyph-name="uni044F" unicode="&#x44f;" horiz-adv-x="606" 
d="M155 0h-99l140 186q-69 11 -101 49.5t-32 112.5q0 91 48 131.5t153 40.5h261v-520h-82v181h-151zM176 421q-30 -23 -30 -73t29 -70t95 -20h173v185h-173q-66 0 -94 -22z" />
    <glyph glyph-name="uni0450" unicode="&#x450;" horiz-adv-x="626" 
d="M315 -7q-139 0 -201.5 63.5t-62.5 203.5t63 204q62 63 201 63t200 -63q60 -64 60 -204v-24h-440q5 -89 48.5 -130t132.5 -41q128 0 163 89h85q-20 -87 -82 -124t-167 -37zM316 455q-86 0 -129.5 -37t-50.5 -119h357q-7 82 -49.5 119t-127.5 37zM377 643l-32 -42l-194 116
l47 60z" />
    <glyph glyph-name="uni0451" unicode="&#x451;" horiz-adv-x="626" 
d="M114 57q-63 63 -63 203t63 204q62 63 201 63q138 0 199 -63t61 -204v-24h-440q5 -89 48.5 -130t132.5 -41q128 0 163 89h85q-20 -87 -82 -124t-167 -37q-140 0 -201 64zM316 455q-86 0 -129.5 -37t-50.5 -119h357q-7 82 -49.5 119t-127.5 37zM159 654q0 53 53 53
q55 0 55 -53q0 -28 -13 -40.5t-42 -12.5q-53 0 -53 53zM374 614q-13 12 -13 40t13 41q12 12 40 12t41 -12q13 -13 13 -41t-12 -40q-13 -13 -42 -13q-28 0 -40 13z" />
    <glyph glyph-name="uni0452" unicode="&#x452;" horiz-adv-x="669" 
d="M88 606h-75v64h75v80h83v-80h231v-64h-231v-166q53 87 198 87q115 0 168 -54t53 -173v-366q0 -97 -42 -140.5t-134 -43.5h-33v77h29q51 0 74.5 25t23.5 80v368q0 78 -39 114t-122 36q-94 0 -135 -44.5t-41 -145.5v-260h-83v606z" />
    <glyph glyph-name="uni0453" unicode="&#x453;" horiz-adv-x="492" 
d="M164 0h-83v520h386v-77h-303v-443zM436 717l-193 -116l-32 42l178 134z" />
    <glyph glyph-name="uni0454" unicode="&#x454;" horiz-adv-x="610" 
d="M113 57q-62 64 -62 203t62 204q61 63 197 63q116 0 176.5 -45.5t75.5 -145.5h-82q-14 59 -54.5 86.5t-114.5 27.5q-87 0 -129 -37.5t-48 -120.5h260v-64h-260q7 -82 49.5 -120t127.5 -38q74 0 114.5 27.5t54.5 86.5h82q-15 -100 -75.5 -145.5t-176.5 -45.5
q-136 0 -197 64z" />
    <glyph glyph-name="uni0455" unicode="&#x455;" horiz-adv-x="577" 
d="M51 154h82q13 -46 53 -67.5t114 -21.5q147 0 147 75q0 32 -38 51.5t-124 32.5q-123 17 -173.5 52.5t-50.5 104.5q0 146 218 146q111 0 168 -38.5t72 -122.5h-82q-14 47 -52 68t-108 21q-67 0 -101.5 -19t-34.5 -53q0 -30 37 -49.5t121 -33.5q128 -20 178 -53
q50 -35 50 -101q0 -153 -229 -153q-113 0 -172.5 38.5t-74.5 122.5z" />
    <glyph glyph-name="uni0456" unicode="&#x456;" horiz-adv-x="245" 
d="M164 0h-83v520h83v-520zM78 630q-13 13 -13 44q0 32 13 45t44 13q32 0 45 -13q14 -14 14 -45q0 -30 -14 -44t-45 -14q-30 0 -44 14z" />
    <glyph glyph-name="uni0457" unicode="&#x457;" horiz-adv-x="232" 
d="M157 520v-520h-82v520h82zM-11 614q-12 12 -12 40t12 41q13 12 41 12q55 0 55 -53q0 -28 -13 -40.5t-42 -12.5q-28 0 -41 13zM148 654q0 28 12.5 40.5t41.5 12.5q53 0 53 -53t-53 -53q-29 0 -41.5 12t-12.5 41z" />
    <glyph glyph-name="uni0458" unicode="&#x458;" horiz-adv-x="245" 
d="M-13 -250h-33v77h29q52 0 75 25t23 80v588h83v-586q0 -97 -42 -140.5t-135 -43.5zM78 630q-13 13 -13 44q0 32 13 45t44 13q32 0 45 -13q14 -14 14 -45q0 -30 -14 -44t-45 -14q-30 0 -44 14z" />
    <glyph glyph-name="uni0459" unicode="&#x459;" horiz-adv-x="992" 
d="M77 0h-34v82h31q27 1 41 21.5t23.5 85t17.5 199.5l6 132h417v-168h166q104 0 151.5 -42t47.5 -134q0 -93 -47 -134.5t-151 -41.5h-250v443h-257l-2 -61q-8 -156 -27 -238.5t-49 -112.5t-84 -31zM738 274h-159v-196h159q65 0 94.5 23t29.5 75t-29.5 75t-94.5 23z" />
    <glyph glyph-name="uni045A" unicode="&#x45a;" horiz-adv-x="990" 
d="M164 0h-83v520h83v-195h330v195h83v-195h166q104 0 151.5 -38.5t47.5 -123.5t-47 -124t-151 -39h-250v248h-330v-248zM736 248h-159v-170h159q65 0 94.5 20t29.5 65q0 44 -29.5 64.5t-94.5 20.5z" />
    <glyph glyph-name="uni045B" unicode="&#x45b;" horiz-adv-x="669" 
d="M88 606h-75v64h75v80h83v-80h231v-64h-231v-166q53 87 198 87q115 0 168 -54t53 -173v-300h-82v300q0 78 -39 114t-122 36q-94 0 -135 -44.5t-41 -145.5v-260h-83v606z" />
    <glyph glyph-name="uni045C" unicode="&#x45c;" horiz-adv-x="595" 
d="M81 0v520h83v-216h107l179 216h101l-212 -254l225 -266h-102l-191 226h-107v-226h-83zM450 717l-194 -116l-31 42l178 134z" />
    <glyph glyph-name="uni045D" unicode="&#x45d;" horiz-adv-x="658" 
d="M154 0h-73v520h83v-389l340 389h73v-520h-83v389zM392 643l-32 -42l-193 116l47 60z" />
    <glyph glyph-name="uni045E" unicode="&#x45e;" horiz-adv-x="577" 
d="M138 -250l106 250l-221 520h88l177 -413l178 413h88l-327 -770h-89zM112 738h68q0 -49 26 -71.5t83 -22.5t83 22.5t26 71.5h68q0 -78 -42.5 -115t-134.5 -37t-134.5 37t-42.5 115z" />
    <glyph glyph-name="uni045F" unicode="&#x45f;" horiz-adv-x="648" 
d="M284 -160v160h-203v520h83v-442h320v442h83v-520h-201v-160h-82z" />
    <glyph glyph-name="uni0490" unicode="&#x490;" horiz-adv-x="603" 
d="M178 0h-87v700h395v166h87v-248h-395v-618z" />
    <glyph glyph-name="uni0491" unicode="&#x491;" horiz-adv-x="492" 
d="M164 0h-83v520h303v156h83v-233h-303v-443z" />
    <glyph glyph-name="uni04D8" unicode="&#x4d8;" 
d="M61 350q0 27 1 34h625q-7 126 -72.5 183.5t-196.5 57.5q-201 0 -250 -139h-93q30 128 126 177q87 44 217 44q188 0 273 -85t85 -272t-85 -272t-273 -85t-272 85q-85 84 -85 272zM685 306h-533q8 -121 73 -176t193 -55t193 54.5t74 176.5z" />
    <glyph glyph-name="uni04D9" unicode="&#x4d9;" horiz-adv-x="626" 
d="M513 57q-61 -64 -201 -64q-139 0 -200 64t-61 203q0 19 1 24h439q-4 88 -47.5 129.5t-132.5 41.5q-128 0 -163 -89h-86q16 61 52.5 98t84.5 50.5t113 12.5q139 0 201 -63.5t62 -203.5q0 -138 -62 -203zM490 221h-356q7 -83 49 -119.5t128 -36.5q85 0 128.5 37.5
t50.5 118.5z" />
    <glyph glyph-name="Wgrave" unicode="&#x1e80;" horiz-adv-x="1174" 
d="M279 0l-254 700h90l215 -596l210 596h93l212 -596l213 596h90l-253 -700h-101l-207 578l-207 -578h-101zM618 766l-193 116l47 60l178 -134z" />
    <glyph glyph-name="wgrave" unicode="&#x1e81;" horiz-adv-x="858" 
d="M293 0h-93l-177 520h86l136 -422l143 422h82l142 -416l137 416h86l-177 -520h-92l-137 401zM461 601l-194 116l47 60l179 -134z" />
    <glyph glyph-name="Wacute" unicode="&#x1e82;" horiz-adv-x="1174" 
d="M279 0l-254 700h90l215 -596l210 596h93l212 -596l213 596h90l-253 -700h-101l-207 578l-207 -578h-101zM749 882l-193 -116l-32 42l178 134z" />
    <glyph glyph-name="wacute" unicode="&#x1e83;" horiz-adv-x="858" 
d="M293 0h-93l-177 520h86l136 -422l143 422h82l142 -416l137 416h86l-177 -520h-92l-137 401zM398 601l-31 42l178 134l47 -60z" />
    <glyph glyph-name="Wdieresis" unicode="&#x1e84;" horiz-adv-x="1174" 
d="M279 0l-254 700h90l215 -596l210 596h93l212 -596l213 596h90l-253 -700h-101l-207 578l-207 -578h-101zM433 819q0 53 53 53q54 0 54 -53t-54 -53q-28 0 -40.5 12t-12.5 41zM634 819q0 28 12.5 40.5t41.5 12.5q53 0 53 -53t-53 -53q-29 0 -41.5 12t-12.5 41z" />
    <glyph glyph-name="wdieresis" unicode="&#x1e85;" horiz-adv-x="858" 
d="M293 0h-93l-177 520h86l136 -422l143 422h82l142 -416l137 416h86l-177 -520h-92l-137 401zM275 654q0 53 53 53q55 0 55 -53q0 -28 -13 -40.5t-42 -12.5q-53 0 -53 53zM490 614q-13 12 -13 40t13 41q12 12 40 12t41 -12q13 -13 13 -41t-12 -40q-13 -13 -42 -13
q-28 0 -40 13z" />
    <glyph glyph-name="Germandbls" unicode="&#x1e9e;" horiz-adv-x="788" 
d="M374 700h324v-64l-219 -247h26q114 0 172 -52t58 -151q0 -96 -56 -141t-173 -45h-178v82h178q146 0 146 119q0 118 -147 118h-133v70l202 229h-203q-103 0 -150.5 -41.5t-47.5 -131.5v-445h-87v451q0 130 68.5 189.5t219.5 59.5z" />
    <glyph glyph-name="Ygrave" unicode="&#x1ef2;" horiz-adv-x="779" 
d="M346 0v284l-321 416h105l260 -332l259 332h104l-320 -416v-284h-87zM421 766l-194 116l47 60l178 -134z" />
    <glyph glyph-name="ygrave" unicode="&#x1ef3;" horiz-adv-x="577" 
d="M244 0l-221 520h88l177 -413l178 413h88l-327 -770h-89zM352 643l-32 -42l-193 116l47 60z" />
    <glyph glyph-name="figuredash" unicode="&#x2012;" horiz-adv-x="670" 
d="M600 311h-530v78h530v-78z" />
    <glyph glyph-name="endash" unicode="&#x2013;" horiz-adv-x="600" 
d="M540 231h-480v78h480v-78z" />
    <glyph glyph-name="emdash" unicode="&#x2014;" horiz-adv-x="1000" 
d="M940 231h-880v78h880v-78z" />
    <glyph glyph-name="quoteleft" unicode="&#x2018;" horiz-adv-x="252" 
d="M125 552q31 0 44.5 -14t13.5 -45q0 -60 -58 -60q-60 0 -60 60v52q0 85 30 123.5t96 38.5v-37q-75 0 -75 -117v-2q2 0 6 1h3z" />
    <glyph glyph-name="quoteright" unicode="&#x2019;" horiz-adv-x="252" 
d="M136 588v2q-2 -1 -8 -1q-32 0 -45.5 13.5t-13.5 45.5q0 59 59 59t59 -59v-52q0 -85 -30 -124t-96 -39v38q75 0 75 117z" />
    <glyph glyph-name="quotesinglbase" unicode="&#x201a;" horiz-adv-x="252" 
d="M136 -10v2q-37 0 -52 12.5t-15 46.5q0 59 59 59t59 -59v-52q0 -85 -30 -124t-96 -39v38q39 0 57 28t18 88z" />
    <glyph glyph-name="quotereversed" unicode="&#x201b;" horiz-adv-x="252" 
d="M116 590v-2q0 -117 75 -117v-38q-66 0 -96 39t-30 124v52q0 59 60 59q31 0 45 -14q13 -13 13 -45t-13 -45q-14 -14 -45 -14q-7 0 -9 1z" />
    <glyph glyph-name="quotedblleft" unicode="&#x201c;" horiz-adv-x="426" 
d="M65 493v52q0 85 30 123.5t96 38.5v-37q-75 0 -75 -117v-2q2 0 6 1h3q31 0 44.5 -14t13.5 -45q0 -60 -58 -60q-60 0 -60 60zM239 493v52q0 85 30 123.5t96 38.5v-37q-39 0 -56.5 -28.5t-17.5 -88.5v-2l3 1h5q31 0 44.5 -14t13.5 -45q0 -60 -58 -60q-60 0 -60 60z" />
    <glyph glyph-name="quotedblright" unicode="&#x201d;" horiz-adv-x="426" 
d="M235 433v38q75 0 75 117v2q-2 -1 -8 -1q-32 0 -45.5 13.5t-13.5 45.5q0 59 59 59t59 -59v-52q0 -85 -30 -124t-96 -39zM61 433v38q75 0 75 117v2q-2 -1 -8 -1q-32 0 -45.5 13.5t-13.5 45.5q0 59 59 59t59 -59v-52q0 -85 -30 -124t-96 -39z" />
    <glyph glyph-name="quotedblbase" unicode="&#x201e;" horiz-adv-x="426" 
d="M235 -164v38q39 0 57 28t18 88v2q-37 0 -52 12.5t-15 46.5q0 59 59 59t59 -59v-52q0 -86 -29.5 -124.5t-96.5 -38.5zM61 -164v38q39 0 57 28t18 88v2q-37 0 -52 12.5t-15 46.5q0 59 59 59t59 -59v-52q0 -85 -30 -124t-96 -39z" />
    <glyph glyph-name="uni201F" unicode="&#x201f;" horiz-adv-x="426" 
d="M65 596v52q0 59 60 59q31 0 45 -14q13 -13 13 -45t-13 -45q-14 -14 -45 -14q-7 0 -9 1v-2q0 -117 75 -117v-38q-66 0 -96 39t-30 124zM239 596v52q0 59 60 59q31 0 45 -14q13 -13 13 -45t-13 -45q-14 -14 -45 -14q-7 0 -8 1v-2q0 -60 17.5 -88.5t56.5 -28.5v-38
q-66 0 -96 39t-30 124z" />
    <glyph glyph-name="dagger" unicode="&#x2020;" horiz-adv-x="686" 
d="M306 431h-250v68h250v251h73v-251h251v-68h-251v-581h-73v581z" />
    <glyph glyph-name="daggerdbl" unicode="&#x2021;" horiz-adv-x="686" 
d="M56 431v68h250v251h73v-251h251v-68h-251v-262h251v-68h-251v-251h-73v251h-250v68h250v262h-250z" />
    <glyph glyph-name="bullet" unicode="&#x2022;" horiz-adv-x="315" 
d="M60 270q0 51 22.5 74t74.5 23q50 0 73.5 -23.5t23.5 -73.5q0 -52 -23 -74.5t-74 -22.5q-53 0 -75 22.5t-22 74.5z" />
    <glyph glyph-name="ellipsis" unicode="&#x2026;" horiz-adv-x="745" 
d="M572 8q-15 14 -15 48t15 49t49 15q33 0 48.5 -15t15.5 -49q0 -63 -64 -63q-34 0 -49 15zM75 8q-15 14 -15 48t15 49t49 15t49 -15t15 -49t-15 -48q-15 -15 -49 -15t-49 15zM324 105q14 15 48 15t50 -15q15 -15 15 -49q0 -33 -15.5 -48t-49.5 -15t-48 15q-15 14 -15 48
t15 49z" />
    <glyph glyph-name="perthousand" unicode="&#x2030;" horiz-adv-x="1319" 
d="M86 660q41 47 129 47t129 -47q40 -47 40 -152t-40 -152.5t-129 -47.5t-129 47.5t-40 152.5t40 152zM975 345q41 47 129 47t129 -47q40 -47 40 -153q0 -104 -40 -151.5t-129 -47.5t-129.5 47.5t-40.5 151.5t41 153zM530 192q0 105 40 152.5t129 47.5q90 0 130 -47.5
t40 -152.5t-40 -152t-130 -47q-89 0 -129 47.5t-40 151.5zM721 668l-471 -675l-58 39l472 675zM1007 192q0 -68 23.5 -99.5t73.5 -31.5q51 0 73.5 31t22.5 100q0 70 -22.5 101t-73.5 31t-74 -31t-23 -101zM603 192q0 -68 23 -99.5t73 -31.5q51 0 74 31t23 100
q0 70 -22.5 101t-74.5 31q-50 0 -73 -31t-23 -101zM215 376q51 0 74 31.5t23 100.5q0 70 -22.5 100.5t-74.5 30.5q-51 0 -74 -31t-23 -100t23.5 -100.5t73.5 -31.5z" />
    <glyph glyph-name="guilsinglleft" unicode="&#x2039;" horiz-adv-x="286" 
d="M233 44l-63 -31l-124 257l124 257l63 -31l-109 -226z" />
    <glyph glyph-name="guilsinglright" unicode="&#x203a;" horiz-adv-x="286" 
d="M162 270l-109 226l63 31l124 -257l-124 -257l-63 31z" />
    <glyph glyph-name="fraction" unicode="&#x2044;" horiz-adv-x="164" 
d="M-128 0h-66l486 700h66z" />
    <glyph glyph-name="uni2070" unicode="&#x2070;" horiz-adv-x="361" 
d="M62 712q38 42 119 42t119 -42q36 -44 36 -137q0 -94 -36 -136q-37 -43 -119 -43t-119 43q-37 41 -37 136q0 94 37 137zM84 575q0 -64 23.5 -94t73.5 -30q51 0 73.5 29.5t22.5 94.5q0 66 -22.5 95.5t-73.5 29.5q-50 0 -73.5 -29.5t-23.5 -95.5z" />
    <glyph glyph-name="uni2074" unicode="&#x2074;" horiz-adv-x="345" 
d="M336 527v-56h-58v-71h-58v71h-203v56l171 223h90v-223h58zM220 703l-134 -176h134v176z" />
    <glyph glyph-name="uni2075" unicode="&#x2075;" horiz-adv-x="338" 
d="M26 504h60q0 -53 81 -53q46 0 67 15t21 48q0 34 -23 49t-74 15q-64 0 -64 -27h-56v199h251v-56h-195v-81q24 18 83 18q70 0 103 -28t33 -89q0 -62 -34.5 -90t-111.5 -28q-74 0 -107.5 25.5t-33.5 82.5z" />
    <glyph glyph-name="uni2076" unicode="&#x2076;" horiz-adv-x="336" 
d="M25 504v121q0 68 33.5 98.5t107.5 30.5t107 -24t33 -79h-59q0 49 -81 49q-43 0 -62.5 -17t-19.5 -55v-41q18 33 86 33q77 0 112 -26.5t35 -85.5t-35 -85q-34 -27 -111 -27q-76 0 -111 26t-35 82zM84 509q0 -30 20.5 -44t66.5 -14t66.5 14t20.5 44q0 31 -20.5 44.5
t-66.5 13.5t-66.5 -13.5t-20.5 -44.5z" />
    <glyph glyph-name="uni2077" unicode="&#x2077;" horiz-adv-x="297" 
d="M8 695v55h278v-55l-184 -295h-67l184 295h-211z" />
    <glyph glyph-name="uni2078" unicode="&#x2078;" horiz-adv-x="340" 
d="M74 580q-46 22 -46 80q0 50 34 72t109 22t108.5 -22t33.5 -72q0 -58 -46 -80q51 -22 51 -84q0 -53 -35 -76.5t-113 -23.5t-112.5 23.5t-34.5 76.5q0 62 51 84zM170 451q47 0 67.5 12t20.5 39t-20.5 39t-67.5 12q-46 0 -67 -12t-21 -39q0 -51 88 -51zM87 653q0 -25 20 -36
t64 -11q43 0 63 11q19 10 19 36t-19 36q-20 11 -63 11q-84 0 -84 -47z" />
    <glyph glyph-name="uni2079" unicode="&#x2079;" horiz-adv-x="331" 
d="M54 727q34 27 109 27q76 0 110 -25t34 -83v-121q0 -68 -34 -98.5t-109 -30.5q-74 0 -107.5 24.5t-33.5 78.5h59q0 -48 82 -48q44 0 64 17t20 55v40q-17 -36 -85 -36q-76 0 -109.5 27t-33.5 87q0 59 34 86zM78 640q0 -61 85 -61t85 61q0 60 -85 60t-85 -60z" />
    <glyph glyph-name="uni207A" unicode="&#x207a;" horiz-adv-x="335" 
d="M33 547v56h107v107h56v-107h107v-56h-107v-107h-56v107h-107z" />
    <glyph glyph-name="uni207B" unicode="&#x207b;" horiz-adv-x="335" 
d="M303 547h-270v56h270v-56z" />
    <glyph glyph-name="uni207C" unicode="&#x207c;" horiz-adv-x="336" 
d="M303 612h-270v55h270v-55zM33 483v55h270v-55h-270z" />
    <glyph glyph-name="uni207D" unicode="&#x207d;" horiz-adv-x="187" 
d="M45 563q0 125 30 181t97 56v-48q-39 0 -57 -45t-18 -144t18 -144.5t57 -45.5v-48q-66 0 -96.5 57t-30.5 181z" />
    <glyph glyph-name="uni207E" unicode="&#x207e;" horiz-adv-x="187" 
d="M15 752v48q67 0 97 -56t30 -181t-30 -181.5t-97 -56.5v48q39 0 57.5 45.5t18.5 144.5q0 100 -18 144.5t-58 44.5z" />
    <glyph glyph-name="uni207F" unicode="&#x207f;" horiz-adv-x="319" 
d="M92 530v-130h-60v260h60v-29q26 33 88 33q56 0 81.5 -27.5t25.5 -88.5v-148h-59v148q0 62 -65 62q-38 0 -54.5 -19t-16.5 -61z" />
    <glyph glyph-name="uni2080" unicode="&#x2080;" horiz-adv-x="361" 
d="M62 212q37 42 119 42q81 0 119 -42q36 -44 36 -137t-36 -137q-38 -42 -119 -42t-119 42q-37 43 -37 137t37 137zM84 75q0 -64 23.5 -94t73.5 -30q51 0 73.5 29.5t22.5 94.5q0 66 -22.5 95.5t-73.5 29.5q-50 0 -73.5 -29.5t-23.5 -95.5z" />
    <glyph glyph-name="uni2081" unicode="&#x2081;" horiz-adv-x="246" 
d="M48 117l-32 47l136 86h41v-350h-59v272z" />
    <glyph glyph-name="uni2082" unicode="&#x2082;" horiz-adv-x="317" 
d="M159 254q72 0 104 -25t32 -82q0 -72 -61 -91l-117 -37q-30 -11 -30 -43v-21h209v-55h-268v65q0 79 62 99l117 38q29 11 29 42q0 56 -78 56t-78 -54h-59q0 57 33 82.5t105 25.5z" />
    <glyph glyph-name="uni2083" unicode="&#x2083;" horiz-adv-x="313" 
d="M15 4h58q0 -53 80 -53q79 0 79 52q0 27 -20.5 38.5t-66.5 11.5h-17v52h19q43 0 61.5 11t18.5 36q0 26 -16.5 37t-55.5 11q-74 0 -74 -48h-59q0 54 31.5 78t101.5 24q69 0 100.5 -22t31.5 -72q0 -59 -46 -81q50 -23 50 -83q0 -52 -33 -76t-105 -24q-73 0 -105.5 25.5
t-32.5 82.5z" />
    <glyph glyph-name="uni2084" unicode="&#x2084;" horiz-adv-x="345" 
d="M336 27v-56h-58v-71h-58v71h-203v56l171 223h90v-223h58zM220 203l-134 -176h134v176z" />
    <glyph glyph-name="uni2085" unicode="&#x2085;" horiz-adv-x="338" 
d="M26 4h60q0 -53 81 -53q46 0 67 15t21 48q0 34 -23 49t-74 15q-64 0 -64 -27h-56v199h251v-56h-195v-81q24 18 83 18q70 0 103 -28t33 -89q0 -62 -34.5 -90t-111.5 -28q-74 0 -107.5 25.5t-33.5 82.5z" />
    <glyph glyph-name="uni2086" unicode="&#x2086;" horiz-adv-x="336" 
d="M25 4v121q0 68 33.5 98.5t107.5 30.5t107 -24t33 -79h-59q0 49 -81 49q-43 0 -62.5 -17t-19.5 -55v-41q18 33 86 33q77 0 112 -26.5t35 -85.5t-34.5 -85.5t-111.5 -26.5q-76 0 -111 26t-35 82zM84 9q0 -30 20.5 -44t66.5 -14t66.5 14t20.5 44q0 31 -20.5 44.5t-66.5 13.5
t-66.5 -13.5t-20.5 -44.5z" />
    <glyph glyph-name="uni2087" unicode="&#x2087;" horiz-adv-x="297" 
d="M8 195v55h278v-55l-184 -295h-67l184 295h-211z" />
    <glyph glyph-name="uni2088" unicode="&#x2088;" horiz-adv-x="340" 
d="M74 80q-46 22 -46 80q0 50 34 72t109 22t108.5 -22t33.5 -72q0 -58 -46 -80q51 -22 51 -84q0 -53 -35 -76.5t-113 -23.5t-112.5 23.5t-34.5 76.5q0 62 51 84zM170 -49q47 0 67.5 12t20.5 39t-20.5 39t-67.5 12q-46 0 -67 -12t-21 -39q0 -51 88 -51zM87 153q0 -25 20 -36
t64 -11q43 0 63 11q19 10 19 36t-19 36q-20 11 -63 11q-84 0 -84 -47z" />
    <glyph glyph-name="uni2089" unicode="&#x2089;" horiz-adv-x="331" 
d="M54 227q34 27 109 27q76 0 110 -25t34 -83v-121q0 -68 -34 -98.5t-109 -30.5q-74 0 -107.5 24.5t-33.5 78.5h59q0 -48 82 -48q44 0 64 17t20 55v40q-17 -36 -85 -36q-76 0 -109.5 27t-33.5 87q0 59 34 86zM78 140q0 -61 85 -61t85 61q0 60 -85 60t-85 -60z" />
    <glyph glyph-name="uni208A" unicode="&#x208a;" horiz-adv-x="335" 
d="M33 47v56h107v107h56v-107h107v-56h-107v-107h-56v107h-107z" />
    <glyph glyph-name="uni208B" unicode="&#x208b;" horiz-adv-x="335" 
d="M303 47h-270v56h270v-56z" />
    <glyph glyph-name="uni208C" unicode="&#x208c;" horiz-adv-x="336" 
d="M303 112h-270v55h270v-55zM33 -17v55h270v-55h-270z" />
    <glyph glyph-name="uni208D" unicode="&#x208d;" horiz-adv-x="187" 
d="M76 -119q-31 56 -31 182q0 125 30 181t97 56v-48q-39 0 -57 -45t-18 -144t18 -144.5t57 -45.5v-48q-66 0 -96 56z" />
    <glyph glyph-name="uni208E" unicode="&#x208e;" horiz-adv-x="187" 
d="M15 252v48q67 0 97 -56t30 -181t-30 -181.5t-97 -56.5v48q39 0 57.5 45.5t18.5 144.5q0 100 -18 144.5t-58 44.5z" />
    <glyph glyph-name="Euro" unicode="&#x20ac;" horiz-adv-x="877" 
d="M202 302h325v-54h-317q20 -90 83 -131.5t177 -41.5q109 0 171 37t85 117h90q-24 -122 -108 -179t-238 -57q-160 0 -244.5 61.5t-105.5 193.5h-107v54h101q-1 12 -1 48t1 48h-101v54h107q21 132 105.5 193.5t244.5 61.5q154 0 238 -56.5t108 -178.5h-90q-24 79 -86 116
t-170 37q-114 0 -177 -41.5t-83 -131.5h317v-54h-325q-4 -48 0 -96z" />
    <glyph glyph-name="uni20B4" unicode="&#x20b4;" horiz-adv-x="774" 
d="M48 390v54h515q36 26 36 69q0 112 -196 112q-97 0 -150 -28.5t-69 -90.5h-90q19 105 91 153t211 48q289 0 289 -189q0 -42 -20 -74h61v-54h-118q-38 -24 -132 -45q-100 -24 -125 -35h375v-54h-534q-25 -25 -25 -65q0 -116 205 -116q103 0 158.5 28t73.5 90h91
q-20 -105 -95 -152.5t-219 -47.5q-300 0 -300 195q0 37 14 68h-47v54h98q37 32 158 60q47 9 77 20h-333z" />
    <glyph glyph-name="uni20BF" unicode="&#x20bf;" horiz-adv-x="769" 
d="M221 0h-130v700h130v123h58v-123h161v123h59v-124q99 -4 144 -47t45 -133q0 -119 -81 -157q106 -34 106 -173q0 -98 -51 -143t-163 -46v-123h-59v123h-161v-123h-58v123zM496 319h-318v-237h318q71 0 103 28.5t32 90.5t-32.5 90t-102.5 28zM178 618v-222h291
q75 0 106 25.5t31 85.5q0 58 -32.5 84.5t-102.5 26.5h-293z" />
    <glyph glyph-name="uni2113" unicode="&#x2113;" horiz-adv-x="447" 
d="M124 216l-80 -40v67q36 16 80 42v265q0 71 36 115t94 44q59 0 96.5 -45.5t37.5 -116.5q0 -159 -201 -293v-122q0 -33 20 -55.5t48 -22.5q22 0 47 17t38 37l12 19l41 -42q-6 -10 -25 -32q-17 -18 -30 -29q-41 -33 -87 -33q-52 0 -89 43q-38 43 -38 104v78zM187 552v-225
q138 103 138 219q0 45 -19.5 72t-50.5 27q-30 0 -49 -26t-19 -67z" />
    <glyph glyph-name="uni2116" unicode="&#x2116;" horiz-adv-x="1239" 
d="M178 0h-87v700h87l492 -574v574h87v-700h-87l-492 573v-573zM894 667q40 40 129 40q90 0 130 -40t40 -130q0 -89 -40.5 -129.5t-129.5 -40.5t-129.5 40.5t-40.5 129.5t41 130zM940 623q-26 -26 -26 -83t26 -83t83 -26t83 26t26 83t-26 83t-83 26t-83 -26zM1193 213h-330
v63h330v-63z" />
    <glyph glyph-name="uni2117" unicode="&#x2117;" horiz-adv-x="846" 
d="M66 351q0 187 85 271.5t272 84.5t272 -84.5t85 -271.5q0 -188 -84.5 -273t-272.5 -85t-272.5 85t-84.5 273zM659 586q-73 73 -236 73q-162 0 -235 -73q-74 -74 -74 -236q0 -161 74 -235t235 -74q162 0 236 74q73 73 73 235q0 163 -73 236zM296 174v350h177q65 0 94 -28
t29 -89q0 -62 -29 -90t-94 -28h-107v-115h-70zM366 459v-106h101q59 0 59 54q0 28 -14 40t-45 12h-101z" />
    <glyph glyph-name="trademark" unicode="&#x2122;" horiz-adv-x="886" 
d="M408 350v350h113l108 -273l106 273h113v-350h-69v287l-115 -287h-71l-116 287v-287h-69zM15 635v65h342v-65h-136v-285h-70v285h-136z" />
    <glyph glyph-name="estimated" unicode="&#x212e;" horiz-adv-x="829" 
d="M414 -7q-147 0 -252 105q-105 104 -105 252t105 253q104 104 252 104q147 0 253 -104q104 -106 104 -253h-530v-264q83 -53 173 -53q89 0 164 45.5t117 124.5h44q-44 -97 -131 -153q-88 -57 -194 -57zM587 390v224q-79 53 -173 53t-173 -53v-224h346z" />
    <glyph glyph-name="uni2150" unicode="&#x2150;" horiz-adv-x="737" 
d="M634 700l-486 -700h-66l486 700h66zM659 295h-211v55h278v-55l-184 -295h-68zM48 567l-32 47l136 86h41v-350h-59v272z" />
    <glyph glyph-name="uni2151" unicode="&#x2151;" horiz-adv-x="771" 
d="M494 327q34 27 109 27q76 0 110 -25t34 -83v-121q0 -68 -34 -98.5t-109 -30.5q-74 0 -107.5 24.5t-33.5 78.5h59q0 -48 82 -48q44 0 63.5 17t19.5 55v40q-17 -36 -85 -36q-75 0 -109 27t-34 87q0 59 35 86zM634 700l-486 -700h-66l486 700h66zM48 567l-32 47l136 86h41
v-350h-59v272zM518 240q0 -61 85 -61q84 0 84 61q0 60 -84 60q-85 0 -85 -60z" />
    <glyph glyph-name="uni2152" unicode="&#x2152;" horiz-adv-x="1052" 
d="M753 39q-37 41 -37 136q0 94 37 137q37 42 119 42t119 -42q36 -43 36 -137t-36 -136q-37 -43 -119 -43t-119 43zM153 0h-66l486 700h66zM775 175q0 -64 23.5 -94t73.5 -30q51 0 73.5 29.5t22.5 94.5q0 66 -22.5 95.5t-73.5 29.5q-50 0 -73.5 -29.5t-23.5 -95.5zM493 217
l-33 47l137 86h40v-350h-59v272zM48 567l-32 47l136 86h41v-350h-59v272z" />
    <glyph glyph-name="onethird" unicode="&#x2153;" horiz-adv-x="753" 
d="M454 104h59q0 -28 19 -40.5t61 -12.5q79 0 79 52q0 27 -20.5 38.5t-67.5 11.5h-16v52h19q80 0 80 47q0 48 -73 48t-73 -48h-59q0 54 31.5 78t100.5 24q70 0 101.5 -22t31.5 -72q0 -59 -46 -81q50 -23 50 -83q0 -52 -33 -76t-105 -24q-73 0 -106 25.5t-33 82.5zM148 0h-66
l486 700h66zM48 567l-32 47l136 86h41v-350h-59v272z" />
    <glyph glyph-name="twothirds" unicode="&#x2154;" horiz-adv-x="794" 
d="M159 704q72 0 104 -25t32 -82q0 -72 -61 -91l-117 -37q-30 -11 -30 -43v-20h209v-56h-268v65q0 79 62 99l117 38q29 11 29 42q0 56 -78 56t-78 -54h-59q0 57 33 82.5t105 25.5zM495 104h59q0 -53 80 -53q79 0 79 52q0 27 -20.5 38.5t-67.5 11.5h-16v52h19q80 0 80 47
q0 48 -73 48t-73 -48h-59q0 54 31.5 78t100.5 24q70 0 101.5 -22t31.5 -72q0 -59 -46 -81q50 -23 50 -83q0 -52 -33 -76t-105 -24q-73 0 -106 25.5t-33 82.5zM675 700l-486 -700h-66l486 700h66z" />
    <glyph glyph-name="uni2155" unicode="&#x2155;" horiz-adv-x="778" 
d="M466 104h59q0 -53 81 -53q46 0 67 15t21 48q0 34 -22.5 49t-74.5 15q-64 0 -64 -27h-55v199h250v-56h-195v-81q25 18 84 18q70 0 103 -28t33 -89q0 -62 -34.5 -90t-111.5 -28q-74 0 -107.5 25.5t-33.5 82.5zM634 700l-486 -700h-66l486 700h66zM48 567l-32 47l136 86h41
v-350h-59v272z" />
    <glyph glyph-name="uni2156" unicode="&#x2156;" horiz-adv-x="819" 
d="M507 104h59q0 -53 81 -53q46 0 67 15t21 48q0 34 -22.5 49t-74.5 15q-64 0 -64 -27h-55v199h250v-56h-195v-81q26 18 84 18q70 0 103 -28t33 -89q0 -62 -34.5 -90t-111.5 -28q-74 0 -107.5 25.5t-33.5 82.5zM80 596h-59q0 57 33 82.5t105 25.5t104 -25t32 -82
q0 -72 -61 -91l-117 -37q-30 -11 -30 -43v-20h209v-56h-268v65q0 79 62 99l117 38q29 11 29 42q0 56 -78 56t-78 -54zM675 700l-486 -700h-66l486 700h66z" />
    <glyph glyph-name="uni2157" unicode="&#x2157;" horiz-adv-x="815" 
d="M503 104h59q0 -53 82 -53q46 0 66.5 15t20.5 48q0 34 -22.5 49t-74.5 15q-64 0 -64 -27h-55v199h251v-56h-196v-81q27 18 84 18q70 0 103 -28t33 -89q0 -62 -34.5 -90t-111.5 -28q-74 0 -107.5 25.5t-33.5 82.5zM15 454h58q0 -53 80 -53q79 0 79 52q0 27 -20.5 38.5
t-66.5 11.5h-17v52h19q43 0 61.5 11t18.5 36q0 26 -16.5 37t-55.5 11q-74 0 -74 -48h-59q0 54 31.5 78t101.5 24q69 0 100.5 -22t31.5 -72q0 -59 -46 -81q50 -23 50 -83q0 -52 -33 -76t-105 -24q-73 0 -105.5 25.5t-32.5 82.5zM185 0h-66l486 700h66z" />
    <glyph glyph-name="uni2158" unicode="&#x2158;" horiz-adv-x="847" 
d="M336 477v-56h-58v-71h-58v71h-203v56l171 223h90v-223h58zM535 104h59q0 -53 82 -53q45 0 66 15t21 48q0 34 -22.5 49t-74.5 15q-64 0 -64 -27h-55v199h250v-56h-195v-81q27 18 84 18q70 0 103 -28t33 -89q0 -62 -34.5 -90t-111.5 -28q-74 0 -107.5 25.5t-33.5 82.5z
M703 700l-486 -700h-66l486 700h66zM220 653l-134 -176h134v176z" />
    <glyph glyph-name="uni2159" unicode="&#x2159;" horiz-adv-x="776" 
d="M465 104v121q0 68 33 98.5t107 30.5t107.5 -24t33.5 -79h-59q0 26 -19.5 37.5t-62.5 11.5t-62 -17t-19 -55v-41q18 33 86 33q77 0 112 -26.5t35 -85.5t-35 -85q-34 -27 -111 -27q-76 0 -111 26t-35 82zM634 700l-486 -700h-66l486 700h66zM48 567l-32 47l136 86h41v-350
h-59v272zM524 109q0 -30 20.5 -44t66.5 -14q86 0 86 58q0 31 -20 44.5t-66 13.5t-66.5 -13.5t-20.5 -44.5z" />
    <glyph glyph-name="uni215A" unicode="&#x215a;" horiz-adv-x="837" 
d="M526 104v121q0 68 33.5 98.5t107.5 30.5t107 -24t33 -79h-59q0 49 -81 49q-43 0 -62.5 -17t-19.5 -55v-41q18 33 87 33q76 0 111 -26.5t35 -85.5t-34.5 -85.5t-110.5 -26.5q-77 0 -112 26t-35 82zM26 454h60q0 -53 81 -53q46 0 67 15t21 48q0 34 -23 49t-74 15
q-64 0 -64 -27h-56v199h251v-56h-195v-81q24 18 83 18q70 0 103 -28t33 -89q0 -62 -34.5 -90t-111.5 -28q-74 0 -107.5 25.5t-33.5 82.5zM696 700l-486 -700h-67l487 700h66zM673 51q86 0 86 58q0 31 -20 44.5t-66 13.5q-47 0 -67.5 -13.5t-20.5 -44.5q0 -58 88 -58z" />
    <glyph glyph-name="oneeighth" unicode="&#x215b;" horiz-adv-x="780" 
d="M513 180q-45 22 -45 80q0 50 34 72t109 22t108.5 -22t33.5 -72q0 -58 -46 -80q51 -22 51 -84q0 -53 -35 -76.5t-113 -23.5t-112.5 23.5t-34.5 76.5q0 61 50 84zM148 0h-66l486 700h66zM48 567l-32 47l136 86h41v-350h-59v272zM522 102q0 -51 88 -51t88 51q0 27 -20.5 39
t-67.5 12q-46 0 -67 -12t-21 -39zM547 217q20 -11 64 -11q43 0 63 11q19 10 19 36q0 47 -82 47q-84 0 -84 -47q0 -25 20 -36z" />
    <glyph glyph-name="threeeighths" unicode="&#x215c;" horiz-adv-x="817" 
d="M551 180q-46 22 -46 80q0 50 34 72t109 22t108.5 -22t33.5 -72q0 -58 -46 -80q51 -22 51 -84q0 -53 -35 -76.5t-113 -23.5t-112.5 23.5t-34.5 76.5q0 62 51 84zM15 454h58q0 -53 80 -53q79 0 79 52q0 27 -20.5 38.5t-66.5 11.5h-17v52h19q43 0 61.5 11t18.5 36
q0 26 -16.5 37t-55.5 11q-74 0 -74 -48h-59q0 54 31.5 78t101.5 24q69 0 100.5 -22t31.5 -72q0 -59 -46 -81q50 -23 50 -83q0 -52 -33 -76t-105 -24q-73 0 -105.5 25.5t-32.5 82.5zM671 700l-486 -700h-66l486 700h66zM559 102q0 -51 88 -51t88 51q0 27 -20.5 39t-67.5 12
q-46 0 -67 -12t-21 -39zM584 217q20 -11 64 -11q43 0 63 11q19 10 19 36q0 47 -82 47q-84 0 -84 -47q0 -25 20 -36z" />
    <glyph glyph-name="fiveeighths" unicode="&#x215d;" horiz-adv-x="842" 
d="M575 180q-46 22 -46 80q0 50 34 72t110 22q75 0 108 -22t33 -72q0 -58 -45 -80q50 -23 50 -84q0 -53 -34.5 -76.5t-112.5 -23.5q-77 0 -112.5 24t-35.5 76q0 62 51 84zM26 454h60q0 -53 81 -53q46 0 67 15t21 48q0 34 -23 49t-74 15q-64 0 -64 -27h-56v199h251v-56h-195
v-81q24 18 83 18q70 0 103 -28t33 -89q0 -62 -34.5 -90t-111.5 -28q-74 0 -107.5 25.5t-33.5 82.5zM696 700l-486 -700h-67l487 700h66zM672 153q-89 0 -89 -51t89 -51q88 0 88 51q0 27 -20.5 39t-67.5 12zM588 253q0 -25 20 -36t65 -11q44 0 63 11t19 36q0 47 -82 47
q-85 0 -85 -47z" />
    <glyph glyph-name="seveneighths" unicode="&#x215e;" horiz-adv-x="801" 
d="M534 180q-45 22 -45 80q0 50 33.5 72t109.5 22q75 0 108 -22t33 -72q0 -58 -45 -80q50 -21 50 -84q0 -53 -34.5 -76.5t-112.5 -23.5t-112.5 23.5t-34.5 76.5q0 63 50 84zM169 0h-66l486 700h66zM8 645v55h278v-55l-184 -295h-67l184 295h-211zM631 51q88 0 88 51
q0 27 -20.5 39t-67.5 12q-89 0 -89 -51t89 -51zM547 253q0 -25 20 -36t65 -11q44 0 63 11t19 36q0 47 -82 47q-85 0 -85 -47z" />
    <glyph glyph-name="uni215F" unicode="&#x215f;" horiz-adv-x="440" 
d="M148 0h-66l486 700h66zM48 567l-32 47l136 86h41v-350h-59v272z" />
    <glyph glyph-name="uni2189" unicode="&#x2189;" horiz-adv-x="838" 
d="M62 662q38 42 119 42t119 -42q36 -44 36 -137q0 -94 -36 -136q-37 -43 -119 -43t-119 43q-37 41 -37 136q0 94 37 137zM539 104h59q0 -28 19 -40.5t61 -12.5q79 0 79 52q0 27 -20.5 38.5t-67.5 11.5h-16v52h19q80 0 80 47q0 48 -73 48t-73 -48h-59q0 54 31.5 78t100.5 24
q70 0 101.5 -22t31.5 -72q0 -59 -46 -81q50 -23 50 -83q0 -52 -33 -76t-105 -24q-73 0 -106 25.5t-33 82.5zM719 700l-486 -700h-66l486 700h66zM84 525q0 -64 23.5 -94t73.5 -30q51 0 73.5 29.5t22.5 94.5q0 66 -22.5 95.5t-73.5 29.5q-50 0 -73.5 -29.5t-23.5 -95.5z" />
    <glyph glyph-name="arrowleft" unicode="&#x2190;" horiz-adv-x="820" 
d="M390 84h-93l-237 266l237 266h93l-205 -230h575v-72h-575z" />
    <glyph glyph-name="arrowup" unicode="&#x2191;" horiz-adv-x="820" 
d="M374 0v575l-230 -205v93l266 237l266 -237v-93l-230 205v-575h-72z" />
    <glyph glyph-name="arrowright" unicode="&#x2192;" horiz-adv-x="820" 
d="M635 314h-575v72h575l-205 230h93l237 -266l-237 -266h-93z" />
    <glyph glyph-name="arrowdown" unicode="&#x2193;" horiz-adv-x="820" 
d="M410 0l-266 237v93l230 -205v575h72v-575l230 205v-93z" />
    <glyph glyph-name="arrowboth" unicode="&#x2194;" horiz-adv-x="820" 
d="M347 84h-93l-223 266l223 266h93l-193 -230h512l-193 230h94l222 -266l-222 -266h-94l193 230h-512z" />
    <glyph glyph-name="arrowupdn" unicode="&#x2195;" horiz-adv-x="820" 
d="M374 94v512l-230 -193v94l266 222l266 -222v-94l-230 193v-512l230 193v-93l-266 -223l-266 223v93z" />
    <glyph glyph-name="uni2196" unicode="&#x2196;" horiz-adv-x="820" 
d="M208 176l-66 66l21 355l355 21l66 -66l-307 -17l406 -407l-51 -51l-407 406z" />
    <glyph glyph-name="uni2197" unicode="&#x2197;" horiz-adv-x="820" 
d="M193 77l-51 51l406 407l-307 17l66 66l355 -21l21 -355l-66 -66l-17 307z" />
    <glyph glyph-name="uni2198" unicode="&#x2198;" horiz-adv-x="820" 
d="M241 143l307 17l-406 407l51 51l407 -406l17 307l66 -66l-21 -355l-355 -21z" />
    <glyph glyph-name="uni2199" unicode="&#x2199;" horiz-adv-x="820" 
d="M518 77l-355 21l-21 355l66 66l17 -307l407 406l51 -51l-406 -407l307 -17z" />
    <glyph glyph-name="uni21E4" unicode="&#x21e4;" horiz-adv-x="912" 
d="M462 131h-93l-196 219l196 220h93l-165 -184h555v-72h-555zM123 570v-439h-63v439h63z" />
    <glyph glyph-name="uni21E5" unicode="&#x21e5;" horiz-adv-x="912" 
d="M615 314h-555v72h555l-164 184h93l195 -220l-195 -219h-93zM852 570v-439h-63v439h63z" />
    <glyph glyph-name="uni21E6" unicode="&#x21e6;" horiz-adv-x="805" 
d="M422 179v-214l-385 385l385 385v-214h325v-342h-325zM378 458v142l-250 -250l250 -250v142h303v216h-303z" />
    <glyph glyph-name="uni21E7" unicode="&#x21e7;" horiz-adv-x="870" 
d="M264 0v325h-214l385 385l385 -385h-214v-325h-342zM435 619l-250 -250h142v-302h217v302h141z" />
    <glyph glyph-name="uni21E8" unicode="&#x21e8;" horiz-adv-x="805" 
d="M382 179h-325v342h325v214l385 -385l-385 -385v214zM426 458h-302v-216h302v-142l250 250l-250 250v-142z" />
    <glyph glyph-name="uni21E9" unicode="&#x21e9;" horiz-adv-x="870" 
d="M820 375l-385 -385l-385 385h214v325h342v-325h214zM327 634v-303h-142l250 -250l250 250h-141v303h-217z" />
    <glyph glyph-name="uni21EA" unicode="&#x21ea;" horiz-adv-x="870" 
d="M264 149v176h-214l385 385l385 -385h-214v-176h-342zM435 623l-250 -250h142v-161h217v161h141zM606 92v-222h-342v222h342zM546 38h-223v-114h223v114z" />
    <glyph glyph-name="emptyset" unicode="&#x2205;" horiz-adv-x="825" 
d="M51 350q0 149 106 255t255 106q97 0 179 -47l60 84l54 -37l-60 -86q129 -110 129 -275q0 -150 -106 -255q-106 -106 -256 -106q-96 0 -179 47l-58 -85l-56 38l60 85q-61 52 -94.5 123.5t-33.5 152.5zM604 567l-330 -472q65 -35 138 -35q121 0 206 85t85 205
q0 128 -99 217zM412 640q-120 0 -205 -85t-85 -205q0 -128 99 -217l329 472q-65 35 -138 35z" />
    <glyph glyph-name="product" unicode="&#x220f;" horiz-adv-x="744" 
d="M101 -150v898h542v-898h-73v830h-396v-830h-73z" />
    <glyph glyph-name="uni2210" unicode="&#x2210;" horiz-adv-x="744" 
d="M101 -150v898h73v-830h396v830h73v-898h-542z" />
    <glyph glyph-name="summation" unicode="&#x2211;" horiz-adv-x="618" 
d="M600 -150h-552v77l290 398l-290 398v77h538v-82h-438l288 -393l-288 -393h452v-82z" />
    <glyph glyph-name="minus" unicode="&#x2212;" horiz-adv-x="670" 
d="M600 311h-530v78h530v-78z" />
    <glyph glyph-name="radical" unicode="&#x221a;" horiz-adv-x="614" 
d="M40 102l-35 54l128 84h23l161 -254l221 822l71 -15l-253 -943h-33l-198 308z" />
    <glyph glyph-name="integral" unicode="&#x222b;" horiz-adv-x="284" 
d="M-6 -155h-35v78h31q58 0 84.5 31.5t26.5 102.5v533q0 112 45 162.5t144 50.5h35v-78h-31q-58 0 -84.5 -32t-26.5 -103v-533q0 -111 -44.5 -161.5t-144.5 -50.5z" />
    <glyph glyph-name="approxequal" unicode="&#x2248;" horiz-adv-x="670" 
d="M138 377h-69q0 155 138 155q79 0 138 -45q57 -46 111 -46q75 0 75 87h69q0 -155 -140 -155q-45 -2 -92 21.5t-87.5 47t-68.5 21.5q-74 0 -74 -86zM138 172h-69q0 155 138 155q79 0 138 -45q57 -46 111 -46q75 0 75 87h69q0 -155 -140 -155q-80 0 -137 46q-59 45 -111 45
q-74 0 -74 -87z" />
    <glyph glyph-name="notequal" unicode="&#x2260;" horiz-adv-x="670" 
d="M600 516v-77h-180l-102 -178h282v-77h-327l-68 -117h-67l67 117h-135v77h180l102 178h-282v77h327l68 117h68l-68 -117h135z" />
    <glyph glyph-name="lessequal" unicode="&#x2264;" horiz-adv-x="670" 
d="M587 192l-527 193v84l527 193v-83l-425 -152l425 -152v-83zM592 42h-532v77h532v-77z" />
    <glyph glyph-name="greaterequal" unicode="&#x2265;" horiz-adv-x="670" 
d="M610 469v-84l-527 -193v83l425 152l-425 152v83zM78 42v77h532v-77h-532z" />
    <glyph glyph-name="circleplus" unicode="&#x2295;" 
d="M166 98q-105 104 -105 252t105 253q104 104 252 104q147 0 253 -104q105 -105 105 -253t-105 -252q-105 -105 -253 -105t-252 105zM387 67v249h-251q10 -96 82 -168q70 -70 169 -81zM136 384h251v249q-99 -11 -169 -81q-72 -72 -82 -168zM701 316h-251v-249q99 11 169 81
t82 168zM450 633v-249h251q-12 98 -82 168t-169 81z" />
    <glyph glyph-name="uni2296" unicode="&#x2296;" 
d="M166 98q-105 104 -105 252t105 253q104 104 252 104q147 0 253 -104q105 -105 105 -253t-105 -252q-105 -105 -253 -105t-252 105zM136 384h565q-13 105 -93 179q-81 72 -190 72q-108 0 -189 -72q-81 -74 -93 -179zM701 316h-565q12 -106 93 -178q80 -73 189 -73
q110 0 190 73q80 72 93 178z" />
    <glyph glyph-name="circlemultiply" unicode="&#x2297;" 
d="M61 350q-1 148 104 253t253 105t253 -105t105 -253t-105 -253t-253 -105t-253 105q-104 106 -104 253zM194 174l178 178l-176 177q-62 -77 -62 -177q-1 -100 60 -178zM597 128l-177 176l-178 -178q76 -61 176 -61q101 0 179 63zM642 526l-177 -177l176 -177q61 76 63 177
q0 100 -62 177zM241 573l176 -176l177 177q-76 61 -175 61q-98 0 -178 -62z" />
    <glyph glyph-name="uni2298" unicode="&#x2298;" 
d="M61 350q-1 148 104 253t253 105t253 -105t105 -253t-105 -253t-253 -105t-253 105q-104 106 -104 253zM642 526l-400 -400q76 -61 177 -61q117 0 201 84q77 77 83 185q6 109 -61 192zM194 174l400 400q-76 61 -177 61q-117 0 -200 -83q-77 -79 -83 -186q-6 -108 60 -192z
" />
    <glyph glyph-name="uni2303" unicode="&#x2303;" horiz-adv-x="692" 
d="M346 617l-233 -233l-46 46l279 279l278 -279l-45 -46z" />
    <glyph glyph-name="uni2318" unicode="&#x2318;" horiz-adv-x="819" 
d="M93 30q-38 38 -38 91t38 91t91 38h71v200h-71q-53 0 -91 38t-38 91q0 54 38 92q37 37 91 37t91 -37q38 -38 38 -92v-71h193v71q0 54 38 92q37 37 91 37q55 0 92 -37q38 -38 38 -92q0 -53 -38 -91t-92 -38h-70v-200h70q54 0 92 -38t38 -91t-38 -91t-92 -38q-53 0 -91 38
t-38 91v71h-193v-71q0 -53 -38 -91t-91 -38t-91 38zM506 453h-193v-206h193v206zM255 192h-71q-30 0 -50.5 -21t-20.5 -50t20.5 -50t50.5 -21q29 0 50 21t21 50v71zM184 650q-30 0 -50.5 -21t-20.5 -50t20.5 -50t50.5 -21h71v71q0 29 -21 50t-50 21zM685 629
q-31 34 -77 14.5t-43 -64.5v-71h70q45 -2 64.5 44.5t-14.5 76.5zM635 192h-70v-71q-3 -45 43 -64.5t77 14.5q34 30 14.5 76.5t-64.5 44.5z" />
    <glyph glyph-name="uni2325" unicode="&#x2325;" horiz-adv-x="838" 
d="M47 642v58h283l221 -642h240v-58h-283l-220 642h-241zM777 642h-301v58h301v-58z" />
    <glyph glyph-name="uni2326" unicode="&#x2326;" horiz-adv-x="1050" 
d="M731 0h-660v700h660l295 -350zM702 638h-567v-576h567l242 288zM232 170l180 180l-180 180l43 43l180 -180l180 180l43 -43l-180 -180l180 -180l-43 -43l-180 180l-180 -180z" />
    <glyph glyph-name="uni2327" unicode="&#x2327;" horiz-adv-x="848" 
d="M71 0v700h706v-700h-706zM135 638v-576h578v576h-578zM245 573l179 -180l180 180l43 -43l-179 -180l179 -180l-43 -43l-180 180l-179 -180l-44 43l180 180l-180 180z" />
    <glyph glyph-name="uni232B" unicode="&#x232b;" horiz-adv-x="1050" 
d="M979 700v-700h-660l-295 350l295 350h660zM914 62v576h-567l-242 -288l242 -288h567zM818 530l-180 -180l180 -180l-43 -43l-180 180l-180 -180l-43 43l180 180l-180 180l43 43l180 -180l180 180z" />
    <glyph glyph-name="uni23CE" unicode="&#x23ce;" horiz-adv-x="778" 
d="M227 69l-180 201l180 201h93l-149 -165h474v277h-251v73h321v-422h-544l149 -165h-93z" />
    <glyph glyph-name="uni23CF" unicode="&#x23cf;" horiz-adv-x="640" 
d="M20 340l300 300l300 -300h-600zM620 90h-600v180h600v-180z" />
    <glyph glyph-name="uni23E9" unicode="&#x23e9;" horiz-adv-x="720" 
d="M60 50v600l300 -265v265l340 -300l-340 -300v265z" />
    <glyph glyph-name="uni23EA" unicode="&#x23ea;" horiz-adv-x="720" 
d="M360 315v-265l-340 300l340 300v-265l300 265v-600z" />
    <glyph glyph-name="uni23ED" unicode="&#x23ed;" horiz-adv-x="840" 
d="M60 50v600l300 -265v265l300 -265v265h120v-600h-120v265l-300 -265v265z" />
    <glyph glyph-name="uni23EE" unicode="&#x23ee;" horiz-adv-x="840" 
d="M180 50h-120v600h120v-265l300 265v-265l300 265v-600l-300 265v-265l-300 265v-265z" />
    <glyph glyph-name="uni23F4" unicode="&#x23f4;" horiz-adv-x="380" 
d="M20 350l300 300v-600z" />
    <glyph glyph-name="uni23F5" unicode="&#x23f5;" horiz-adv-x="380" 
d="M60 650l300 -300l-300 -300v600z" />
    <glyph glyph-name="uni23F6" unicode="&#x23f6;" horiz-adv-x="640" 
d="M20 180l300 300l300 -300h-600z" />
    <glyph glyph-name="uni23F7" unicode="&#x23f7;" horiz-adv-x="640" 
d="M620 480l-300 -300l-300 300h600z" />
    <glyph glyph-name="uni23F8" unicode="&#x23f8;" horiz-adv-x="630" 
d="M570 50h-200v600h200v-600zM260 50h-200v600h200v-600z" />
    <glyph glyph-name="uni2423" unicode="&#x2423;" horiz-adv-x="692" 
d="M651 0v-153h-610v153h58v-98h494v98h58z" />
    <glyph glyph-name="uni2460" unicode="&#x2460;" horiz-adv-x="946" 
d="M784 40q-97 -97 -311 -97t-310 97q-97 97 -97 311q0 213 97 310q96 96 310 96q213 0 311 -96q96 -97 96 -310t-96 -311zM209 615q-83 -83 -83 -265q0 -181 83 -264t264 -83q182 0 264.5 82.5t82.5 264.5q0 183 -82 265t-265 82q-182 0 -264 -82zM465 447l-85 -55l-33 47
l137 86h40v-350h-59v272z" />
    <glyph glyph-name="uni2461" unicode="&#x2461;" horiz-adv-x="946" 
d="M784 40q-97 -97 -311 -97t-310 97q-97 97 -97 311q0 213 97 310q96 96 310 96q213 0 311 -96q96 -97 96 -310t-96 -311zM738 615q-82 82 -265 82q-182 0 -264 -82q-83 -83 -83 -265t83 -264.5t264 -82.5q182 0 264.5 82.5t82.5 264.5q0 183 -82 265zM396 421h-59
q0 57 33 82.5t106 25.5q72 0 104 -25t32 -82q0 -71 -62 -91l-117 -37q-30 -10 -30 -43v-20h209v-56h-268v65q0 80 63 99l116 38q30 11 30 42q0 56 -79 56q-78 0 -78 -54z" />
    <glyph glyph-name="uni2462" unicode="&#x2462;" horiz-adv-x="946" 
d="M784 40q-97 -97 -311 -97t-310 97q-97 97 -97 311q0 213 97 310q96 96 310 96q213 0 311 -96q96 -97 96 -310t-96 -311zM738 615q-82 82 -265 82q-182 0 -264 -82q-83 -83 -83 -265t83 -264.5t264 -82.5q182 0 264.5 82.5t82.5 264.5q0 183 -82 265zM327 279h59
q0 -28 19 -40.5t61 -12.5q79 0 79 52q0 27 -20.5 38.5t-67.5 11.5h-16v52h19q80 0 80 47q0 48 -73 48t-73 -48h-59q0 54 31.5 78t100.5 24q70 0 101 -22t31 -72q0 -61 -49 -80q53 -21 53 -84q0 -53 -32.5 -76.5t-104.5 -23.5q-73 0 -106 25.5t-33 82.5z" />
    <glyph glyph-name="uni2463" unicode="&#x2463;" horiz-adv-x="946" 
d="M784 40q-97 -97 -311 -97t-310 97q-97 97 -97 311q0 213 97 310q96 96 310 96q213 0 311 -96q96 -97 96 -310t-96 -311zM209 615q-83 -83 -83 -265q0 -181 83 -264t264 -83q182 0 264.5 82.5t82.5 264.5q0 183 -82 265t-265 82q-182 0 -264 -82zM300 246v56l172 223h90
v-223h58v-56h-58v-71h-59v71h-203zM503 297v170l-137 -170h137z" />
    <glyph glyph-name="uni2464" unicode="&#x2464;" horiz-adv-x="946" 
d="M784 40q-97 -97 -311 -97t-310 97q-97 97 -97 311q0 213 97 310q96 96 310 96q213 0 311 -96q96 -97 96 -310t-96 -311zM209 615q-83 -83 -83 -265q0 -181 83 -264t264 -83q182 0 264.5 82.5t82.5 264.5q0 183 -82 265t-265 82q-182 0 -264 -82zM332 280h59q0 -55 82 -55
q46 0 66.5 15.5t20.5 49.5q0 35 -23 51t-74 16q-64 0 -64 -30h-55v199h251v-54h-196v-84q25 19 84 19q70 0 103 -28t33 -89q0 -62 -34.5 -90t-111.5 -28q-73 0 -107 26t-34 82z" />
    <glyph glyph-name="uni2465" unicode="&#x2465;" horiz-adv-x="946" 
d="M66 351q0 213 97 310q96 96 310 96q213 0 311 -96q96 -97 96 -310t-96 -311q-97 -97 -311 -97t-310 97q-97 97 -97 311zM738 615q-82 82 -264 82q-183 0 -265 -82q-83 -83 -83 -264q0 -182 83 -265t265 -83q181 0 263.5 83t82.5 265t-82 264zM327 279v121q0 68 34 98.5
t111 30.5q72 0 104 -23.5t32 -77.5h-59q0 47 -78 47q-45 0 -65 -17.5t-20 -55.5v-41q18 33 94 33q72 0 105.5 -27t33.5 -85t-35 -84q-34 -27 -111 -27q-76 0 -111 26t-35 82zM386 284q0 -58 88 -58q86 0 86 58q0 31 -20.5 44.5t-65.5 13.5q-47 0 -67.5 -13.5t-20.5 -44.5z
" />
    <glyph glyph-name="uni2466" unicode="&#x2466;" horiz-adv-x="946" 
d="M784 40q-97 -97 -311 -97t-310 97q-97 97 -97 311q0 213 97 310q96 96 310 96q213 0 311 -96q96 -97 96 -310t-96 -311zM738 615q-82 82 -265 82q-182 0 -264 -82q-83 -83 -83 -265t83 -264.5t264 -82.5q182 0 264.5 82.5t82.5 264.5q0 183 -82 265zM552 470h-211v55h278
v-55l-184 -295h-68z" />
    <glyph glyph-name="uni2467" unicode="&#x2467;" horiz-adv-x="946" 
d="M784 40q-97 -97 -311 -97t-310 97q-97 97 -97 311q0 213 97 310q96 96 310 96q213 0 311 -96q96 -97 96 -310t-96 -311zM209 615q-83 -83 -83 -265q0 -181 83 -264t264 -83q182 0 264.5 82.5t82.5 264.5q0 183 -82 265t-265 82q-182 0 -264 -82zM473 171
q-78 0 -112.5 23.5t-34.5 76.5q0 65 55 84q-50 21 -50 80q0 50 34 72t109 22t108.5 -22t33.5 -72q0 -59 -50 -80q55 -19 55 -84q0 -53 -35 -76.5t-113 -23.5zM385 277q0 -51 88 -51t88 51q0 27 -20.5 39t-67.5 12q-46 0 -67 -12t-21 -39zM390 428q0 -25 20 -36t64 -11
q43 0 63 11q19 10 19 36t-19 36q-20 11 -63 11q-84 0 -84 -47z" />
    <glyph glyph-name="uni2468" unicode="&#x2468;" horiz-adv-x="946" 
d="M784 40q-97 -97 -311 -97t-310 97q-97 97 -97 311q0 213 97 310q96 96 310 96q213 0 311 -96q96 -97 96 -310t-96 -311zM126 351q0 -182 83 -265t265 -83q181 0 263.5 83t82.5 265q0 181 -82 263.5t-264 82.5t-265 -82.5t-83 -263.5zM365 331q-33 27 -33 86t35 86
q35 26 110 26q74 0 108 -25.5t34 -82.5v-121q0 -68 -34 -98.5t-111 -30.5q-72 0 -105 23.5t-33 77.5h58q0 -46 79 -46q47 0 67 17t20 56v40q-16 -36 -91 -36q-72 0 -104 28zM475 474q-85 0 -85 -59q0 -61 85 -61q44 0 64 14.5t20 46.5q0 31 -20 45t-64 14z" />
    <glyph glyph-name="uni24EA" unicode="&#x24ea;" horiz-adv-x="946" 
d="M784 40q-97 -97 -311 -97t-310 97q-97 97 -97 311q0 213 97 310q96 96 310 96q213 0 311 -96q96 -97 96 -310t-96 -311zM738 615q-82 82 -265 82q-182 0 -264 -82q-83 -83 -83 -265t83 -264.5t264 -82.5q182 0 264.5 82.5t82.5 264.5q0 183 -82 265zM593 214
q-37 -43 -119 -43t-119 43q-37 41 -37 136q0 94 37 137q37 42 119 42t119 -42q36 -43 36 -137t-36 -136zM377 350q0 -64 23.5 -94t73.5 -30q51 0 73.5 29.5t22.5 94.5q0 66 -22.5 95.5t-73.5 29.5q-50 0 -73.5 -29.5t-23.5 -95.5z" />
    <glyph glyph-name="uni24FF" unicode="&#x24ff;" horiz-adv-x="946" 
d="M784 40q-97 -97 -311 -97t-310 97q-97 97 -97 311q0 213 97 310q96 96 310 96q213 0 311 -96q96 -97 96 -310t-96 -311zM593 487q-37 42 -119 42t-119 -42q-37 -43 -37 -137q0 -95 37 -136q37 -43 119 -43t119 43q36 42 36 136t-36 137zM377 350q0 66 23.5 95.5
t73.5 29.5q51 0 73.5 -29.5t22.5 -95.5q0 -65 -22.5 -94.5t-73.5 -29.5q-50 0 -73.5 30t-23.5 94z" />
    <glyph glyph-name="filledbox" unicode="&#x25a0;" horiz-adv-x="902" 
d="M801 0h-700v700h700v-700z" />
    <glyph glyph-name="uni25A1" unicode="&#x25a1;" horiz-adv-x="902" 
d="M801 0h-700v700h700v-700zM728 73v554h-554v-554h554z" />
    <glyph glyph-name="triagup" unicode="&#x25b2;" horiz-adv-x="892" 
d="M30 0l416 720l416 -720h-832z" />
    <glyph glyph-name="uni25B3" unicode="&#x25b3;" horiz-adv-x="892" 
d="M446 720l416 -720h-832zM154 73h585l-293 506z" />
    <glyph glyph-name="triagrt" unicode="&#x25ba;" horiz-adv-x="981" 
d="M101 750l850 -375l-850 -375v750z" />
    <glyph glyph-name="triagdn" unicode="&#x25bc;" horiz-adv-x="892" 
d="M862 700l-416 -720l-416 720h832z" />
    <glyph glyph-name="uni25BD" unicode="&#x25bd;" horiz-adv-x="892" 
d="M862 700l-416 -720l-416 720h832zM154 627l292 -506l293 506h-585z" />
    <glyph glyph-name="triaglf" unicode="&#x25c4;" horiz-adv-x="981" 
d="M880 0l-850 375l850 375v-750z" />
    <glyph glyph-name="lozenge" unicode="&#x25ca;" horiz-adv-x="498" 
d="M30 350l188 350h62l188 -350l-188 -350h-62zM392 350l-143 265l-143 -265l143 -265z" />
    <glyph glyph-name="circle" unicode="&#x25cb;" 
d="M166 603q104 104 252 104q147 0 253 -104q105 -105 105 -253t-105 -252q-105 -105 -253 -105t-252 105q-105 104 -105 252t105 253zM217 552q-83 -85 -83 -202q0 -118 83 -201q83 -84 201 -84t202 84q83 83 83 201q0 117 -83 202q-85 83 -202 83q-118 0 -201 -83z" />
    <glyph glyph-name="uni25CF" unicode="&#x25cf;" 
d="M166 98q-105 104 -105 252t105 253q104 104 252 104q147 0 253 -104q105 -105 105 -253t-105 -252q-105 -105 -253 -105t-252 105z" />
    <glyph glyph-name="uni25D0" unicode="&#x25d0;" 
d="M166 98q-105 104 -105 252t105 253q104 104 252 104q147 0 253 -104q105 -105 105 -253t-105 -252q-105 -105 -253 -105t-252 105zM418 635v-570q118 0 202 84q83 83 83 201q0 117 -83 202q-85 83 -202 83z" />
    <glyph glyph-name="uni25D1" unicode="&#x25d1;" 
d="M166 603q104 104 252 104q147 0 253 -104q105 -105 105 -253t-105 -252q-105 -105 -253 -105t-252 105q-105 104 -105 252t105 253zM418 65v570q-118 0 -201 -83q-83 -85 -83 -202q0 -118 83 -201q83 -84 201 -84z" />
    <glyph glyph-name="uni25D2" unicode="&#x25d2;" 
d="M166 98q-105 104 -105 252t105 253q104 104 252 104q147 0 253 -104q105 -105 105 -253t-105 -252q-105 -105 -253 -105t-252 105zM134 350h569q0 117 -83 202q-85 83 -202 83q-118 0 -201 -83q-83 -85 -83 -202z" />
    <glyph glyph-name="uni25D3" unicode="&#x25d3;" 
d="M166 603q104 104 252 104q147 0 253 -104q105 -105 105 -253t-105 -252q-105 -105 -253 -105t-252 105q-105 104 -105 252t105 253zM217 149q83 -84 201 -84t202 84q83 83 83 201h-569q0 -118 83 -201z" />
    <glyph glyph-name="uni25D4" unicode="&#x25d4;" 
d="M166 603q104 104 252 104q147 0 253 -104q105 -105 105 -253t-105 -252q-105 -105 -253 -105t-252 105q-105 104 -105 252t105 253zM217 552q-83 -85 -83 -202q0 -118 83 -201q83 -84 201 -84t202 84q83 83 83 201h-285v285q-118 0 -201 -83z" />
    <glyph glyph-name="uni25D5" unicode="&#x25d5;" 
d="M166 98q-105 104 -105 252t105 253q104 104 252 104q147 0 253 -104q105 -105 105 -253t-105 -252q-105 -105 -253 -105t-252 105zM134 350h284v285q-118 0 -201 -83q-83 -85 -83 -202z" />
    <glyph glyph-name="uni25D6" unicode="&#x25d6;" horiz-adv-x="519" 
d="M418 707v-714q-148 0 -252 105q-105 104 -105 252t105 253q104 104 252 104z" />
    <glyph glyph-name="uni25D7" unicode="&#x25d7;" horiz-adv-x="519" 
d="M101 -7v714q147 0 253 -104q104 -106 104 -253q0 -148 -104 -252q-105 -105 -253 -105z" />
    <glyph glyph-name="invcircle" unicode="&#x25d9;" horiz-adv-x="902" 
d="M801 700v-700h-700v700h700zM451 53q122 0 210 88q87 87 87 209t-87 210q-89 87 -210 87q-123 0 -210 -87q-88 -88 -88 -210t88 -209q87 -88 210 -88zM226 350q0 93 67 159q66 66 158 66q93 0 159 -66t66 -159q0 -92 -66 -158q-66 -67 -159 -67q-92 0 -158 67
q-67 66 -67 158z" />
    <glyph glyph-name="uni25DA" unicode="&#x25da;" horiz-adv-x="902" 
d="M676 350h-450q0 93 67 159q66 66 158 66q93 0 159 -66t66 -159zM153 350h-52v350h700v-350h-53q0 122 -87 210q-89 87 -210 87q-123 0 -210 -87q-88 -88 -88 -210z" />
    <glyph glyph-name="uni25DB" unicode="&#x25db;" horiz-adv-x="902" 
d="M451 125q-92 0 -158 66q-67 66 -67 159h450q0 -93 -66 -159t-159 -66zM801 0h-700v350h52q0 -122 88 -209q87 -88 210 -88q122 0 210 88q87 87 87 209h53v-350z" />
    <glyph glyph-name="uni25E7" unicode="&#x25e7;" horiz-adv-x="902" 
d="M801 0h-700v700h700v-700zM728 627h-277v-554h277v554z" />
    <glyph glyph-name="uni25E8" unicode="&#x25e8;" horiz-adv-x="902" 
d="M101 0v700h700v-700h-700zM174 627v-554h277v554h-277z" />
    <glyph glyph-name="uni25E9" unicode="&#x25e9;" horiz-adv-x="902" 
d="M801 0h-700v700h700v-700zM728 73v554l-554 -554h554z" />
    <glyph glyph-name="uni25EA" unicode="&#x25ea;" horiz-adv-x="902" 
d="M801 0h-700v700h700v-700zM174 73l554 554h-554v-554z" />
    <glyph glyph-name="uni2605" unicode="&#x2605;" horiz-adv-x="797" 
d="M550 263l82 -273l-234 163l-233 -163l82 273l-227 172l285 6l93 269l94 -269l285 -6z" />
    <glyph glyph-name="uni262F" unicode="&#x262f;" horiz-adv-x="870" 
d="M184 99q-104 104 -104 251t104 251t251 104t251 -104t104 -251t-104 -251t-251 -104t-251 104zM672 587q-98 98 -237 98t-237 -98t-98 -237q0 -70 49 -119t119 -49q69 0 118 49t49 119q0 69 49 118t119 49q69 0 118 -49t49 -118q0 139 -98 237zM603 400q-20 0 -35 -15
t-15 -35q0 -21 15 -35.5t35 -14.5q21 0 35.5 14.5t14.5 35.5q0 20 -14.5 35t-35.5 15zM217 350q0 20 15 35t35 15q21 0 35.5 -15t14.5 -35q0 -21 -14.5 -35.5t-35.5 -14.5q-20 0 -35 14.5t-15 35.5z" />
    <glyph glyph-name="uni2668" unicode="&#x2668;" horiz-adv-x="781" 
d="M30 165q0 43 39 80.5t108 61.5l7 -22q-53 -18 -83 -43t-30 -53q0 -52 94 -88q92 -37 226 -37q133 0 226 37t93 88q0 58 -113 96l7 22q69 -25 108 -62.5t39 -79.5q0 -73 -105 -124q-106 -51 -255 -51t-255 51t-106 124zM382 276q0 45 -29 117t-29 122q0 62 24 111.5
t48 73.5l9 9l9 -5q-18 -18 -33 -63q-13 -36 -13 -85q0 -60 29 -129q28 -66 28 -104q0 -41 -20 -92q-20 -48 -41 -78l-20 -28l-9 5q19 24 34 71q13 36 13 75zM175 489q0 50 21 95q19 43 40 66l20 20l9 -4q-18 -18 -33 -59q-13 -35 -13 -80q0 -57 29 -121q28 -62 28 -97
q0 -38 -20 -86q-18 -44 -40 -72l-20 -26l-10 4q19 24 34 67q13 33 13 70q0 42 -29 109t-29 114zM467 489q0 50 21 95q19 43 40 66l20 20l9 -4q-18 -18 -33 -59q-13 -35 -13 -80q0 -57 29 -121q28 -62 28 -97q0 -38 -20 -86q-18 -44 -40 -72l-20 -26l-9 4q19 24 34 67
q13 33 13 70q0 42 -29 109q-30 66 -30 114z" />
    <glyph glyph-name="uni26D4" unicode="&#x26d4;" 
d="M166 603q104 104 252 104q147 0 253 -104q105 -105 105 -253t-105 -252q-105 -105 -253 -105t-252 105q-105 104 -105 252t105 253zM186 399v-98h465v98h-465z" />
    <glyph glyph-name="uni2709" unicode="&#x2709;" horiz-adv-x="1142" 
d="M1071 0h-1000v700h1000v-700zM975 638h-808l405 -378zM711 310l-139 -130l-140 130l-265 -248h808zM135 585v-470l250 235zM1006 585l-248 -235l248 -235v470z" />
    <glyph glyph-name="uni278A" unicode="&#x278a;" horiz-adv-x="946" 
d="M784 40q-97 -97 -311 -97t-310 97q-97 97 -97 311q0 213 97 310q96 96 310 96q213 0 311 -96q96 -97 96 -310t-96 -311zM484 525l-137 -86l33 -47l85 55v-272h59v350h-40z" />
    <glyph glyph-name="uni278B" unicode="&#x278b;" horiz-adv-x="946" 
d="M784 40q-97 -97 -311 -97t-310 97q-97 97 -97 311q0 213 97 310q96 96 310 96q213 0 311 -96q96 -97 96 -310t-96 -311zM476 529q-73 0 -106 -25.5t-33 -82.5h59q0 54 78 54q79 0 79 -56q0 -31 -30 -42l-116 -38q-63 -19 -63 -99v-65h268v56h-209v20q0 33 30 43l117 37
q62 20 62 91q0 57 -32 82t-104 25z" />
    <glyph glyph-name="uni278C" unicode="&#x278c;" horiz-adv-x="946" 
d="M66 351q0 213 97 310q96 96 310 96q213 0 311 -96q96 -97 96 -310t-96 -311q-97 -97 -311 -97t-310 97q-97 97 -97 311zM386 279h-59q0 -57 33 -82.5t106 -25.5q72 0 104.5 23.5t32.5 76.5q0 63 -53 84q49 19 49 80q0 50 -31 72t-101 22q-69 0 -100.5 -24t-31.5 -78h59
q0 48 73 48t73 -48q0 -47 -80 -47h-19v-52h16q47 0 67.5 -11.5t20.5 -38.5q0 -52 -79 -52q-42 0 -61 12.5t-19 40.5z" />
    <glyph glyph-name="uni278D" unicode="&#x278d;" horiz-adv-x="946" 
d="M66 351q0 213 97 310q96 96 310 96q213 0 311 -96q96 -97 96 -310t-96 -311q-97 -97 -311 -97t-310 97q-97 97 -97 311zM472 525l-172 -223v-56h203v-71h59v71h58v56h-58v223h-90zM503 467v-170h-137z" />
    <glyph glyph-name="uni278E" unicode="&#x278e;" horiz-adv-x="946" 
d="M66 351q0 213 97 310q96 96 310 96q213 0 311 -96q96 -97 96 -310t-96 -311q-97 -97 -311 -97t-310 97q-97 97 -97 311zM391 280h-59q0 -56 34 -82t107 -26q77 0 111.5 28t34.5 90q0 61 -33 89t-103 28q-59 0 -84 -19v84h196v54h-251v-199h55q0 30 64 30q51 0 74 -16
t23 -51q0 -34 -20.5 -49.5t-66.5 -15.5q-82 0 -82 55z" />
    <glyph glyph-name="uni278F" unicode="&#x278f;" horiz-adv-x="946" 
d="M66 351q0 213 97 310q96 96 310 96q213 0 311 -96q96 -97 96 -310t-96 -311q-97 -97 -311 -97t-310 97q-97 97 -97 311zM327 400v-121q0 -56 35 -82t111 -26q77 0 111 27q35 26 35 84t-33 85q-34 27 -106 27q-76 0 -94 -33v41q0 38 20 55.5t65 17.5q78 0 78 -47h59
q0 54 -32 77.5t-104 23.5q-77 0 -111 -30.5t-34 -98.5zM474 226q-88 0 -88 58q0 31 20.5 44.5t67.5 13.5q45 0 65.5 -13.5t20.5 -44.5q0 -58 -86 -58z" />
    <glyph glyph-name="uni2790" unicode="&#x2790;" horiz-adv-x="946" 
d="M66 351q0 213 97 310q96 96 310 96q213 0 311 -96q96 -97 96 -310t-96 -311q-97 -97 -311 -97t-310 97q-97 97 -97 311zM341 525v-55h211l-185 -295h68l184 295v55h-278z" />
    <glyph glyph-name="uni2791" unicode="&#x2791;" horiz-adv-x="946" 
d="M66 351q0 213 97 310q96 96 310 96q213 0 311 -96q96 -97 96 -310t-96 -311q-97 -97 -311 -97t-310 97q-97 97 -97 311zM326 271q0 -53 34.5 -76.5t112.5 -23.5t113 23.5t35 76.5q0 65 -55 84q50 21 50 80q0 50 -33.5 72t-108.5 22t-109 -22t-34 -72q0 -59 50 -80
q-55 -19 -55 -84zM561 277q0 -51 -88 -51t-88 51q0 27 21 39t67 12q47 0 67.5 -12t20.5 -39zM390 428q0 47 84 47q82 0 82 -47q0 -26 -19 -36q-20 -11 -63 -11q-44 0 -64 11t-20 36z" />
    <glyph glyph-name="uni2792" unicode="&#x2792;" horiz-adv-x="946" 
d="M784 40q-97 -97 -311 -97t-310 97q-97 97 -97 311q0 213 97 310q96 96 310 96q213 0 311 -96q96 -97 96 -310t-96 -311zM367 503q-35 -27 -35 -86t33 -86q32 -28 104 -28q75 0 91 36v-40q0 -39 -20 -56t-67 -17q-79 0 -79 46h-58q0 -54 33 -77.5t105 -23.5q77 0 111 30.5
t34 98.5v121q0 57 -34 82.5t-108 25.5q-75 0 -110 -26zM475 354q-85 0 -85 61q0 59 85 59q44 0 64 -14t20 -45q0 -32 -20 -46.5t-64 -14.5z" />
    <glyph glyph-name="uni27E8" unicode="&#x27e8;" horiz-adv-x="326" 
d="M281 -129l-70 -21l-160 467v16l160 467l70 -21l-156 -454z" />
    <glyph glyph-name="uni27E9" unicode="&#x27e9;" horiz-adv-x="326" 
d="M115 800l161 -467v-16l-161 -467l-69 21l155 454l-155 454z" />
    <glyph glyph-name="uni300C" unicode="&#x300c;" horiz-adv-x="394" 
d="M174 130h-73v670h263v-68h-190v-602z" />
    <glyph glyph-name="uni300D" unicode="&#x300d;" horiz-adv-x="394" 
d="M293 520v-670h-263v68h190v602h73z" />
    <glyph glyph-name="uni3010" unicode="&#x3010;" horiz-adv-x="351" 
d="M306 -86l15 -14h-235v900h235q-24 -21 -53 -63q-24 -36 -45 -85q-53 -128 -53 -302q0 -185 53 -302q44 -99 83 -134z" />
    <glyph glyph-name="uni3011" unicode="&#x3011;" horiz-adv-x="351" 
d="M264 800v-900h-234q22 19 52 63q27 40 46 85q52 121 52 302q0 184 -53 303q-45 98 -81 133l-16 14h234z" />
    </font>
</defs>
</svg>
